<svg width="50" height="50" viewBox="0 0 50 50" fill="none" xmlns="http://www.w3.org/2000/svg">
<circle cx="25" cy="25" r="24.5" fill="url(#paint0_radial_179_26)" stroke="#FF9270"/>
<path d="M15.0234 28.9238C15.0234 28.3787 15.4663 27.9368 16.0125 27.9368H22.1016V34.013C22.1016 34.5581 21.6588 35 21.1126 35H16.0125C15.4663 35 15.0234 34.5581 15.0234 34.013V28.9238Z" fill="#FA6334"/>
<path d="M27.9451 15.987C27.9451 15.4419 28.388 15 28.9342 15H34.0343C34.5805 15 35.0233 15.4419 35.0233 15.987V21.0762C35.0233 21.6213 34.5805 22.0632 34.0343 22.0632H28.9342C28.388 22.0632 27.9451 21.6213 27.9451 21.0762V18.5316V15.987Z" fill="#FA6334"/>
<path d="M27.9453 28.9235C27.9453 28.3784 28.3881 27.9366 28.9343 27.9366H34.0344C34.5806 27.9366 35.0234 28.3784 35.0234 28.9235V34.0128C35.0234 34.5579 34.5806 34.9998 34.0344 34.9998H28.9343C28.3881 34.9998 27.9453 34.5579 27.9453 34.0128V31.4682V28.9235Z" fill="#FA6334"/>
<path d="M22.1016 27.9368H16.0125C15.4663 27.9368 15.0234 28.3787 15.0234 28.9238V34.013C15.0234 34.5581 15.4663 35 16.0125 35H21.1126C21.6588 35 22.1016 34.5581 22.1016 34.013V27.9368ZM22.1016 27.9368L28.1567 21.9108M27.9451 18.5316V21.0762C27.9451 21.6213 28.388 22.0632 28.9342 22.0632H34.0343C34.5805 22.0632 35.0233 21.6213 35.0233 21.0762V15.987C35.0233 15.4419 34.5805 15 34.0343 15H28.9342C28.388 15 27.9451 15.4419 27.9451 15.987V18.5316ZM27.9451 18.5316H21.9487M27.9453 31.4682V34.0128C27.9453 34.5579 28.3881 34.9998 28.9343 34.9998H34.0344C34.5806 34.9998 35.0234 34.5579 35.0234 34.0128V28.9235C35.0234 28.3784 34.5806 27.9366 34.0344 27.9366H28.9343C28.3881 27.9366 27.9453 28.3784 27.9453 28.9235V31.4682ZM27.9453 31.4682H21.9488M16.0125 22.0632H21.1126C21.6588 22.0632 22.1016 21.6213 22.1016 21.0762V15.987C22.1016 15.4419 21.6588 15 21.1126 15H16.0125C15.4663 15 15.0234 15.4419 15.0234 15.987V21.0762C15.0234 21.6213 15.4663 22.0632 16.0125 22.0632Z" stroke="white" stroke-width="2"/>
<defs>
<radialGradient id="paint0_radial_179_26" cx="0" cy="0" r="1" gradientUnits="userSpaceOnUse" gradientTransform="translate(25 25) rotate(89.9484) scale(26)">
<stop offset="0.703654" stop-color="#FF602E"/>
<stop offset="1" stop-color="#FE7044"/>
</radialGradient>
</defs>
</svg>
