<svg width="589" height="538" fill="none" xmlns="http://www.w3.org/2000/svg"><g clip-path="url(#a)"><path fill="url(#b)" fill-opacity=".86" d="M0 0h588.284v537.622H0z"/><path d="M259.284 0 6.737 252.548c-8.983 8.982-8.983 23.545 0 32.527l252.547 252.547M306.284 0 53.737 252.548c-8.983 8.982-8.983 23.545 0 32.527l252.547 252.547M353.284 0 100.737 252.548c-8.983 8.982-8.983 23.545 0 32.527l252.547 252.547M400.284 0 147.737 252.548c-8.983 8.982-8.983 23.545 0 32.527l252.547 252.547M447.284 0 194.737 252.548c-8.983 8.982-8.983 23.545 0 32.527l252.547 252.547M541.284 0 288.737 252.548c-8.983 8.982-8.983 23.545 0 32.527l252.547 252.547M588.284 0 335.737 252.548c-8.983 8.982-8.983 23.545 0 32.527l252.547 252.547M494.284 0 241.737 252.548c-8.983 8.982-8.983 23.545 0 32.527l252.547 252.547" stroke="url(#c)" stroke-opacity=".68" stroke-width="1.5"/></g><defs><linearGradient id="b" x1="429.5" y1="307.5" x2="-30.5" y2="284" gradientUnits="userSpaceOnUse"><stop offset=".083" stop-color="#1C0D24"/><stop offset="1" stop-color="#26132E" stop-opacity="0"/></linearGradient><linearGradient id="c" x1="-77.5" y1="269" x2="735.5" y2="269" gradientUnits="userSpaceOnUse"><stop offset=".151" stop-color="#FA6334"/><stop offset=".365" stop-color="#CD27EE"/><stop offset=".476" stop-color="#6523F0"/></linearGradient><clipPath id="a"><path fill="#fff" d="M0 0h588.284v537.622H0z"/></clipPath></defs></svg>