<svg width="449" height="99" fill="none" xmlns="http://www.w3.org/2000/svg"><g clip-path="url(#a)"><g clip-path="url(#b)"><mask id="c" style="mask-type:alpha" maskUnits="userSpaceOnUse" x="-96" y="-13" width="493" height="125"><path d="M-96-2.315c0-5.63 4.564-10.193 10.193-10.193h440.533c3.55 0 6.844 1.847 8.696 4.875l31.688 51.815a10.19 10.19 0 0 1 0 10.636l-31.688 51.814a10.191 10.191 0 0 1-8.696 4.875H-85.807c-5.63 0-10.193-4.563-10.193-10.193V-2.315Z" fill="#D9D9D9"/></mask><g mask="url(#c)"><path d="M39.422-12.508h445.096v124.015H39.422V-12.508Z" fill="url(#d)"/></g></g></g><defs><clipPath id="a"><path fill="#fff" d="M0 0h449v99H0z"/></clipPath><clipPath id="b"><path fill="#fff" transform="translate(-44.941 -12.508)" d="M0 0h494.362v124.015H0z"/></clipPath><linearGradient id="d" x1="39.422" y1="48.574" x2="484.518" y2="48.574" gradientUnits="userSpaceOnUse"><stop stop-color="#fff" stop-opacity="0"/><stop offset="1" stop-color="#fff" stop-opacity=".32"/></linearGradient></defs></svg>