<svg xmlns="http://www.w3.org/2000/svg" width="92" height="92" fill="none"><rect width="90" height="90" x="1" y="1" fill="url(#a)" stroke="#343434" stroke-width="2" rx="10"/><path stroke="#fff" stroke-linecap="round" stroke-linejoin="round" stroke-width="1.5" d="M65.225 49.404h-9.6V71.092h15.709V55.911m-6.11-6.507v6.507h6.11m-6.11-6.507 6.11 6.507"/><ellipse cx="34.244" cy="62.85" stroke="#fff" stroke-linecap="round" stroke-linejoin="round" stroke-width="1.5" rx="3.927" ry="3.904"/><ellipse cx="42.099" cy="42.898" stroke="#fff" stroke-linecap="round" stroke-linejoin="round" stroke-width="1.5" rx="3.927" ry="3.904"/><ellipse cx="53.441" cy="24.679" stroke="#fff" stroke-linecap="round" stroke-linejoin="round" stroke-width="1.5" rx="3.927" ry="3.904"/><ellipse cx="23.771" cy="23.812" stroke="#fff" stroke-linecap="round" stroke-linejoin="round" stroke-width="1.5" rx="3.927" ry="3.904"/><path stroke="#fff" stroke-linecap="round" stroke-linejoin="round" stroke-width="1.5" d="M32.935 24.246h12.218M61.223 23.622h1.17c5.39 0 9.761 4.37 9.761 9.762v0c0 5.39-4.37 9.761-9.761 9.761H50.096M25.953 62.417h-4.18a1.928 1.928 0 0 1-1.93-1.929v-6.453c0-6.39 5.181-11.571 11.572-11.571h2.44M42.102 62.85h10.036M59.555 62.512h4.363"/><ellipse cx="59.554" cy="66.048" fill="#fff" rx=".503" ry=".5"/><defs><linearGradient id="a" x1="102.574" x2="-17.223" y1="103.026" y2="1.359" gradientUnits="userSpaceOnUse"><stop offset=".102" stop-color="#333339"/><stop offset=".985" stop-color="#19181A"/></linearGradient></defs></svg>