<svg width="92" height="92" viewBox="0 0 92 92" fill="none" xmlns="http://www.w3.org/2000/svg">
<rect x="1" y="1" width="90" height="90" rx="10" fill="url(#paint0_linear_396_88512)" stroke="#343434" stroke-width="2"/>
<path d="M65.2248 49.4043H55.625V52.2892V61.6351C55.625 65.3284 55.625 71.0923 55.625 71.0923H71.3337V55.9107M65.2248 49.4043V55.9107H71.3337M65.2248 49.4043L71.3337 55.9107" stroke="white" stroke-width="1.5" stroke-linecap="round" stroke-linejoin="round"/>
<ellipse cx="34.2436" cy="62.8501" rx="3.92718" ry="3.90383" stroke="white" stroke-width="1.5" stroke-linecap="round" stroke-linejoin="round"/>
<ellipse cx="42.0991" cy="42.898" rx="3.92718" ry="3.90383" stroke="white" stroke-width="1.5" stroke-linecap="round" stroke-linejoin="round"/>
<ellipse cx="53.4408" cy="24.6792" rx="3.92718" ry="3.90383" stroke="white" stroke-width="1.5" stroke-linecap="round" stroke-linejoin="round"/>
<ellipse cx="23.7709" cy="23.812" rx="3.92718" ry="3.90383" stroke="white" stroke-width="1.5" stroke-linecap="round" stroke-linejoin="round"/>
<path d="M32.9355 24.2461L38.2562 24.2461L40.0298 24.2461L45.1534 24.2461" stroke="white" stroke-width="1.5" stroke-linecap="round" stroke-linejoin="round"/>
<path d="M61.2233 23.6221H62.3927C67.7839 23.6221 72.1542 27.9924 72.1542 33.3836V33.3836C72.1542 38.7747 67.7839 43.1451 62.3927 43.1451H50.0957" stroke="white" stroke-width="1.5" stroke-linecap="round" stroke-linejoin="round"/>
<path d="M25.9527 62.4168H21.7722C20.7072 62.4168 19.8438 61.5534 19.8438 60.4883V54.0348C19.8438 47.6443 25.0242 42.4639 31.4147 42.4639H33.8552" stroke="white" stroke-width="1.5" stroke-linecap="round" stroke-linejoin="round"/>
<path d="M42.1016 62.8496H52.1377" stroke="white" stroke-width="1.5" stroke-linecap="round" stroke-linejoin="round"/>
<path d="M59.5547 62.5117H63.9182" stroke="white" stroke-width="1.5" stroke-linecap="round" stroke-linejoin="round"/>
<ellipse cx="59.5538" cy="66.0479" rx="0.50299" ry="0.5" fill="white"/>
<defs>
<linearGradient id="paint0_linear_396_88512" x1="102.574" y1="103.026" x2="-17.2231" y2="1.35878" gradientUnits="userSpaceOnUse">
<stop offset="0.10199" stop-color="#333339"/>
<stop offset="0.985" stop-color="#19181A"/>
</linearGradient>
</defs>
</svg>
