<svg xmlns="http://www.w3.org/2000/svg" width="92" height="92" fill="none"><rect width="90" height="90" x="1" y="1" fill="url(#a)" stroke="#1E1E1E" stroke-width="2" rx="10"/><path stroke="#D5B563" stroke-linecap="round" stroke-linejoin="round" stroke-width="1.5" d="M49.756 55.32v-5.547M46.13 59.712v-.292M46.13 56.983v-7.21M17.398 68.903h56.624v4.575H17.398z"/><path stroke="#D5B563" stroke-linecap="round" stroke-linejoin="round" stroke-width="1.5" d="M46.688 68.904a5.268 5.268 0 0 1 5.268-5.268h19.278v5.268H46.688v0Z"/><path stroke="#D5B563" stroke-linecap="round" stroke-linejoin="round" stroke-width="1.5" d="M46.688 68.904a5.268 5.268 0 0 0-5.269-5.268H22.141v5.268h24.547v0ZM31.625 33.93v13.166c0 .546.38 1.02.914 1.136v0a62 62 0 0 0 26.4.045l.205-.044c.544-.117.932-.599.932-1.155V35.023M42.411 57.816V49.87"/><path stroke="#D5B563" stroke-linecap="round" stroke-linejoin="round" stroke-width="1.5" d="m68.814 30.945 6.324-2.405-28.87-11.207-28.87 11.207 28.87 10.975 22.546-8.57Zm0 0v8.164"/><ellipse cx="68.584" cy="41.178" stroke="#D5B563" stroke-linecap="round" stroke-linejoin="round" stroke-width="1.5" rx="2.092" ry="2.218"/><defs><linearGradient id="a" x1="-.398" x2="145.234" y1="2.631" y2="127.317" gradientUnits="userSpaceOnUse"><stop stop-color="#121215"/><stop offset=".975" stop-color="#28282E"/></linearGradient></defs></svg>