<svg xmlns="http://www.w3.org/2000/svg" width="92" height="92" fill="none"><rect width="90" height="90" x="1" y="1" fill="url(#a)" stroke="#343434" stroke-width="2" rx="10"/><path fill="#fff" d="M21 35.464h46.429v-1.5H21v1.5Zm.75 33.179V34.714h-1.5v33.929h1.5Zm44.929-33.929v15.477h1.5V34.713h-1.5Zm-44.929 0v-6.071h-1.5v6.071h1.5Zm44.929-6.071v6.071h1.5v-6.071h-1.5ZM54.992 69.679H25.204v1.5h29.788v-1.5Zm-29.788 0h-2.376v1.5h2.376v-1.5Zm-2.376-42.072h3.656v-1.5h-3.656v1.5Zm8.591 0h5.484v-1.5h-5.484v1.5Zm9.87 0h5.85v-1.5h-5.85v1.5Zm10.42 0h5.666v-1.5H51.71v1.5Zm10.784 0h3.108v-1.5h-3.108v1.5Zm5.686 1.036c0-1.417-1.171-2.536-2.578-2.536v1.5c.612 0 1.078.48 1.078 1.036h1.5Zm-46.429 0c0-.556.466-1.036 1.078-1.036v-1.5c-1.407 0-2.578 1.119-2.578 2.536h1.5Zm-1.5 40c0 1.417 1.17 2.536 2.578 2.536v-1.5c-.612 0-1.078-.48-1.078-1.036h-1.5Zm10.236-25.897c0 .753-.63 1.393-1.443 1.393v1.5c1.609 0 2.943-1.279 2.943-2.893h-1.5Zm-1.443 1.393c-.814 0-1.444-.64-1.444-1.393h-1.5c0 1.614 1.335 2.893 2.944 2.893v-1.5Zm-1.444-1.393c0-.753.63-1.393 1.444-1.393v-1.5c-1.61 0-2.944 1.28-2.944 2.893h1.5Zm1.444-1.393c.814 0 1.443.64 1.443 1.393h1.5c0-1.614-1.334-2.893-2.943-2.893v1.5Zm1.443 9.696c0 .753-.63 1.393-1.443 1.393v1.5c1.609 0 2.943-1.279 2.943-2.893h-1.5Zm-1.443 1.393c-.814 0-1.444-.64-1.444-1.393h-1.5c0 1.614 1.335 2.893 2.944 2.893v-1.5Zm-1.444-1.393c0-.753.63-1.393 1.444-1.393v-1.5c-1.61 0-2.944 1.279-2.944 2.893h1.5Zm1.444-1.393c.814 0 1.443.64 1.443 1.393h1.5c0-1.614-1.334-2.893-2.943-2.893v1.5Zm1.443 10.732c0 .753-.63 1.393-1.443 1.393v1.5c1.609 0 2.943-1.279 2.943-2.893h-1.5Zm-1.443 1.393c-.814 0-1.444-.64-1.444-1.393h-1.5c0 1.614 1.335 2.893 2.944 2.893v-1.5Zm-1.444-1.393c0-.753.63-1.393 1.444-1.393v-1.5c-1.61 0-2.944 1.28-2.944 2.893h1.5Zm1.444-1.393c.814 0 1.443.64 1.443 1.393h1.5c0-1.614-1.334-2.893-2.943-2.893v1.5Zm14.5-16.249c0 .753-.63 1.393-1.444 1.393v1.5c1.61 0 2.944-1.279 2.944-2.893h-1.5Zm-1.444 1.393c-.813 0-1.443-.64-1.443-1.393h-1.5c0 1.614 1.334 2.893 2.944 2.893v-1.5Zm-1.443-1.393c0-.753.63-1.393 1.444-1.393v-1.5c-1.61 0-2.944 1.28-2.944 2.893h1.5Zm1.444-1.393c.813 0 1.443.64 1.443 1.393h1.5c0-1.614-1.334-2.893-2.944-2.893v1.5Zm1.443 9.696c0 .753-.63 1.393-1.444 1.393v1.5c1.61 0 2.944-1.279 2.944-2.893h-1.5Zm-1.444 1.393c-.813 0-1.443-.64-1.443-1.393h-1.5c0 1.614 1.334 2.893 2.944 2.893v-1.5Zm-1.443-1.393c0-.753.63-1.393 1.444-1.393v-1.5c-1.61 0-2.944 1.279-2.944 2.893h1.5Zm1.444-1.393c.813 0 1.443.64 1.443 1.393h1.5c0-1.614-1.334-2.893-2.944-2.893v1.5Zm1.443 10.732c0 .753-.63 1.393-1.444 1.393v1.5c1.61 0 2.944-1.279 2.944-2.893h-1.5Zm-1.444 1.393c-.813 0-1.443-.64-1.443-1.393h-1.5c0 1.614 1.334 2.893 2.944 2.893v-1.5Zm-1.443-1.393c0-.753.63-1.393 1.444-1.393v-1.5c-1.61 0-2.944 1.28-2.944 2.893h1.5Zm1.444-1.393c.813 0 1.443.64 1.443 1.393h1.5c0-1.614-1.334-2.893-2.944-2.893v1.5Zm13.436-16.249c0 .753-.63 1.393-1.443 1.393v1.5c1.61 0 2.943-1.279 2.943-2.893h-1.5Zm-1.443 1.393c-.814 0-1.443-.64-1.443-1.393h-1.5c0 1.614 1.334 2.893 2.943 2.893v-1.5Zm-1.443-1.393c0-.753.63-1.393 1.443-1.393v-1.5c-1.609 0-2.943 1.28-2.943 2.893h1.5Zm1.443-1.393c.814 0 1.443.64 1.443 1.393h1.5c0-1.614-1.334-2.893-2.943-2.893v1.5ZM30.487 26.321v1.731h1.5v-1.73h-1.5Zm-3.253 1.731v-1.73h-1.5v1.73h1.5Zm1.627-3.302c.914 0 1.626.72 1.626 1.571h1.5c0-1.712-1.416-3.071-3.126-3.071v1.5Zm0-1.5c-1.71 0-3.127 1.359-3.127 3.071h1.5c0-.851.712-1.571 1.627-1.571v-1.5Zm11.863 3.071v1.731h1.5v-1.73h-1.5Zm-3.253 1.731v-1.73h-1.5v1.73h1.5Zm1.626-3.302c.915 0 1.627.72 1.627 1.571h1.5c0-1.712-1.417-3.071-3.127-3.071v1.5Zm0-1.5c-1.71 0-3.126 1.359-3.126 3.071h1.5c0-.851.712-1.571 1.626-1.571v-1.5Zm11.863 3.071v1.731h1.5v-1.73h-1.5Zm-3.252 1.731v-1.73h-1.5v1.73h1.5Zm1.626-3.302c.915 0 1.626.72 1.626 1.571h1.5c0-1.712-1.416-3.071-3.126-3.071v1.5Zm0-1.5c-1.71 0-3.126 1.359-3.126 3.071h1.5c0-.851.711-1.571 1.626-1.571v-1.5Zm11.86 3.071v1.731h1.5v-1.73h-1.5Zm-3.252 1.731v-1.73h-1.5v1.73h1.5Zm1.626-3.302c.915 0 1.627.72 1.627 1.571h1.5c0-1.712-1.417-3.071-3.127-3.071v1.5Zm0-1.5c-1.71 0-3.126 1.359-3.126 3.071h1.5c0-.851.711-1.571 1.626-1.571v-1.5Zm1.627 4.802c0 .899-.729 1.627-1.627 1.627v1.5c1.727 0 3.127-1.4 3.127-3.127h-1.5ZM39.096 29.68a1.626 1.626 0 0 1-1.626-1.627h-1.5c0 1.727 1.4 3.127 3.126 3.127v-1.5Zm-10.236 0a1.626 1.626 0 0 1-1.627-1.627h-1.5c0 1.727 1.4 3.127 3.127 3.127v-1.5Zm22.1-1.627c0 .899-.729 1.627-1.627 1.627v1.5c1.726 0 3.126-1.4 3.126-3.127h-1.5Zm8.607 1.627a1.626 1.626 0 0 1-1.626-1.627h-1.5c0 1.727 1.4 3.127 3.126 3.127v-1.5Zm-18.844-1.627c0 .899-.729 1.627-1.627 1.627v1.5c1.727 0 3.127-1.4 3.127-3.127h-1.5Zm8.61 1.627a1.626 1.626 0 0 1-1.626-1.627h-1.5c0 1.727 1.4 3.127 3.126 3.127v-1.5Zm-18.847-1.627c0 .899-.728 1.627-1.626 1.627v1.5c1.726 0 3.126-1.4 3.126-3.127h-1.5Z"/><path stroke="#fff" stroke-linecap="round" stroke-linejoin="round" stroke-width="1.5" d="M63.858 56.804v5.291l3.968 3.968m7.937-3.968a11.906 11.906 0 1 1-23.812 0 11.906 11.906 0 0 1 23.812 0Z"/><defs><linearGradient id="a" x1="102.574" x2="-17.223" y1="103.026" y2="1.359" gradientUnits="userSpaceOnUse"><stop offset=".102" stop-color="#333339"/><stop offset=".985" stop-color="#19181A"/></linearGradient></defs></svg>