<svg xmlns="http://www.w3.org/2000/svg" width="92" height="92" fill="none"><rect width="90" height="90" x="1" y="1" fill="url(#a)" stroke="#343434" stroke-width="2" rx="10"/><path stroke="#fff" stroke-linecap="round" stroke-width="1.5" d="M46.334 62.327h24.865a1 1 0 0 0 1-1V30.172a1 1 0 0 0-1-1H21.468a1 1 0 0 0-1 1v31.155a1 1 0 0 0 1 1h24.866Zm0 0v6.907m0 0c-1.606 0-2.908 1.29-2.908 2.883 0 1.592 1.302 2.883 2.907 2.883 1.606 0 2.908-1.29 2.908-2.883 0-1.592-1.302-2.883-2.907-2.883Zm19.929-23.605c0 6.037-4.936 10.932-11.025 10.932a11.038 11.038 0 0 1-7.814-3.22m18.839-7.712c0-6.037-4.936-10.931-11.025-10.931m11.025 10.931H55.238m0-10.931c-6.089 0-11.025 4.894-11.025 10.931a10.85 10.85 0 0 0 3.21 7.711m7.815-18.642v10.931m-7.814 7.711 7.814-7.71M26.404 34.937h12.6m-12.6 5.646h12.6m-12.6 5.766h12.6m-12.6 5.766h12.6m17.688-29.19-1.025-4.165a1 1 0 0 0-.97-.761H38.334a1 1 0 0 0-.971.761l-1.024 4.164m-16.235 6.247h52.459A1.93 1.93 0 0 0 74.5 27.25v-3.325a1 1 0 0 0-1-1H19.166a1 1 0 0 0-1 1v3.325a1.93 1.93 0 0 0 1.938 1.922Z"/><defs><linearGradient id="a" x1="102.574" x2="-17.223" y1="103.026" y2="1.359" gradientUnits="userSpaceOnUse"><stop offset=".102" stop-color="#26262B"/><stop offset=".985" stop-color="#1D1B1E"/></linearGradient></defs></svg>