<svg width="940" height="468" viewBox="0 0 940 468" fill="none" xmlns="http://www.w3.org/2000/svg">
<g filter="url(#filter0_d_192_7292)">
<g clip-path="url(#clip0_192_7292)">
<g filter="url(#filter1_d_192_7292)">
<rect y="-1" width="940" height="468" rx="20" fill="url(#paint0_linear_192_7292)"/>
<rect x="1" width="938" height="466" rx="19" stroke="#1E1E1E" stroke-width="2"/>
</g>
<rect x="1" y="1" width="938" height="466" rx="19" stroke="url(#paint1_radial_192_7292)" stroke-opacity="0.6" stroke-width="2"/>
<path d="M169.336 82.18C166.864 82.18 164.632 81.628 162.64 80.524C160.672 79.42 159.112 77.896 157.96 75.952C156.832 74.008 156.268 71.824 156.268 69.4C156.268 66.976 156.832 64.792 157.96 62.848C159.112 60.904 160.672 59.38 162.64 58.276C164.632 57.172 166.864 56.62 169.336 56.62C171.16 56.62 172.84 56.92 174.376 57.52C175.912 58.096 177.22 58.96 178.3 60.112L177.148 61.3C175.132 59.308 172.552 58.312 169.408 58.312C167.296 58.312 165.376 58.792 163.648 59.752C161.92 60.712 160.564 62.044 159.58 63.748C158.596 65.428 158.104 67.312 158.104 69.4C158.104 71.488 158.596 73.384 159.58 75.088C160.564 76.768 161.92 78.088 163.648 79.048C165.376 80.008 167.296 80.488 169.408 80.488C172.528 80.488 175.108 79.48 177.148 77.464L178.3 78.652C177.22 79.804 175.9 80.68 174.34 81.28C172.804 81.88 171.136 82.18 169.336 82.18ZM199.088 73.036H182.924C182.972 74.5 183.344 75.808 184.04 76.96C184.736 78.088 185.672 78.964 186.848 79.588C188.048 80.212 189.392 80.524 190.88 80.524C192.104 80.524 193.232 80.308 194.264 79.876C195.32 79.42 196.196 78.76 196.892 77.896L197.936 79.084C197.12 80.068 196.088 80.824 194.84 81.352C193.616 81.88 192.284 82.144 190.844 82.144C188.972 82.144 187.304 81.736 185.84 80.92C184.376 80.104 183.224 78.976 182.384 77.536C181.568 76.096 181.16 74.452 181.16 72.604C181.16 70.78 181.544 69.148 182.312 67.708C183.104 66.244 184.184 65.104 185.552 64.288C186.92 63.472 188.456 63.064 190.16 63.064C191.864 63.064 193.388 63.472 194.732 64.288C196.1 65.08 197.168 66.196 197.936 67.636C198.728 69.076 199.124 70.708 199.124 72.532L199.088 73.036ZM190.16 64.648C188.84 64.648 187.652 64.948 186.596 65.548C185.54 66.124 184.688 66.952 184.04 68.032C183.416 69.088 183.056 70.288 182.96 71.632H197.36C197.288 70.288 196.928 69.088 196.28 68.032C195.632 66.976 194.78 66.148 193.724 65.548C192.668 64.948 191.48 64.648 190.16 64.648ZM214.834 63.064C216.586 63.064 218.17 63.472 219.586 64.288C221.002 65.104 222.106 66.232 222.898 67.672C223.714 69.112 224.122 70.756 224.122 72.604C224.122 74.452 223.714 76.108 222.898 77.572C222.106 79.012 221.002 80.14 219.586 80.956C218.17 81.748 216.586 82.144 214.834 82.144C213.178 82.144 211.678 81.76 210.334 80.992C208.99 80.2 207.946 79.108 207.202 77.716V88.984H205.402V63.208H207.13V67.636C207.874 66.196 208.918 65.08 210.262 64.288C211.63 63.472 213.154 63.064 214.834 63.064ZM214.726 80.524C216.166 80.524 217.462 80.188 218.614 79.516C219.766 78.844 220.666 77.908 221.314 76.708C221.986 75.508 222.322 74.14 222.322 72.604C222.322 71.068 221.986 69.7 221.314 68.5C220.666 67.3 219.766 66.364 218.614 65.692C217.462 65.02 216.166 64.684 214.726 64.684C213.286 64.684 211.99 65.02 210.838 65.692C209.71 66.364 208.81 67.3 208.138 68.5C207.49 69.7 207.166 71.068 207.166 72.604C207.166 74.14 207.49 75.508 208.138 76.708C208.81 77.908 209.71 78.844 210.838 79.516C211.99 80.188 213.286 80.524 214.726 80.524ZM241.459 72.316C244.219 72.796 245.599 74.344 245.599 76.96C245.599 78.592 244.999 79.84 243.799 80.704C242.623 81.568 240.847 82 238.471 82H230.335V63.208H238.255C240.343 63.208 241.975 63.628 243.151 64.468C244.351 65.284 244.951 66.46 244.951 67.996C244.951 69.1 244.639 70.024 244.015 70.768C243.415 71.488 242.563 72.004 241.459 72.316ZM232.099 71.776H238.147C239.755 71.776 240.991 71.476 241.855 70.876C242.719 70.252 243.151 69.364 243.151 68.212C243.151 67.036 242.719 66.16 241.855 65.584C241.015 64.984 239.779 64.684 238.147 64.684H232.099V71.776ZM238.435 80.524C242.011 80.524 243.799 79.312 243.799 76.888C243.799 75.616 243.391 74.68 242.575 74.08C241.759 73.48 240.475 73.18 238.723 73.18H232.099V80.524H238.435ZM252.351 63.208H254.151V79.228L267.543 63.208H269.127V82H267.327V65.98L253.935 82H252.351V63.208ZM284.847 82.144C283.023 82.144 281.391 81.736 279.951 80.92C278.511 80.104 277.383 78.976 276.567 77.536C275.751 76.072 275.343 74.428 275.343 72.604C275.343 70.756 275.751 69.112 276.567 67.672C277.383 66.208 278.511 65.08 279.951 64.288C281.391 63.472 283.023 63.064 284.847 63.064C286.359 63.064 287.727 63.364 288.951 63.964C290.199 64.54 291.207 65.392 291.975 66.52L290.643 67.492C289.971 66.556 289.131 65.86 288.123 65.404C287.139 64.924 286.047 64.684 284.847 64.684C283.383 64.684 282.063 65.02 280.887 65.692C279.735 66.34 278.823 67.264 278.151 68.464C277.503 69.664 277.179 71.044 277.179 72.604C277.179 74.164 277.503 75.544 278.151 76.744C278.823 77.944 279.735 78.88 280.887 79.552C282.063 80.2 283.383 80.524 284.847 80.524C286.047 80.524 287.139 80.296 288.123 79.84C289.131 79.36 289.971 78.652 290.643 77.716L291.975 78.688C291.207 79.816 290.199 80.68 288.951 81.28C287.727 81.856 286.359 82.144 284.847 82.144ZM297.65 63.208H299.45V71.776H312.194V63.208H313.994V82H312.194V73.36H299.45V82H297.65V63.208ZM329.615 82.144C327.839 82.144 326.231 81.736 324.791 80.92C323.375 80.104 322.259 78.976 321.443 77.536C320.627 76.072 320.219 74.428 320.219 72.604C320.219 70.78 320.627 69.148 321.443 67.708C322.259 66.244 323.375 65.104 324.791 64.288C326.231 63.472 327.839 63.064 329.615 63.064C331.391 63.064 332.987 63.472 334.403 64.288C335.843 65.104 336.971 66.244 337.787 67.708C338.603 69.148 339.011 70.78 339.011 72.604C339.011 74.428 338.603 76.072 337.787 77.536C336.971 78.976 335.843 80.104 334.403 80.92C332.987 81.736 331.391 82.144 329.615 82.144ZM329.615 80.524C331.055 80.524 332.339 80.188 333.467 79.516C334.619 78.844 335.519 77.908 336.167 76.708C336.839 75.508 337.175 74.14 337.175 72.604C337.175 71.068 336.839 69.7 336.167 68.5C335.519 67.3 334.619 66.364 333.467 65.692C332.339 65.02 331.055 64.684 329.615 64.684C328.175 64.684 326.879 65.02 325.727 65.692C324.599 66.364 323.699 67.3 323.027 68.5C322.379 69.7 322.055 71.068 322.055 72.604C322.055 74.14 322.379 75.508 323.027 76.708C323.699 77.908 324.599 78.844 325.727 79.516C326.879 80.188 328.175 80.524 329.615 80.524ZM361.253 73.036H345.089C345.137 74.5 345.509 75.808 346.205 76.96C346.901 78.088 347.837 78.964 349.013 79.588C350.213 80.212 351.557 80.524 353.045 80.524C354.269 80.524 355.397 80.308 356.429 79.876C357.485 79.42 358.361 78.76 359.057 77.896L360.101 79.084C359.285 80.068 358.253 80.824 357.005 81.352C355.781 81.88 354.449 82.144 353.009 82.144C351.137 82.144 349.469 81.736 348.005 80.92C346.541 80.104 345.389 78.976 344.549 77.536C343.733 76.096 343.325 74.452 343.325 72.604C343.325 70.78 343.709 69.148 344.477 67.708C345.269 66.244 346.349 65.104 347.717 64.288C349.085 63.472 350.621 63.064 352.325 63.064C354.029 63.064 355.553 63.472 356.897 64.288C358.265 65.08 359.333 66.196 360.101 67.636C360.893 69.076 361.289 70.708 361.289 72.532L361.253 73.036ZM352.325 64.648C351.005 64.648 349.817 64.948 348.761 65.548C347.705 66.124 346.853 66.952 346.205 68.032C345.581 69.088 345.221 70.288 345.125 71.632H359.525C359.453 70.288 359.093 69.088 358.445 68.032C357.797 66.976 356.945 66.148 355.889 65.548C354.833 64.948 353.645 64.648 352.325 64.648ZM165.484 122.144C163.66 122.144 162.028 121.736 160.588 120.92C159.148 120.104 158.02 118.976 157.204 117.536C156.388 116.072 155.98 114.428 155.98 112.604C155.98 110.756 156.388 109.112 157.204 107.672C158.02 106.208 159.148 105.08 160.588 104.288C162.028 103.472 163.66 103.064 165.484 103.064C166.996 103.064 168.364 103.364 169.588 103.964C170.836 104.54 171.844 105.392 172.612 106.52L171.28 107.492C170.608 106.556 169.768 105.86 168.76 105.404C167.776 104.924 166.684 104.684 165.484 104.684C164.02 104.684 162.7 105.02 161.524 105.692C160.372 106.34 159.46 107.264 158.788 108.464C158.14 109.664 157.816 111.044 157.816 112.604C157.816 114.164 158.14 115.544 158.788 116.744C159.46 117.944 160.372 118.88 161.524 119.552C162.7 120.2 164.02 120.524 165.484 120.524C166.684 120.524 167.776 120.296 168.76 119.84C169.768 119.36 170.608 118.652 171.28 117.716L172.612 118.688C171.844 119.816 170.836 120.68 169.588 121.28C168.364 121.856 166.996 122.144 165.484 122.144ZM185.459 122.144C183.683 122.144 182.075 121.736 180.635 120.92C179.219 120.104 178.103 118.976 177.287 117.536C176.471 116.072 176.063 114.428 176.063 112.604C176.063 110.78 176.471 109.148 177.287 107.708C178.103 106.244 179.219 105.104 180.635 104.288C182.075 103.472 183.683 103.064 185.459 103.064C187.235 103.064 188.831 103.472 190.247 104.288C191.687 105.104 192.815 106.244 193.631 107.708C194.447 109.148 194.855 110.78 194.855 112.604C194.855 114.428 194.447 116.072 193.631 117.536C192.815 118.976 191.687 120.104 190.247 120.92C188.831 121.736 187.235 122.144 185.459 122.144ZM185.459 120.524C186.899 120.524 188.183 120.188 189.311 119.516C190.463 118.844 191.363 117.908 192.011 116.708C192.683 115.508 193.019 114.14 193.019 112.604C193.019 111.068 192.683 109.7 192.011 108.5C191.363 107.3 190.463 106.364 189.311 105.692C188.183 105.02 186.899 104.684 185.459 104.684C184.019 104.684 182.723 105.02 181.571 105.692C180.443 106.364 179.543 107.3 178.871 108.5C178.223 109.7 177.899 111.068 177.899 112.604C177.899 114.14 178.223 115.508 178.871 116.708C179.543 117.908 180.443 118.844 181.571 119.516C182.723 120.188 184.019 120.524 185.459 120.524ZM217.493 103.208V122H215.693V104.828H202.877V122H201.077V103.208H217.493ZM235.092 103.064C236.844 103.064 238.428 103.472 239.844 104.288C241.26 105.104 242.364 106.232 243.156 107.672C243.972 109.112 244.38 110.756 244.38 112.604C244.38 114.452 243.972 116.108 243.156 117.572C242.364 119.012 241.26 120.14 239.844 120.956C238.428 121.748 236.844 122.144 235.092 122.144C233.436 122.144 231.936 121.76 230.592 120.992C229.248 120.2 228.204 119.108 227.46 117.716V128.984H225.66V103.208H227.388V107.636C228.132 106.196 229.176 105.08 230.52 104.288C231.888 103.472 233.412 103.064 235.092 103.064ZM234.984 120.524C236.424 120.524 237.72 120.188 238.872 119.516C240.024 118.844 240.924 117.908 241.572 116.708C242.244 115.508 242.58 114.14 242.58 112.604C242.58 111.068 242.244 109.7 241.572 108.5C240.924 107.3 240.024 106.364 238.872 105.692C237.72 105.02 236.424 104.684 234.984 104.684C233.544 104.684 232.248 105.02 231.096 105.692C229.968 106.364 229.068 107.3 228.396 108.5C227.748 109.7 227.424 111.068 227.424 112.604C227.424 114.14 227.748 115.508 228.396 116.708C229.068 117.908 229.968 118.844 231.096 119.516C232.248 120.188 233.544 120.524 234.984 120.524ZM258.082 122.144C256.306 122.144 254.698 121.736 253.258 120.92C251.842 120.104 250.726 118.976 249.91 117.536C249.094 116.072 248.686 114.428 248.686 112.604C248.686 110.78 249.094 109.148 249.91 107.708C250.726 106.244 251.842 105.104 253.258 104.288C254.698 103.472 256.306 103.064 258.082 103.064C259.858 103.064 261.454 103.472 262.87 104.288C264.31 105.104 265.438 106.244 266.254 107.708C267.07 109.148 267.478 110.78 267.478 112.604C267.478 114.428 267.07 116.072 266.254 117.536C265.438 118.976 264.31 120.104 262.87 120.92C261.454 121.736 259.858 122.144 258.082 122.144ZM258.082 120.524C259.522 120.524 260.806 120.188 261.934 119.516C263.086 118.844 263.986 117.908 264.634 116.708C265.306 115.508 265.642 114.14 265.642 112.604C265.642 111.068 265.306 109.7 264.634 108.5C263.986 107.3 263.086 106.364 261.934 105.692C260.806 105.02 259.522 104.684 258.082 104.684C256.642 104.684 255.346 105.02 254.194 105.692C253.066 106.364 252.166 107.3 251.494 108.5C250.846 109.7 250.522 111.068 250.522 112.604C250.522 114.14 250.846 115.508 251.494 116.708C252.166 117.908 253.066 118.844 254.194 119.516C255.346 120.188 256.642 120.524 258.082 120.524ZM284.824 112.316C287.584 112.796 288.964 114.344 288.964 116.96C288.964 118.592 288.364 119.84 287.164 120.704C285.988 121.568 284.212 122 281.836 122H273.7V103.208H281.62C283.708 103.208 285.34 103.628 286.516 104.468C287.716 105.284 288.316 106.46 288.316 107.996C288.316 109.1 288.004 110.024 287.38 110.768C286.78 111.488 285.928 112.004 284.824 112.316ZM275.464 111.776H281.512C283.12 111.776 284.356 111.476 285.22 110.876C286.084 110.252 286.516 109.364 286.516 108.212C286.516 107.036 286.084 106.16 285.22 105.584C284.38 104.984 283.144 104.684 281.512 104.684H275.464V111.776ZM281.8 120.524C285.376 120.524 287.164 119.312 287.164 116.888C287.164 115.616 286.756 114.68 285.94 114.08C285.124 113.48 283.84 113.18 282.088 113.18H275.464V120.524H281.8ZM303.204 122.144C301.428 122.144 299.82 121.736 298.38 120.92C296.964 120.104 295.848 118.976 295.032 117.536C294.216 116.072 293.808 114.428 293.808 112.604C293.808 110.78 294.216 109.148 295.032 107.708C295.848 106.244 296.964 105.104 298.38 104.288C299.82 103.472 301.428 103.064 303.204 103.064C304.98 103.064 306.576 103.472 307.992 104.288C309.432 105.104 310.56 106.244 311.376 107.708C312.192 109.148 312.6 110.78 312.6 112.604C312.6 114.428 312.192 116.072 311.376 117.536C310.56 118.976 309.432 120.104 307.992 120.92C306.576 121.736 304.98 122.144 303.204 122.144ZM303.204 120.524C304.644 120.524 305.928 120.188 307.056 119.516C308.208 118.844 309.108 117.908 309.756 116.708C310.428 115.508 310.764 114.14 310.764 112.604C310.764 111.068 310.428 109.7 309.756 108.5C309.108 107.3 308.208 106.364 307.056 105.692C305.928 105.02 304.644 104.684 303.204 104.684C301.764 104.684 300.468 105.02 299.316 105.692C298.188 106.364 297.288 107.3 296.616 108.5C295.968 109.7 295.644 111.068 295.644 112.604C295.644 114.14 295.968 115.508 296.616 116.708C297.288 117.908 298.188 118.844 299.316 119.516C300.468 120.188 301.764 120.524 303.204 120.524ZM334.102 113.288H329.674V122H327.874V113.288H323.482L317.218 122H315.022L322.042 112.352L315.598 103.208H317.578L323.482 111.74H327.874V103.208H329.674V111.74H334.102L340.006 103.208H341.986L335.542 112.352L342.526 122H340.366L334.102 113.288ZM365.229 120.416V126.68H363.537V122H345.753V126.68H344.025V120.416H345.141C346.413 120.344 347.277 119.36 347.733 117.464C348.213 115.544 348.549 112.856 348.741 109.4L348.993 103.208H362.205V120.416H365.229ZM350.397 109.508C350.277 112.364 350.037 114.74 349.677 116.636C349.317 118.532 348.669 119.792 347.733 120.416H360.405V104.828H350.613L350.397 109.508ZM386.925 113.036H370.761C370.809 114.5 371.181 115.808 371.877 116.96C372.573 118.088 373.509 118.964 374.685 119.588C375.885 120.212 377.229 120.524 378.717 120.524C379.941 120.524 381.069 120.308 382.101 119.876C383.157 119.42 384.033 118.76 384.729 117.896L385.773 119.084C384.957 120.068 383.925 120.824 382.677 121.352C381.453 121.88 380.121 122.144 378.681 122.144C376.809 122.144 375.141 121.736 373.677 120.92C372.213 120.104 371.061 118.976 370.221 117.536C369.405 116.096 368.997 114.452 368.997 112.604C368.997 110.78 369.381 109.148 370.149 107.708C370.941 106.244 372.021 105.104 373.389 104.288C374.757 103.472 376.293 103.064 377.997 103.064C379.701 103.064 381.225 103.472 382.569 104.288C383.937 105.08 385.005 106.196 385.773 107.636C386.565 109.076 386.961 110.708 386.961 112.532L386.925 113.036ZM377.997 104.648C376.677 104.648 375.489 104.948 374.433 105.548C373.377 106.124 372.525 106.952 371.877 108.032C371.253 109.088 370.893 110.288 370.797 111.632H385.197C385.125 110.288 384.765 109.088 384.117 108.032C383.469 106.976 382.617 106.148 381.561 105.548C380.505 104.948 379.317 104.648 377.997 104.648ZM393.203 103.208H395.003V111.776H407.747V103.208H409.547V122H407.747V113.36H395.003V122H393.203V103.208ZM417.68 103.208H419.48V119.228L432.872 103.208H434.456V122H432.656V105.98L419.264 122H417.68V103.208ZM458.599 113.036H442.435C442.483 114.5 442.855 115.808 443.551 116.96C444.247 118.088 445.183 118.964 446.359 119.588C447.559 120.212 448.903 120.524 450.391 120.524C451.615 120.524 452.743 120.308 453.775 119.876C454.831 119.42 455.707 118.76 456.403 117.896L457.447 119.084C456.631 120.068 455.599 120.824 454.351 121.352C453.127 121.88 451.795 122.144 450.355 122.144C448.483 122.144 446.815 121.736 445.351 120.92C443.887 120.104 442.735 118.976 441.895 117.536C441.079 116.096 440.671 114.452 440.671 112.604C440.671 110.78 441.055 109.148 441.823 107.708C442.615 106.244 443.695 105.104 445.063 104.288C446.431 103.472 447.967 103.064 449.671 103.064C451.375 103.064 452.899 103.472 454.243 104.288C455.611 105.08 456.679 106.196 457.447 107.636C458.239 109.076 458.635 110.708 458.635 112.532L458.599 113.036ZM449.671 104.648C448.351 104.648 447.163 104.948 446.107 105.548C445.051 106.124 444.199 106.952 443.551 108.032C442.927 109.088 442.567 110.288 442.471 111.632H456.871C456.799 110.288 456.439 109.088 455.791 108.032C455.143 106.976 454.291 106.148 453.235 105.548C452.179 104.948 450.991 104.648 449.671 104.648Z" fill="white"/>
<g filter="url(#filter2_d_192_7292)">
<circle cx="85" cy="95" r="44.25" fill="#FA6334" stroke="#FB906F" stroke-width="1.5"/>
<path d="M95.6077 111.171L102.07 117.596L103.179 118.699V111.171H106.964C107.968 111.171 108.931 110.775 109.641 110.069C110.351 109.363 110.75 108.406 110.75 107.407V96.1155C110.75 95.1172 110.351 94.1599 109.641 93.454C108.931 92.7481 107.968 92.3516 106.964 92.3516H88.0365C87.0325 92.3516 86.0697 92.7481 85.3597 93.454C84.6498 94.1599 84.251 95.1172 84.251 96.1155V107.407C84.251 108.406 84.6498 109.363 85.3597 110.069C86.0697 110.775 87.0325 111.171 88.0365 111.171H95.6077Z" stroke="white" stroke-width="2.25" stroke-linecap="round" stroke-linejoin="round"/>
<ellipse cx="91.6491" cy="103.262" rx="1.20378" ry="1.274" fill="white"/>
<ellipse cx="97.0631" cy="103.262" rx="1.20378" ry="1.274" fill="white"/>
<ellipse cx="102.485" cy="103.262" rx="1.20378" ry="1.274" fill="white"/>
<path d="M82.5914 99.9486H80.9215L72.2249 108.595L70.7322 110.08V99.9486H65.6376C64.2864 99.9486 62.9906 99.4149 62.0352 98.465C61.0797 97.515 60.543 96.2266 60.543 94.8831V79.6866C60.543 78.3431 61.0797 77.0547 62.0352 76.1047C62.9906 75.1548 64.2864 74.6211 65.6376 74.6211H91.1107C92.4619 74.6211 93.7577 75.1548 94.7132 76.1047C95.6686 77.0547 96.2054 78.3431 96.2054 79.6866V91.8812" stroke="white" stroke-width="2.25" stroke-linecap="round" stroke-linejoin="round"/>
<path d="M73.625 84.8049C74.2958 83.4418 76.1052 82.4648 78.2336 82.4648C80.9337 82.4648 83.1207 84.0362 83.1207 85.9749C83.1207 87.6129 81.5593 88.9876 79.448 89.3761C78.7858 89.4978 78.2336 90.0079 78.2336 90.6549M78.2336 94.1649H78.2458" stroke="white" stroke-width="2.25" stroke-linecap="round" stroke-linejoin="round"/>
</g>
<g filter="url(#filter3_d_192_7292)">
<path d="M500.477 208.197C500.477 201.459 494.618 196 487.39 196H201.083C193.855 196 187.999 201.459 187.999 208.197V244.117C187.999 250.855 193.855 256.318 201.083 256.318H500.477V208.197Z" fill="url(#paint2_linear_192_7292)" fill-opacity="0.45"/>
<path d="M499.719 208.197C499.719 201.88 494.21 196.76 487.415 196.76H200.305C193.51 196.76 188.002 201.88 188.002 208.197V244.117C188.002 250.433 193.51 255.554 200.305 255.554H499.719V208.197Z" stroke="white" stroke-opacity="0.08" stroke-width="1.52478"/>
<path d="M499.719 208.197C499.719 201.88 494.21 196.76 487.415 196.76H200.305C193.51 196.76 188.002 201.88 188.002 208.197V244.117C188.002 250.433 193.51 255.554 200.305 255.554H499.719V208.197Z" stroke="#FA6334" stroke-width="1.52478"/>
<path d="M499.719 208.197C499.719 201.88 494.21 196.76 487.415 196.76H200.305C193.51 196.76 188.002 201.88 188.002 208.197V244.117C188.002 250.433 193.51 255.554 200.305 255.554H499.719V208.197Z" stroke="url(#paint3_radial_192_7292)" stroke-opacity="0.6" stroke-width="2.11286"/>
<g filter="url(#filter4_d_192_7292)">
<path d="M204.074 233.656V218.256H205.878L212.786 229.894H211.818L218.638 218.256H220.442L220.464 233.656H218.352L218.33 221.578H218.836L212.764 231.786H211.752L205.636 221.578H206.186V233.656H204.074ZM229.899 233.788C228.726 233.788 227.685 233.532 226.775 233.018C225.866 232.505 225.147 231.801 224.619 230.906C224.091 229.997 223.827 228.97 223.827 227.826C223.827 226.668 224.091 225.641 224.619 224.746C225.147 223.852 225.866 223.155 226.775 222.656C227.685 222.143 228.726 221.886 229.899 221.886C231.058 221.886 232.092 222.143 233.001 222.656C233.925 223.155 234.644 223.852 235.157 224.746C235.685 225.626 235.949 226.653 235.949 227.826C235.949 228.985 235.685 230.012 235.157 230.906C234.644 231.801 233.925 232.505 233.001 233.018C232.092 233.532 231.058 233.788 229.899 233.788ZM229.899 231.94C230.647 231.94 231.315 231.772 231.901 231.434C232.503 231.097 232.972 230.62 233.309 230.004C233.647 229.374 233.815 228.648 233.815 227.826C233.815 226.99 233.647 226.272 233.309 225.67C232.972 225.054 232.503 224.578 231.901 224.24C231.315 223.903 230.647 223.734 229.899 223.734C229.151 223.734 228.484 223.903 227.897 224.24C227.311 224.578 226.841 225.054 226.489 225.67C226.137 226.272 225.961 226.99 225.961 227.826C225.961 228.648 226.137 229.374 226.489 230.004C226.841 230.62 227.311 231.097 227.897 231.434C228.484 231.772 229.151 231.94 229.899 231.94ZM238.999 233.656V221.996H247.579V223.844H240.605L241.111 223.36V233.656H238.999ZM247.053 233.634L247.185 231.852C247.288 231.867 247.383 231.882 247.471 231.896C247.559 231.911 247.64 231.918 247.713 231.918C248.183 231.918 248.549 231.757 248.813 231.434C249.092 231.112 249.297 230.686 249.429 230.158C249.561 229.616 249.657 229.007 249.715 228.332C249.774 227.658 249.818 226.983 249.847 226.308L250.045 221.996H258.999V233.656H256.887V223.228L257.393 223.844H251.409L251.893 223.206L251.739 226.44C251.695 227.467 251.615 228.428 251.497 229.322C251.38 230.217 251.197 231.002 250.947 231.676C250.713 232.351 250.383 232.879 249.957 233.26C249.547 233.642 249.011 233.832 248.351 233.832C248.161 233.832 247.955 233.81 247.735 233.766C247.53 233.737 247.303 233.693 247.053 233.634ZM263.083 233.656V221.996H265.195V230.488L272.345 221.996H274.259V233.656H272.147V225.164L265.019 233.656H263.083ZM289.657 233.832C288.689 233.832 287.831 233.678 287.083 233.37C286.349 233.062 285.719 232.608 285.191 232.006C284.663 231.39 284.259 230.62 283.981 229.696C283.717 228.758 283.585 227.658 283.585 226.396C283.585 225.399 283.673 224.504 283.849 223.712C284.025 222.92 284.274 222.216 284.597 221.6C284.934 220.984 285.345 220.449 285.829 219.994C286.327 219.54 286.885 219.166 287.501 218.872C288.131 218.564 288.821 218.33 289.569 218.168L294.893 216.98L295.201 218.938L290.295 219.994C290.001 220.053 289.649 220.141 289.239 220.258C288.828 220.376 288.41 220.559 287.985 220.808C287.559 221.043 287.163 221.373 286.797 221.798C286.43 222.224 286.137 222.781 285.917 223.47C285.697 224.145 285.587 224.981 285.587 225.978C285.587 226.257 285.594 226.47 285.609 226.616C285.623 226.763 285.638 226.91 285.653 227.056C285.682 227.203 285.704 227.423 285.719 227.716L284.839 226.814C285.073 226.008 285.447 225.304 285.961 224.702C286.474 224.101 287.09 223.639 287.809 223.316C288.542 222.979 289.341 222.81 290.207 222.81C291.292 222.81 292.253 223.045 293.089 223.514C293.939 223.984 294.607 224.629 295.091 225.45C295.575 226.272 295.817 227.21 295.817 228.266C295.817 229.337 295.56 230.298 295.047 231.148C294.548 231.984 293.837 232.644 292.913 233.128C291.989 233.598 290.903 233.832 289.657 233.832ZM289.855 232.072C290.603 232.072 291.263 231.911 291.835 231.588C292.407 231.251 292.854 230.804 293.177 230.246C293.499 229.674 293.661 229.036 293.661 228.332C293.661 227.628 293.499 227.005 293.177 226.462C292.854 225.92 292.407 225.494 291.835 225.186C291.263 224.864 290.588 224.702 289.811 224.702C289.077 224.702 288.417 224.856 287.831 225.164C287.244 225.458 286.789 225.876 286.467 226.418C286.144 226.946 285.983 227.562 285.983 228.266C285.983 228.97 286.144 229.616 286.467 230.202C286.804 230.774 287.259 231.229 287.831 231.566C288.417 231.904 289.092 232.072 289.855 232.072ZM310.361 233.656V221.996H312.473V233.656H310.361ZM304.091 225.956C305.572 225.971 306.694 226.308 307.457 226.968C308.234 227.628 308.623 228.56 308.623 229.762C308.623 231.024 308.198 231.999 307.347 232.688C306.511 233.363 305.308 233.693 303.739 233.678L298.833 233.656V221.996H300.945V225.934L304.091 225.956ZM303.585 232.072C304.524 232.087 305.242 231.896 305.741 231.5C306.24 231.104 306.489 230.518 306.489 229.74C306.489 228.978 306.24 228.42 305.741 228.068C305.257 227.716 304.538 227.533 303.585 227.518L300.945 227.474V232.05L303.585 232.072ZM322.487 233.656V221.996H324.665L329.681 230.62H328.801L333.949 221.996H335.929V233.656H334.015V224.372L334.367 224.57L329.659 232.336H328.735L324.005 224.416L324.423 224.328V233.656H322.487ZM340.04 233.656V221.996H342.152V226.946H348.796V221.996H350.908V233.656H348.796V228.772H342.152V233.656H340.04ZM360.207 233.788C358.96 233.788 357.86 233.532 356.907 233.018C355.968 232.505 355.235 231.801 354.707 230.906C354.193 230.012 353.937 228.985 353.937 227.826C353.937 226.668 354.186 225.641 354.685 224.746C355.198 223.852 355.895 223.155 356.775 222.656C357.669 222.143 358.674 221.886 359.789 221.886C360.918 221.886 361.915 222.136 362.781 222.634C363.646 223.133 364.321 223.837 364.805 224.746C365.303 225.641 365.553 226.69 365.553 227.892C365.553 227.98 365.545 228.083 365.531 228.2C365.531 228.318 365.523 228.428 365.509 228.53H355.587V227.012H364.409L363.551 227.54C363.565 226.792 363.411 226.125 363.089 225.538C362.766 224.952 362.319 224.497 361.747 224.174C361.189 223.837 360.537 223.668 359.789 223.668C359.055 223.668 358.403 223.837 357.831 224.174C357.259 224.497 356.811 224.959 356.489 225.56C356.166 226.147 356.005 226.822 356.005 227.584V227.936C356.005 228.714 356.181 229.41 356.533 230.026C356.899 230.628 357.405 231.097 358.051 231.434C358.696 231.772 359.437 231.94 360.273 231.94C360.962 231.94 361.585 231.823 362.143 231.588C362.715 231.354 363.213 231.002 363.639 230.532L364.805 231.896C364.277 232.512 363.617 232.982 362.825 233.304C362.047 233.627 361.175 233.788 360.207 233.788ZM374.737 233.656V221.996H385.539V233.656H383.427V223.316L383.933 223.844H376.343L376.849 223.316V233.656H374.737ZM394.62 233.788C393.447 233.788 392.405 233.532 391.496 233.018C390.587 232.505 389.868 231.801 389.34 230.906C388.812 229.997 388.548 228.97 388.548 227.826C388.548 226.668 388.812 225.641 389.34 224.746C389.868 223.852 390.587 223.155 391.496 222.656C392.405 222.143 393.447 221.886 394.62 221.886C395.779 221.886 396.813 222.143 397.722 222.656C398.646 223.155 399.365 223.852 399.878 224.746C400.406 225.626 400.67 226.653 400.67 227.826C400.67 228.985 400.406 230.012 399.878 230.906C399.365 231.801 398.646 232.505 397.722 233.018C396.813 233.532 395.779 233.788 394.62 233.788ZM394.62 231.94C395.368 231.94 396.035 231.772 396.622 231.434C397.223 231.097 397.693 230.62 398.03 230.004C398.367 229.374 398.536 228.648 398.536 227.826C398.536 226.99 398.367 226.272 398.03 225.67C397.693 225.054 397.223 224.578 396.622 224.24C396.035 223.903 395.368 223.734 394.62 223.734C393.872 223.734 393.205 223.903 392.618 224.24C392.031 224.578 391.562 225.054 391.21 225.67C390.858 226.272 390.682 226.99 390.682 227.826C390.682 228.648 390.858 229.374 391.21 230.004C391.562 230.62 392.031 231.097 392.618 231.434C393.205 231.772 393.872 231.94 394.62 231.94ZM403.72 233.656V221.996H405.898L410.914 230.62H410.034L415.182 221.996H417.162V233.656H415.248V224.372L415.6 224.57L410.892 232.336H409.968L405.238 224.416L405.656 224.328V233.656H403.72ZM426.267 233.788C425.093 233.788 424.052 233.532 423.143 233.018C422.233 232.505 421.515 231.801 420.987 230.906C420.459 229.997 420.195 228.97 420.195 227.826C420.195 226.668 420.459 225.641 420.987 224.746C421.515 223.852 422.233 223.155 423.143 222.656C424.052 222.143 425.093 221.886 426.267 221.886C427.425 221.886 428.459 222.143 429.369 222.656C430.293 223.155 431.011 223.852 431.525 224.746C432.053 225.626 432.317 226.653 432.317 227.826C432.317 228.985 432.053 230.012 431.525 230.906C431.011 231.801 430.293 232.505 429.369 233.018C428.459 233.532 427.425 233.788 426.267 233.788ZM426.267 231.94C427.015 231.94 427.682 231.772 428.269 231.434C428.87 231.097 429.339 230.62 429.677 230.004C430.014 229.374 430.183 228.648 430.183 227.826C430.183 226.99 430.014 226.272 429.677 225.67C429.339 225.054 428.87 224.578 428.269 224.24C427.682 223.903 427.015 223.734 426.267 223.734C425.519 223.734 424.851 223.903 424.265 224.24C423.678 224.578 423.209 225.054 422.857 225.67C422.505 226.272 422.329 226.99 422.329 227.826C422.329 228.648 422.505 229.374 422.857 230.004C423.209 230.62 423.678 231.097 424.265 231.434C424.851 231.772 425.519 231.94 426.267 231.94ZM442.714 228.882C442.098 229.176 441.46 229.41 440.8 229.586C440.155 229.748 439.488 229.828 438.798 229.828C437.39 229.828 436.276 229.498 435.454 228.838C434.648 228.178 434.244 227.159 434.244 225.78V221.996H436.356V225.648C436.356 226.484 436.613 227.1 437.126 227.496C437.654 227.892 438.358 228.09 439.238 228.09C439.796 228.09 440.368 228.017 440.954 227.87C441.556 227.724 442.142 227.518 442.714 227.254V228.882ZM442.56 233.656V221.996H444.672V233.656H442.56ZM454.163 225.956C455.644 225.971 456.773 226.308 457.551 226.968C458.328 227.628 458.717 228.56 458.717 229.762C458.717 231.024 458.291 231.999 457.441 232.688C456.59 233.363 455.387 233.693 453.833 233.678L448.773 233.656V221.996H450.885V225.934L454.163 225.956ZM453.657 232.072C454.61 232.087 455.329 231.896 455.813 231.5C456.311 231.104 456.561 230.518 456.561 229.74C456.561 228.978 456.319 228.42 455.835 228.068C455.351 227.716 454.625 227.533 453.657 227.518L450.885 227.474V232.05L453.657 232.072ZM463.452 228.794C463.452 228.222 463.547 227.724 463.738 227.298C463.928 226.873 464.163 226.492 464.442 226.154C464.735 225.817 465.05 225.509 465.388 225.23C465.725 224.937 466.04 224.651 466.334 224.372C466.627 224.079 466.862 223.771 467.038 223.448C467.228 223.126 467.324 222.752 467.324 222.326C467.324 221.622 467.045 221.05 466.488 220.61C465.93 220.17 465.16 219.95 464.178 219.95C463.298 219.95 462.535 220.097 461.89 220.39C461.244 220.684 460.694 221.116 460.24 221.688L458.634 220.544C459.25 219.767 460.034 219.166 460.988 218.74C461.941 218.3 463.056 218.08 464.332 218.08C465.388 218.08 466.304 218.242 467.082 218.564C467.859 218.872 468.46 219.32 468.886 219.906C469.326 220.478 469.546 221.175 469.546 221.996C469.546 222.612 469.45 223.14 469.26 223.58C469.069 224.02 468.827 224.409 468.534 224.746C468.24 225.084 467.925 225.399 467.588 225.692C467.265 225.986 466.957 226.279 466.664 226.572C466.37 226.866 466.128 227.188 465.938 227.54C465.747 227.892 465.652 228.31 465.652 228.794H463.452ZM464.574 233.788C464.163 233.788 463.818 233.649 463.54 233.37C463.276 233.092 463.144 232.762 463.144 232.38C463.144 231.97 463.276 231.632 463.54 231.368C463.818 231.104 464.163 230.972 464.574 230.972C464.984 230.972 465.322 231.104 465.586 231.368C465.85 231.632 465.982 231.97 465.982 232.38C465.982 232.762 465.85 233.092 465.586 233.37C465.322 233.649 464.984 233.788 464.574 233.788Z" fill="#FA6334"/>
</g>
<path d="M499.823 283C499.823 293.213 491.472 301.5 481.162 301.5C470.851 301.5 462.5 293.213 462.5 283C462.5 272.787 470.851 264.5 481.162 264.5C491.472 264.5 499.823 272.787 499.823 283Z" fill="#2C2C33" stroke="#D5B563"/>
<path d="M489.872 292.347V290.197C489.872 289.057 489.427 287.964 488.636 287.158C487.845 286.351 486.772 285.898 485.654 285.898H477.218C476.099 285.898 475.026 286.351 474.235 287.158C473.444 287.964 473 289.057 473 290.197V292.347" stroke="#D5B563" stroke-linecap="round" stroke-linejoin="round"/>
<path d="M481.437 281.598C483.766 281.598 485.655 279.673 485.655 277.299C485.655 274.925 483.766 273 481.437 273C479.107 273 477.219 274.925 477.219 277.299C477.219 279.673 479.107 281.598 481.437 281.598Z" stroke="#D5B563" stroke-linecap="round" stroke-linejoin="round"/>
</g>
<path d="M410.272 282.46H408.712V286H407.176V277.6H408.712V281.116H410.32L412.732 277.6H414.388L411.52 281.668L414.496 286H412.732L410.272 282.46ZM421.359 279.592V286H419.859V280.864H417.459L417.399 282.136C417.359 282.984 417.279 283.696 417.159 284.272C417.047 284.84 416.851 285.292 416.571 285.628C416.299 285.956 415.923 286.12 415.443 286.12C415.219 286.12 414.943 286.076 414.615 285.988L414.687 284.728C414.799 284.752 414.895 284.764 414.975 284.764C415.279 284.764 415.507 284.644 415.659 284.404C415.811 284.156 415.907 283.864 415.947 283.528C415.995 283.184 416.035 282.696 416.067 282.064L416.175 279.592H421.359ZM423.379 279.592H424.879V283.816L428.419 279.592H429.787V286H428.287V281.776L424.759 286H423.379V279.592ZM437.805 282.832C437.805 282.936 437.797 283.084 437.781 283.276H432.753C432.841 283.748 433.069 284.124 433.437 284.404C433.813 284.676 434.277 284.812 434.829 284.812C435.533 284.812 436.113 284.58 436.569 284.116L437.373 285.04C437.085 285.384 436.721 285.644 436.281 285.82C435.841 285.996 435.345 286.084 434.793 286.084C434.089 286.084 433.469 285.944 432.933 285.664C432.397 285.384 431.981 284.996 431.685 284.5C431.397 283.996 431.253 283.428 431.253 282.796C431.253 282.172 431.393 281.612 431.673 281.116C431.961 280.612 432.357 280.22 432.861 279.94C433.365 279.66 433.933 279.52 434.565 279.52C435.189 279.52 435.745 279.66 436.233 279.94C436.729 280.212 437.113 280.6 437.385 281.104C437.665 281.6 437.805 282.176 437.805 282.832ZM434.565 280.72C434.085 280.72 433.677 280.864 433.341 281.152C433.013 281.432 432.813 281.808 432.741 282.28H436.377C436.313 281.816 436.117 281.44 435.789 281.152C435.461 280.864 435.053 280.72 434.565 280.72ZM439.446 279.592H440.946V282.196H444.174V279.592H445.674V286H444.174V283.468H440.946V286H439.446V279.592ZM452.76 280.864H450.516V286H449.016V280.864H446.76V279.592H452.76V280.864Z" fill="white"/>
<g filter="url(#filter5_d_192_7292)">
<path d="M60.9766 322.197C60.9766 315.459 66.4382 310 73.1759 310H358.072C364.809 310 370.268 315.459 370.268 322.197V358.117C370.268 364.855 364.809 370.318 358.072 370.318H60.9766V322.197Z" fill="url(#paint4_linear_192_7292)" fill-opacity="0.45"/>
<path d="M61.7383 322.197C61.7383 315.88 66.8589 310.76 73.1754 310.76H359.071C365.387 310.76 370.508 315.88 370.508 322.197V358.117C370.508 364.433 365.387 369.554 359.071 369.554H61.7383V322.197Z" stroke="white" stroke-opacity="0.08" stroke-width="1.52478"/>
<path d="M61.7383 322.197C61.7383 315.88 66.8589 310.76 73.1754 310.76H360.071C366.387 310.76 371.508 315.88 371.508 322.197V358.117C371.508 364.433 366.387 369.554 360.071 369.554H61.7383V322.197Z" stroke="url(#paint5_linear_192_7292)" stroke-opacity="0.18" stroke-width="1.52478"/>
<path d="M86.7913 347.555L81.2033 339.965L82.9853 338.865L89.2993 347.555H86.7913ZM76.4293 347.555V332.155H78.5853V347.555H76.4293ZM77.9253 340.779V338.843H82.9193V340.779H77.9253ZM83.1833 340.097L81.1593 339.789L86.6813 332.155H89.0353L83.1833 340.097ZM96.0459 347.687C94.8725 347.687 93.8312 347.43 92.9219 346.917C92.0125 346.403 91.2939 345.699 90.7659 344.805C90.2379 343.895 89.9739 342.869 89.9739 341.725C89.9739 340.566 90.2379 339.539 90.7659 338.645C91.2939 337.75 92.0125 337.053 92.9219 336.555C93.8312 336.041 94.8725 335.785 96.0459 335.785C97.2045 335.785 98.2385 336.041 99.1479 336.555C100.072 337.053 100.791 337.75 101.304 338.645C101.832 339.525 102.096 340.551 102.096 341.725C102.096 342.883 101.832 343.91 101.304 344.805C100.791 345.699 100.072 346.403 99.1479 346.917C98.2385 347.43 97.2045 347.687 96.0459 347.687ZM96.0459 345.839C96.7939 345.839 97.4612 345.67 98.0479 345.333C98.6492 344.995 99.1185 344.519 99.4559 343.903C99.7932 343.272 99.9619 342.546 99.9619 341.725C99.9619 340.889 99.7932 340.17 99.4559 339.569C99.1185 338.953 98.6492 338.476 98.0479 338.139C97.4612 337.801 96.7939 337.633 96.0459 337.633C95.2979 337.633 94.6305 337.801 94.0439 338.139C93.4572 338.476 92.9879 338.953 92.6359 339.569C92.2839 340.17 92.1079 340.889 92.1079 341.725C92.1079 342.546 92.2839 343.272 92.6359 343.903C92.9879 344.519 93.4572 344.995 94.0439 345.333C94.6305 345.67 95.2979 345.839 96.0459 345.839ZM105.146 347.555V335.895H107.258V340.845H113.902V335.895H116.014V347.555H113.902V342.671H107.258V347.555H105.146ZM125.312 347.687C124.066 347.687 122.966 347.43 122.012 346.917C121.074 346.403 120.34 345.699 119.812 344.805C119.299 343.91 119.042 342.883 119.042 341.725C119.042 340.566 119.292 339.539 119.79 338.645C120.304 337.75 121 337.053 121.88 336.555C122.775 336.041 123.78 335.785 124.894 335.785C126.024 335.785 127.021 336.034 127.886 336.533C128.752 337.031 129.426 337.735 129.91 338.645C130.409 339.539 130.658 340.588 130.658 341.791C130.658 341.879 130.651 341.981 130.636 342.099C130.636 342.216 130.629 342.326 130.614 342.429H120.692V340.911H129.514L128.656 341.439C128.671 340.691 128.517 340.023 128.194 339.437C127.872 338.85 127.424 338.395 126.852 338.073C126.295 337.735 125.642 337.567 124.894 337.567C124.161 337.567 123.508 337.735 122.936 338.073C122.364 338.395 121.917 338.857 121.594 339.459C121.272 340.045 121.11 340.72 121.11 341.483V341.835C121.11 342.612 121.286 343.309 121.638 343.925C122.005 344.526 122.511 344.995 123.156 345.333C123.802 345.67 124.542 345.839 125.378 345.839C126.068 345.839 126.691 345.721 127.248 345.487C127.82 345.252 128.319 344.9 128.744 344.431L129.91 345.795C129.382 346.411 128.722 346.88 127.93 347.203C127.153 347.525 126.28 347.687 125.312 347.687ZM141.283 342.781C140.667 343.074 140.029 343.309 139.369 343.485C138.723 343.646 138.056 343.727 137.367 343.727C135.959 343.727 134.844 343.397 134.023 342.737C133.216 342.077 132.813 341.057 132.813 339.679V335.895H134.925V339.547C134.925 340.383 135.181 340.999 135.695 341.395C136.223 341.791 136.927 341.989 137.807 341.989C138.364 341.989 138.936 341.915 139.523 341.769C140.124 341.622 140.711 341.417 141.283 341.153V342.781ZM141.129 347.555V335.895H143.241V347.555H141.129ZM147.341 347.555V335.895H149.453V340.845H156.097V335.895H158.209V347.555H156.097V342.671H149.453V347.555H147.341ZM167.31 347.687C166.136 347.687 165.095 347.43 164.186 346.917C163.276 346.403 162.558 345.699 162.03 344.805C161.502 343.895 161.238 342.869 161.238 341.725C161.238 340.566 161.502 339.539 162.03 338.645C162.558 337.75 163.276 337.053 164.186 336.555C165.095 336.041 166.136 335.785 167.31 335.785C168.468 335.785 169.502 336.041 170.412 336.555C171.336 337.053 172.054 337.75 172.568 338.645C173.096 339.525 173.36 340.551 173.36 341.725C173.36 342.883 173.096 343.91 172.568 344.805C172.054 345.699 171.336 346.403 170.412 346.917C169.502 347.43 168.468 347.687 167.31 347.687ZM167.31 345.839C168.058 345.839 168.725 345.67 169.312 345.333C169.913 344.995 170.382 344.519 170.72 343.903C171.057 343.272 171.226 342.546 171.226 341.725C171.226 340.889 171.057 340.17 170.72 339.569C170.382 338.953 169.913 338.476 169.312 338.139C168.725 337.801 168.058 337.633 167.31 337.633C166.562 337.633 165.894 337.801 165.308 338.139C164.721 338.476 164.252 338.953 163.9 339.569C163.548 340.17 163.372 340.889 163.372 341.725C163.372 342.546 163.548 343.272 163.9 343.903C164.252 344.519 164.721 344.995 165.308 345.333C165.894 345.67 166.562 345.839 167.31 345.839ZM176.613 347.687C176.203 347.687 175.851 347.547 175.557 347.269C175.264 346.975 175.117 346.609 175.117 346.169C175.117 345.729 175.264 345.369 175.557 345.091C175.851 344.812 176.203 344.673 176.613 344.673C177.009 344.673 177.347 344.812 177.625 345.091C177.919 345.369 178.065 345.729 178.065 346.169C178.065 346.609 177.919 346.975 177.625 347.269C177.347 347.547 177.009 347.687 176.613 347.687ZM187.396 347.555V332.155H197.494L197.472 334.069H189.024L189.552 333.519L189.574 347.555H187.396ZM204.289 346.565V337.743H199.229L199.119 339.987C199.09 340.72 199.039 341.431 198.965 342.121C198.907 342.795 198.804 343.419 198.657 343.991C198.525 344.563 198.327 345.032 198.063 345.399C197.799 345.765 197.447 345.993 197.007 346.081L194.917 345.707C195.372 345.721 195.739 345.575 196.017 345.267C196.296 344.944 196.509 344.504 196.655 343.947C196.817 343.389 196.934 342.759 197.007 342.055C197.081 341.336 197.139 340.595 197.183 339.833L197.359 335.895H206.401V346.565H204.289ZM194.455 350.261V345.707H208.183V350.261H206.203V347.555H196.457V350.261H194.455ZM216.127 347.687C214.88 347.687 213.78 347.43 212.827 346.917C211.888 346.403 211.155 345.699 210.627 344.805C210.113 343.91 209.857 342.883 209.857 341.725C209.857 340.566 210.106 339.539 210.605 338.645C211.118 337.75 211.815 337.053 212.695 336.555C213.589 336.041 214.594 335.785 215.709 335.785C216.838 335.785 217.835 336.034 218.701 336.533C219.566 337.031 220.241 337.735 220.725 338.645C221.223 339.539 221.473 340.588 221.473 341.791C221.473 341.879 221.465 341.981 221.451 342.099C221.451 342.216 221.443 342.326 221.429 342.429H211.507V340.911H220.329L219.471 341.439C219.485 340.691 219.331 340.023 219.009 339.437C218.686 338.85 218.239 338.395 217.667 338.073C217.109 337.735 216.457 337.567 215.709 337.567C214.975 337.567 214.323 337.735 213.751 338.073C213.179 338.395 212.731 338.857 212.409 339.459C212.086 340.045 211.925 340.72 211.925 341.483V341.835C211.925 342.612 212.101 343.309 212.453 343.925C212.819 344.526 213.325 344.995 213.971 345.333C214.616 345.67 215.357 345.839 216.193 345.839C216.882 345.839 217.505 345.721 218.063 345.487C218.635 345.252 219.133 344.9 219.559 344.431L220.725 345.795C220.197 346.411 219.537 346.88 218.745 347.203C217.967 347.525 217.095 347.687 216.127 347.687ZM231.251 351.955C230.694 351.955 230.151 351.859 229.623 351.669C229.095 351.493 228.641 351.229 228.259 350.877L229.161 349.293C229.455 349.571 229.777 349.784 230.129 349.931C230.481 350.077 230.855 350.151 231.251 350.151C231.765 350.151 232.19 350.019 232.527 349.755C232.865 349.491 233.18 349.021 233.473 348.347L234.199 346.741L234.419 346.477L238.995 335.895H241.063L235.409 348.721C235.072 349.542 234.691 350.187 234.265 350.657C233.855 351.126 233.4 351.456 232.901 351.647C232.403 351.852 231.853 351.955 231.251 351.955ZM234.023 347.929L228.699 335.895H230.899L235.431 346.279L234.023 347.929ZM250.588 346.565V337.743H245.528L245.418 339.987C245.389 340.72 245.337 341.431 245.264 342.121C245.205 342.795 245.103 343.419 244.956 343.991C244.824 344.563 244.626 345.032 244.362 345.399C244.098 345.765 243.746 345.993 243.306 346.081L241.216 345.707C241.671 345.721 242.037 345.575 242.316 345.267C242.595 344.944 242.807 344.504 242.954 343.947C243.115 343.389 243.233 342.759 243.306 342.055C243.379 341.336 243.438 340.595 243.482 339.833L243.658 335.895H252.7V346.565H250.588ZM240.754 350.261V345.707H254.482V350.261H252.502V347.555H242.756V350.261H240.754ZM262.228 347.687C261.054 347.687 260.013 347.43 259.104 346.917C258.194 346.403 257.476 345.699 256.948 344.805C256.42 343.895 256.156 342.869 256.156 341.725C256.156 340.566 256.42 339.539 256.948 338.645C257.476 337.75 258.194 337.053 259.104 336.555C260.013 336.041 261.054 335.785 262.228 335.785C263.386 335.785 264.42 336.041 265.33 336.555C266.254 337.053 266.972 337.75 267.486 338.645C268.014 339.525 268.278 340.551 268.278 341.725C268.278 342.883 268.014 343.91 267.486 344.805C266.972 345.699 266.254 346.403 265.33 346.917C264.42 347.43 263.386 347.687 262.228 347.687ZM262.228 345.839C262.976 345.839 263.643 345.67 264.23 345.333C264.831 344.995 265.3 344.519 265.638 343.903C265.975 343.272 266.144 342.546 266.144 341.725C266.144 340.889 265.975 340.17 265.638 339.569C265.3 338.953 264.831 338.476 264.23 338.139C263.643 337.801 262.976 337.633 262.228 337.633C261.48 337.633 260.812 337.801 260.226 338.139C259.639 338.476 259.17 338.953 258.818 339.569C258.466 340.17 258.29 340.889 258.29 341.725C258.29 342.546 258.466 343.272 258.818 343.903C259.17 344.519 259.639 344.995 260.226 345.333C260.812 345.67 261.48 345.839 262.228 345.839ZM276.717 347.731C275.749 347.731 274.891 347.577 274.143 347.269C273.41 346.961 272.779 346.506 272.251 345.905C271.723 345.289 271.32 344.519 271.041 343.595C270.777 342.656 270.645 341.556 270.645 340.295C270.645 339.297 270.733 338.403 270.909 337.611C271.085 336.819 271.335 336.115 271.657 335.499C271.995 334.883 272.405 334.347 272.889 333.893C273.388 333.438 273.945 333.064 274.561 332.771C275.192 332.463 275.881 332.228 276.629 332.067L281.953 330.879L282.261 332.837L277.355 333.893C277.062 333.951 276.71 334.039 276.299 334.157C275.889 334.274 275.471 334.457 275.045 334.707C274.62 334.941 274.224 335.271 273.857 335.697C273.491 336.122 273.197 336.679 272.977 337.369C272.757 338.043 272.647 338.879 272.647 339.877C272.647 340.155 272.655 340.368 272.669 340.515C272.684 340.661 272.699 340.808 272.713 340.955C272.743 341.101 272.765 341.321 272.779 341.615L271.899 340.713C272.134 339.906 272.508 339.202 273.021 338.601C273.535 337.999 274.151 337.537 274.869 337.215C275.603 336.877 276.402 336.709 277.267 336.709C278.353 336.709 279.313 336.943 280.149 337.413C281 337.882 281.667 338.527 282.151 339.349C282.635 340.17 282.877 341.109 282.877 342.165C282.877 343.235 282.621 344.196 282.107 345.047C281.609 345.883 280.897 346.543 279.973 347.027C279.049 347.496 277.964 347.731 276.717 347.731ZM276.915 345.971C277.663 345.971 278.323 345.809 278.895 345.487C279.467 345.149 279.915 344.702 280.237 344.145C280.56 343.573 280.721 342.935 280.721 342.231C280.721 341.527 280.56 340.903 280.237 340.361C279.915 339.818 279.467 339.393 278.895 339.085C278.323 338.762 277.649 338.601 276.871 338.601C276.138 338.601 275.478 338.755 274.891 339.063C274.305 339.356 273.85 339.774 273.527 340.317C273.205 340.845 273.043 341.461 273.043 342.165C273.043 342.869 273.205 343.514 273.527 344.101C273.865 344.673 274.319 345.127 274.891 345.465C275.478 345.802 276.153 345.971 276.915 345.971ZM285.894 347.555V335.895H288.006V340.845H294.65V335.895H296.762V347.555H294.65V342.671H288.006V347.555H285.894ZM306.06 347.687C304.814 347.687 303.714 347.43 302.76 346.917C301.822 346.403 301.088 345.699 300.56 344.805C300.047 343.91 299.79 342.883 299.79 341.725C299.79 340.566 300.04 339.539 300.538 338.645C301.052 337.75 301.748 337.053 302.628 336.555C303.523 336.041 304.528 335.785 305.642 335.785C306.772 335.785 307.769 336.034 308.634 336.533C309.5 337.031 310.174 337.735 310.658 338.645C311.157 339.539 311.406 340.588 311.406 341.791C311.406 341.879 311.399 341.981 311.384 342.099C311.384 342.216 311.377 342.326 311.362 342.429H301.44V340.911H310.262L309.404 341.439C309.419 340.691 309.265 340.023 308.942 339.437C308.62 338.85 308.172 338.395 307.6 338.073C307.043 337.735 306.39 337.567 305.642 337.567C304.909 337.567 304.256 337.735 303.684 338.073C303.112 338.395 302.665 338.857 302.342 339.459C302.02 340.045 301.858 340.72 301.858 341.483V341.835C301.858 342.612 302.034 343.309 302.386 343.925C302.753 344.526 303.259 344.995 303.904 345.333C304.55 345.67 305.29 345.839 306.126 345.839C306.816 345.839 307.439 345.721 307.996 345.487C308.568 345.252 309.067 344.9 309.492 344.431L310.658 345.795C310.13 346.411 309.47 346.88 308.678 347.203C307.901 347.525 307.028 347.687 306.06 347.687ZM319.875 347.687C318.628 347.687 317.528 347.43 316.575 346.917C315.636 346.403 314.903 345.699 314.375 344.805C313.861 343.91 313.605 342.883 313.605 341.725C313.605 340.566 313.854 339.539 314.353 338.645C314.866 337.75 315.563 337.053 316.443 336.555C317.337 336.041 318.342 335.785 319.457 335.785C320.586 335.785 321.583 336.034 322.449 336.533C323.314 337.031 323.989 337.735 324.473 338.645C324.971 339.539 325.221 340.588 325.221 341.791C325.221 341.879 325.213 341.981 325.199 342.099C325.199 342.216 325.191 342.326 325.177 342.429H315.255V340.911H324.077L323.219 341.439C323.233 340.691 323.079 340.023 322.757 339.437C322.434 338.85 321.987 338.395 321.415 338.073C320.857 337.735 320.205 337.567 319.457 337.567C318.723 337.567 318.071 337.735 317.499 338.073C316.927 338.395 316.479 338.857 316.157 339.459C315.834 340.045 315.673 340.72 315.673 341.483V341.835C315.673 342.612 315.849 343.309 316.201 343.925C316.567 344.526 317.073 344.995 317.719 345.333C318.364 345.67 319.105 345.839 319.941 345.839C320.63 345.839 321.253 345.721 321.811 345.487C322.383 345.252 322.881 344.9 323.307 344.431L324.473 345.795C323.945 346.411 323.285 346.88 322.493 347.203C321.715 347.525 320.843 347.687 319.875 347.687ZM330.436 342.693C330.436 342.121 330.531 341.622 330.722 341.197C330.913 340.771 331.147 340.39 331.426 340.053C331.719 339.715 332.035 339.407 332.372 339.129C332.709 338.835 333.025 338.549 333.318 338.271C333.611 337.977 333.846 337.669 334.022 337.347C334.213 337.024 334.308 336.65 334.308 336.225C334.308 335.521 334.029 334.949 333.472 334.509C332.915 334.069 332.145 333.849 331.162 333.849C330.282 333.849 329.519 333.995 328.874 334.289C328.229 334.582 327.679 335.015 327.224 335.587L325.618 334.443C326.234 333.665 327.019 333.064 327.972 332.639C328.925 332.199 330.04 331.979 331.316 331.979C332.372 331.979 333.289 332.14 334.066 332.463C334.843 332.771 335.445 333.218 335.87 333.805C336.31 334.377 336.53 335.073 336.53 335.895C336.53 336.511 336.435 337.039 336.244 337.479C336.053 337.919 335.811 338.307 335.518 338.645C335.225 338.982 334.909 339.297 334.572 339.591C334.249 339.884 333.941 340.177 333.648 340.471C333.355 340.764 333.113 341.087 332.922 341.439C332.731 341.791 332.636 342.209 332.636 342.693H330.436ZM331.558 347.687C331.147 347.687 330.803 347.547 330.524 347.269C330.26 346.99 330.128 346.66 330.128 346.279C330.128 345.868 330.26 345.531 330.524 345.267C330.803 345.003 331.147 344.871 331.558 344.871C331.969 344.871 332.306 345.003 332.57 345.267C332.834 345.531 332.966 345.868 332.966 346.279C332.966 346.66 332.834 346.99 332.57 347.269C332.306 347.547 331.969 347.687 331.558 347.687Z" fill="white"/>
<circle cx="79.9766" cy="407" r="19" fill="#2C2C33" fill-opacity="0.72" stroke="#D5B563"/>
<path d="M68.8477 405.005H72.9337V410.614H68.8477V405.005Z" fill="#2C2C33" fill-opacity="0.72"/>
<path d="M82.3715 417.067H76.9337C74.7246 417.067 72.9337 415.276 72.9337 413.067V410.614M87.4634 405.005H91.1057C91.1057 407.195 91.1057 408.424 91.1057 410.614H86.906V402.795C86.906 398.936 83.7782 395.809 79.9199 395.809V395.809C76.0615 395.809 72.9337 398.936 72.9337 402.795V405.005M72.9337 405.005H68.8477V410.614H72.9337M72.9337 405.005V410.614" stroke="#D5B563" stroke-linecap="round" stroke-linejoin="round"/>
</g>
<path d="M217.626 407C217.626 417.774 208.968 426.5 198.298 426.5C187.627 426.5 178.969 417.774 178.969 407C178.969 396.226 187.627 387.5 198.298 387.5C208.968 387.5 217.626 396.226 217.626 407Z" fill="#48C95F" stroke="white"/>
<path d="M206.156 399.062C204.197 397.094 201.586 396 198.829 396C193.098 396 188.455 400.667 188.455 406.427C188.455 408.25 188.963 410.073 189.834 411.604L188.383 417L193.896 415.542C195.42 416.344 197.088 416.781 198.829 416.781C204.56 416.781 209.203 412.115 209.203 406.354C209.13 403.656 208.115 401.031 206.156 399.062ZM203.835 410.146C203.617 410.729 202.601 411.312 202.094 411.385C201.658 411.458 201.078 411.458 200.498 411.312C200.135 411.167 199.627 411.021 199.047 410.729C196.435 409.635 194.767 407.01 194.622 406.792C194.477 406.646 193.533 405.406 193.533 404.094C193.533 402.781 194.186 402.198 194.404 401.906C194.622 401.615 194.912 401.615 195.129 401.615C195.275 401.615 195.492 401.615 195.637 401.615C195.782 401.615 196 401.542 196.218 402.052C196.435 402.562 196.943 403.875 197.016 403.948C197.088 404.094 197.088 404.24 197.016 404.385C196.943 404.531 196.87 404.677 196.725 404.823C196.58 404.969 196.435 405.187 196.363 405.26C196.218 405.406 196.073 405.552 196.218 405.771C196.363 406.062 196.87 406.865 197.668 407.594C198.684 408.469 199.482 408.76 199.772 408.906C200.062 409.052 200.208 408.979 200.353 408.833C200.498 408.687 201.006 408.104 201.151 407.813C201.296 407.521 201.513 407.594 201.731 407.667C201.949 407.74 203.254 408.396 203.472 408.542C203.762 408.688 203.907 408.76 203.98 408.833C204.052 409.052 204.052 409.562 203.835 410.146Z" fill="white"/>
<path d="M186.892 407C186.892 417.774 178.234 426.5 167.563 426.5C156.892 426.5 148.234 417.774 148.234 407C148.234 396.226 156.892 387.5 167.563 387.5C178.234 387.5 186.892 396.226 186.892 407Z" fill="#40AA1A" stroke="white"/>
<path d="M179.013 408.625L178.849 408.365C178.587 407.976 178.326 407.587 177.932 407.328C177.604 407.1 177.211 406.939 176.852 406.776C177.867 406.29 178.561 405.609 178.889 404.734C179.118 404.02 178.699 403.437 178.699 402.853V402.789C178.699 402.139 177.809 401.718 176.99 401.491C176.497 401.394 175.954 401.394 175.463 401.425L174.387 401.653L174.752 400.842C175.078 399.804 174.983 398.799 174.426 397.858L174.328 397.697C173.836 396.886 173.116 396.4 172.133 396.14C171.118 395.88 170.253 395.978 169.336 396.464C168.417 396.952 167.551 397.698 167.551 398.669V398.734L167.435 398.961L167.262 398.734L166.914 398.151C166.389 397.34 165.724 396.854 164.904 396.626C164.183 396.464 163.59 396.529 162.967 396.854C162.28 397.275 161.883 397.925 161.719 398.832C161.555 399.772 161.718 400.681 162.21 401.588L162.438 401.913L161.652 401.653C160.668 401.425 159.752 401.555 158.835 402.042C157.884 402.528 157.294 403.209 156.901 404.15C156.54 405.058 156.574 405.932 157.032 406.744C157.229 407.101 157.524 407.392 157.785 407.587C158.179 407.976 158.67 408.203 159.26 408.3L159.489 408.365L158.998 408.788C158.539 409.177 158.277 409.663 158.114 410.149C157.95 410.733 158.015 411.317 158.343 411.869C158.507 412.128 158.67 412.353 158.933 412.517C159.195 412.743 159.522 412.905 159.915 412.938C160.636 413.101 161.39 413.101 162.208 412.84L161.618 413.814L161.455 414.235C161.127 415.271 161.225 416.179 161.716 417.12C161.946 417.478 162.208 417.802 162.47 418.093C162.863 418.45 163.354 418.677 163.945 418.84C164.926 419.099 165.909 419.065 166.86 418.58C167.777 418.093 168.366 417.314 168.662 416.342L168.693 416.149C169.316 416.828 169.906 417.283 170.562 417.445C171.217 417.639 171.872 417.608 172.461 417.217C173.018 416.893 173.411 416.342 173.607 415.66C173.771 414.947 173.771 414.234 173.607 413.425C173.934 413.651 174.263 413.813 174.655 413.909C175.703 414.234 176.621 414.201 177.538 413.715C178.423 413.23 179.012 412.45 179.307 411.445C179.57 410.473 179.505 409.533 179.013 408.625ZM174.263 403.21L174.656 403.047C175.247 402.789 175.802 402.723 176.393 402.789C176.948 402.853 177.343 403.112 177.539 403.502L177.67 403.922L177.604 404.247C177.376 404.831 176.883 405.285 176.065 405.642C175.738 405.803 175.378 405.869 174.985 405.932L170.955 406.42L170.889 406.193L170.823 406.095L170.955 405.932L174.263 403.21ZM168.694 399.124C168.857 398.475 169.317 397.989 169.906 397.665C170.496 397.34 171.151 397.275 171.773 397.502C172.462 397.665 172.952 398.021 173.248 398.572C173.412 398.897 173.509 399.286 173.509 399.707L173.412 400.42C173.281 400.777 173.117 401.102 172.921 401.394L169.972 404.961C169.678 404.734 169.35 404.571 169.022 404.409L168.694 400.745L168.662 399.448L168.694 399.124ZM163.094 399.221C163.125 398.637 163.354 398.248 163.748 398.021C163.945 397.859 164.239 397.859 164.501 397.989C165.091 398.152 165.583 398.573 165.975 399.383C166.139 399.708 166.302 400.032 166.369 400.421L167.023 404.248L166.533 404.41L163.616 401.264L163.453 400.94C163.191 400.356 163.027 399.805 163.094 399.221ZM158.277 406.095C158.015 405.609 158.015 405.123 158.212 404.637C158.441 404.02 158.867 403.534 159.488 403.274C160.079 402.95 160.667 402.853 161.323 403.014L162.208 403.371L165.091 405.447C164.829 405.772 164.664 406.095 164.566 406.42L159.849 407.004L159.522 406.939C158.932 406.841 158.539 406.583 158.277 406.095ZM167.551 415.662L167.435 415.987C167.206 416.57 166.771 417.057 166.182 417.314C165.592 417.64 164.947 417.704 164.359 417.543C163.702 417.381 163.201 416.992 162.939 416.472C162.776 416.149 162.64 415.759 162.64 415.37L162.799 414.625C162.866 414.3 163.029 413.975 163.291 413.716L166.041 410.472C166.369 410.635 166.779 410.797 167.14 410.831C167.205 411.932 167.551 413.102 167.551 414.365V415.662ZM166.302 409.178C165.876 408.788 165.648 408.235 165.648 407.652C165.648 407.068 165.876 406.583 166.302 406.128C166.696 405.772 167.22 405.544 167.842 405.544C168.432 405.544 168.989 405.772 169.35 406.128C169.807 406.583 170.005 407.068 170.005 407.652C170.005 408.235 169.807 408.788 169.35 409.178C168.924 409.599 168.432 409.824 167.842 409.824C167.22 409.825 166.696 409.599 166.302 409.178ZM172.364 414.851C172.298 415.436 172.102 415.858 171.707 416.02C171.479 416.181 171.217 416.181 170.955 416.15C170.332 415.987 169.841 415.501 169.481 414.722L169.087 413.652L168.596 410.831L169.152 410.635L169.579 410.41L170.955 411.802L171.807 412.841L171.97 413.164C172.265 413.716 172.429 414.236 172.364 414.851ZM177.998 411.057C177.834 411.707 177.441 412.193 176.883 412.451C176.295 412.776 175.704 412.841 175.05 412.614C174.656 412.518 174.394 412.353 174.165 412.095L170.725 409.274L170.955 408.788L171.054 408.398L174.755 408.073L176.065 408.042L176.393 408.073C176.883 408.236 177.343 408.528 177.604 409.014C177.931 409.372 178.096 409.858 178.096 410.411L177.998 411.057Z" fill="white"/>
<path d="M156.158 407C156.158 417.774 147.5 426.5 136.829 426.5C126.158 426.5 117.5 417.774 117.5 407C117.5 396.226 126.158 387.5 136.829 387.5C147.5 387.5 156.158 396.226 156.158 407Z" fill="#2F89CE" stroke="white"/>
<path d="M126.27 407.374L130.828 409.089L132.605 414.856C132.683 415.245 133.146 415.323 133.455 415.09L136.005 412.985C136.237 412.751 136.623 412.751 136.932 412.985L141.491 416.336C141.8 416.57 142.264 416.414 142.341 416.025L145.741 399.659C145.818 399.269 145.432 398.879 145.045 399.035L126.27 406.361C125.806 406.517 125.806 407.218 126.27 407.374ZM132.374 408.231L141.337 402.698C141.491 402.62 141.646 402.854 141.491 402.932L134.151 409.868C133.919 410.102 133.687 410.413 133.687 410.803L133.455 412.674C133.455 412.907 133.069 412.985 132.992 412.674L132.065 409.244C131.833 408.855 131.987 408.387 132.374 408.231Z" fill="white"/>
<g filter="url(#filter6_d_192_7292)">
<path d="M431 366.547C431 362.224 434.505 358.719 438.828 358.719H501.172C505.495 358.719 509 362.224 509 366.547V428.891C509 433.214 505.495 436.719 501.172 436.719H438.828C434.505 436.719 431 433.214 431 428.891V366.547Z" fill="url(#paint6_linear_192_7292)" fill-opacity="0.45" stroke="#1E1E1E" stroke-width="2"/>
</g>
<path d="M462.656 412.791H459.893C458.788 412.791 457.893 411.895 457.893 410.791V409.776C457.893 408.871 457.28 408.091 456.432 407.776C456.05 407.634 455.675 407.478 455.307 407.309C454.485 406.932 453.5 407.05 452.86 407.69L452.141 408.409C451.36 409.19 450.093 409.19 449.312 408.409L446.077 405.173C445.296 404.392 445.296 403.126 446.077 402.345L446.796 401.626C447.436 400.986 447.554 400.001 447.177 399.178C447.008 398.811 446.853 398.437 446.711 398.055C446.396 397.207 445.615 396.595 444.711 396.595H443.695C442.591 396.595 441.695 395.699 441.695 394.595V390.019C441.695 388.914 442.591 388.019 443.695 388.019H444.71C445.615 388.019 446.395 387.406 446.711 386.558C446.834 386.226 446.968 385.899 447.112 385.577C447.481 384.751 447.353 383.767 446.707 383.133L445.982 382.422C445.194 381.649 445.182 380.382 445.955 379.594L449.16 376.328C449.934 375.539 451.2 375.527 451.988 376.301L452.713 377.012C453.359 377.646 454.345 377.755 455.164 377.369C455.578 377.175 456.001 376.997 456.432 376.837C457.28 376.521 457.893 375.741 457.893 374.836V373.822C457.893 372.718 458.788 371.822 459.893 371.822H464.468C465.573 371.822 466.468 372.718 466.468 373.822V374.836C466.468 375.741 467.081 376.522 467.929 376.837C468.31 376.979 468.685 377.134 469.052 377.303C469.875 377.68 470.86 377.562 471.5 376.922L472.217 376.204C472.998 375.423 474.265 375.423 475.046 376.204L478.281 379.44C479.062 380.221 479.062 381.487 478.281 382.268L477.564 382.985C476.924 383.626 476.806 384.611 477.183 385.433C477.352 385.801 477.508 386.176 477.65 386.558" stroke="#D5B563" stroke-width="2" stroke-linecap="round" stroke-linejoin="round"/>
<path d="M462.888 401.491C457.815 401.491 453.703 397.379 453.703 392.306C453.703 387.233 457.815 383.121 462.888 383.121C466.983 383.121 470.451 385.8 471.637 389.501" stroke="#D5B563" stroke-width="2"/>
<circle cx="479.93" cy="405.245" r="18.3719" stroke="#D5B563" stroke-width="2"/>
<path d="M482.249 414.977H477.123C474.914 414.977 473.123 413.186 473.123 410.977V408.738M487.172 403.314H490.694C490.694 405.432 490.694 406.62 490.694 408.738H486.633V401.177C486.633 397.446 483.609 394.422 479.878 394.422V394.422C476.147 394.422 473.123 397.446 473.123 401.177V403.314M473.123 403.314H469.172V408.738H473.123M473.123 403.314V408.738" stroke="#D5B563" stroke-width="2" stroke-linecap="round" stroke-linejoin="round"/>
</g>
</g>
<defs>
<filter id="filter0_d_192_7292" x="-16" y="-16" width="972" height="500" filterUnits="userSpaceOnUse" color-interpolation-filters="sRGB">
<feFlood flood-opacity="0" result="BackgroundImageFix"/>
<feColorMatrix in="SourceAlpha" type="matrix" values="0 0 0 0 0 0 0 0 0 0 0 0 0 0 0 0 0 0 127 0" result="hardAlpha"/>
<feOffset/>
<feGaussianBlur stdDeviation="8"/>
<feComposite in2="hardAlpha" operator="out"/>
<feColorMatrix type="matrix" values="0 0 0 0 0 0 0 0 0 0 0 0 0 0 0 0 0 0 0.45 0"/>
<feBlend mode="normal" in2="BackgroundImageFix" result="effect1_dropShadow_192_7292"/>
<feBlend mode="normal" in="SourceGraphic" in2="effect1_dropShadow_192_7292" result="shape"/>
</filter>
<filter id="filter1_d_192_7292" x="-4.38579" y="-1" width="948.772" height="476.772" filterUnits="userSpaceOnUse" color-interpolation-filters="sRGB">
<feFlood flood-opacity="0" result="BackgroundImageFix"/>
<feColorMatrix in="SourceAlpha" type="matrix" values="0 0 0 0 0 0 0 0 0 0 0 0 0 0 0 0 0 0 127 0" result="hardAlpha"/>
<feOffset dy="4.38579"/>
<feGaussianBlur stdDeviation="2.19289"/>
<feComposite in2="hardAlpha" operator="out"/>
<feColorMatrix type="matrix" values="0 0 0 0 0 0 0 0 0 0 0 0 0 0 0 0 0 0 0.25 0"/>
<feBlend mode="normal" in2="BackgroundImageFix" result="effect1_dropShadow_192_7292"/>
<feBlend mode="normal" in="SourceGraphic" in2="effect1_dropShadow_192_7292" result="shape"/>
</filter>
<filter id="filter2_d_192_7292" x="33.85" y="46.85" width="102.3" height="102.3" filterUnits="userSpaceOnUse" color-interpolation-filters="sRGB">
<feFlood flood-opacity="0" result="BackgroundImageFix"/>
<feColorMatrix in="SourceAlpha" type="matrix" values="0 0 0 0 0 0 0 0 0 0 0 0 0 0 0 0 0 0 127 0" result="hardAlpha"/>
<feOffset dy="3"/>
<feGaussianBlur stdDeviation="3.075"/>
<feComposite in2="hardAlpha" operator="out"/>
<feColorMatrix type="matrix" values="0 0 0 0 0 0 0 0 0 0 0 0 0 0 0 0 0 0 0.25 0"/>
<feBlend mode="normal" in2="BackgroundImageFix" result="effect1_dropShadow_192_7292"/>
<feBlend mode="normal" in="SourceGraphic" in2="effect1_dropShadow_192_7292" result="shape"/>
</filter>
<filter id="filter3_d_192_7292" x="180.845" y="194.178" width="326.028" height="118.497" filterUnits="userSpaceOnUse" color-interpolation-filters="sRGB">
<feFlood flood-opacity="0" result="BackgroundImageFix"/>
<feColorMatrix in="SourceAlpha" type="matrix" values="0 0 0 0 0 0 0 0 0 0 0 0 0 0 0 0 0 0 127 0" result="hardAlpha"/>
<feOffset dy="4.5747"/>
<feGaussianBlur stdDeviation="3.04991"/>
<feComposite in2="hardAlpha" operator="out"/>
<feColorMatrix type="matrix" values="0 0 0 0 0 0 0 0 0 0 0 0 0 0 0 0 0 0 0.25 0"/>
<feBlend mode="normal" in2="BackgroundImageFix" result="effect1_dropShadow_192_7292"/>
<feBlend mode="normal" in="SourceGraphic" in2="effect1_dropShadow_192_7292" result="shape"/>
</filter>
<filter id="filter4_d_192_7292" x="199.645" y="214.766" width="274.332" height="25.7107" filterUnits="userSpaceOnUse" color-interpolation-filters="sRGB">
<feFlood flood-opacity="0" result="BackgroundImageFix"/>
<feColorMatrix in="SourceAlpha" type="matrix" values="0 0 0 0 0 0 0 0 0 0 0 0 0 0 0 0 0 0 127 0" result="hardAlpha"/>
<feOffset dy="2.21479"/>
<feGaussianBlur stdDeviation="2.21479"/>
<feComposite in2="hardAlpha" operator="out"/>
<feColorMatrix type="matrix" values="0 0 0 0 0 0 0 0 0 0 0 0 0 0 0 0 0 0 0.25 0"/>
<feBlend mode="normal" in2="BackgroundImageFix" result="effect1_dropShadow_192_7292"/>
<feBlend mode="normal" in="SourceGraphic" in2="effect1_dropShadow_192_7292" result="shape"/>
</filter>
<filter id="filter5_d_192_7292" x="54.3767" y="308.473" width="323.993" height="128.702" filterUnits="userSpaceOnUse" color-interpolation-filters="sRGB">
<feFlood flood-opacity="0" result="BackgroundImageFix"/>
<feColorMatrix in="SourceAlpha" type="matrix" values="0 0 0 0 0 0 0 0 0 0 0 0 0 0 0 0 0 0 127 0" result="hardAlpha"/>
<feOffset dy="4.5747"/>
<feGaussianBlur stdDeviation="3.04991"/>
<feComposite in2="hardAlpha" operator="out"/>
<feColorMatrix type="matrix" values="0 0 0 0 0 0 0 0 0 0 0 0 0 0 0 0 0 0 0.25 0"/>
<feBlend mode="normal" in2="BackgroundImageFix" result="effect1_dropShadow_192_7292"/>
<feBlend mode="normal" in="SourceGraphic" in2="effect1_dropShadow_192_7292" result="shape"/>
</filter>
<filter id="filter6_d_192_7292" x="421.36" y="351.959" width="97.2802" height="97.2802" filterUnits="userSpaceOnUse" color-interpolation-filters="sRGB">
<feFlood flood-opacity="0" result="BackgroundImageFix"/>
<feColorMatrix in="SourceAlpha" type="matrix" values="0 0 0 0 0 0 0 0 0 0 0 0 0 0 0 0 0 0 127 0" result="hardAlpha"/>
<feOffset dy="2.88026"/>
<feGaussianBlur stdDeviation="4.32005"/>
<feComposite in2="hardAlpha" operator="out"/>
<feColorMatrix type="matrix" values="0 0 0 0 0 0 0 0 0 0 0 0 0 0 0 0 0 0 0.4 0"/>
<feBlend mode="normal" in2="BackgroundImageFix" result="effect1_dropShadow_192_7292"/>
<feBlend mode="normal" in="SourceGraphic" in2="effect1_dropShadow_192_7292" result="shape"/>
</filter>
<linearGradient id="paint0_linear_192_7292" x1="0.0320735" y1="48.5" x2="194.435" y2="606.813" gradientUnits="userSpaceOnUse">
<stop stop-color="#0D0D0E"/>
<stop offset="0.303582" stop-color="#1D1C1B"/>
<stop offset="1" stop-color="#101010"/>
</linearGradient>
<radialGradient id="paint1_radial_192_7292" cx="0" cy="0" r="1" gradientUnits="userSpaceOnUse" gradientTransform="translate(50.3282 246.972) rotate(33.4503) scale(286.029 727.506)">
<stop stop-color="white"/>
<stop offset="1" stop-color="white" stop-opacity="0"/>
</radialGradient>
<linearGradient id="paint2_linear_192_7292" x1="500.477" y1="196" x2="60.6479" y2="294.987" gradientUnits="userSpaceOnUse">
<stop stop-color="#272727"/>
<stop offset="0.203" stop-color="#323232"/>
<stop offset="0.438" stop-color="#353535"/>
<stop offset="0.656" stop-color="#1B1B1B"/>
</linearGradient>
<radialGradient id="paint3_radial_192_7292" cx="0" cy="0" r="1" gradientUnits="userSpaceOnUse" gradientTransform="translate(244.528 196.116) rotate(-1.34697) scale(26.1898 22.3706)">
<stop stop-color="#FBBAA6"/>
<stop offset="1" stop-color="white" stop-opacity="0"/>
</radialGradient>
<linearGradient id="paint4_linear_192_7292" x1="60.9766" y1="310" x2="88.8544" y2="433.724" gradientUnits="userSpaceOnUse">
<stop stop-color="#272727"/>
<stop offset="0.203" stop-color="#323232"/>
<stop offset="0.438" stop-color="#353535"/>
<stop offset="0.656" stop-color="#1B1B1B"/>
</linearGradient>
<linearGradient id="paint5_linear_192_7292" x1="216.624" y1="310" x2="216.624" y2="354.482" gradientUnits="userSpaceOnUse">
<stop stop-color="white"/>
<stop offset="1" stop-color="white" stop-opacity="0"/>
</linearGradient>
<linearGradient id="paint6_linear_192_7292" x1="430" y1="357.719" x2="515.323" y2="431.569" gradientUnits="userSpaceOnUse">
<stop stop-color="#272727"/>
<stop offset="0.203" stop-color="#323232"/>
<stop offset="0.438" stop-color="#353535"/>
<stop offset="0.656" stop-color="#1B1B1B"/>
</linearGradient>
<clipPath id="clip0_192_7292">
<rect width="940" height="468" rx="20" fill="white"/>
</clipPath>
</defs>
</svg>
