<svg width="420" height="570" viewBox="0 0 420 570" fill="none" xmlns="http://www.w3.org/2000/svg">
<g filter="url(#filter0_d_396_113131)">
<g clip-path="url(#clip0_396_113131)">
<g filter="url(#filter1_d_396_113131)">
<rect y="-1" width="419" height="571" rx="20" fill="url(#paint0_linear_396_113131)"/>
<rect x="1" width="417" height="569" rx="19" stroke="#1E1E1E" stroke-width="2"/>
</g>
<rect x="1" width="417" height="569" rx="19" stroke="url(#paint1_radial_396_113131)" stroke-opacity="0.6" stroke-width="2"/>
<path d="M150.928 75.14C149.005 75.14 147.269 74.7107 145.72 73.852C144.189 72.9933 142.976 71.808 142.08 70.296C141.203 68.784 140.764 67.0853 140.764 65.2C140.764 63.3147 141.203 61.616 142.08 60.104C142.976 58.592 144.189 57.4067 145.72 56.548C147.269 55.6893 149.005 55.26 150.928 55.26C152.347 55.26 153.653 55.4933 154.848 55.96C156.043 56.408 157.06 57.08 157.9 57.976L157.004 58.9C155.436 57.3507 153.429 56.576 150.984 56.576C149.341 56.576 147.848 56.9493 146.504 57.696C145.16 58.4427 144.105 59.4787 143.34 60.804C142.575 62.1107 142.192 63.576 142.192 65.2C142.192 66.824 142.575 68.2987 143.34 69.624C144.105 70.9307 145.16 71.9573 146.504 72.704C147.848 73.4507 149.341 73.824 150.984 73.824C153.411 73.824 155.417 73.04 157.004 71.472L157.9 72.396C157.06 73.292 156.033 73.9733 154.82 74.44C153.625 74.9067 152.328 75.14 150.928 75.14ZM174.069 68.028H161.497C161.534 69.1667 161.823 70.184 162.365 71.08C162.906 71.9573 163.634 72.6387 164.549 73.124C165.482 73.6093 166.527 73.852 167.685 73.852C168.637 73.852 169.514 73.684 170.317 73.348C171.138 72.9933 171.819 72.48 172.361 71.808L173.173 72.732C172.538 73.4973 171.735 74.0853 170.765 74.496C169.813 74.9067 168.777 75.112 167.657 75.112C166.201 75.112 164.903 74.7947 163.765 74.16C162.626 73.5253 161.73 72.648 161.077 71.528C160.442 70.408 160.125 69.1293 160.125 67.692C160.125 66.2733 160.423 65.004 161.021 63.884C161.637 62.7453 162.477 61.8587 163.541 61.224C164.605 60.5893 165.799 60.272 167.125 60.272C168.45 60.272 169.635 60.5893 170.681 61.224C171.745 61.84 172.575 62.708 173.173 63.828C173.789 64.948 174.097 66.2173 174.097 67.636L174.069 68.028ZM167.125 61.504C166.098 61.504 165.174 61.7373 164.353 62.204C163.531 62.652 162.869 63.296 162.365 64.136C161.879 64.9573 161.599 65.8907 161.525 66.936H172.725C172.669 65.8907 172.389 64.9573 171.885 64.136C171.381 63.3147 170.718 62.6707 169.897 62.204C169.075 61.7373 168.151 61.504 167.125 61.504ZM186.315 60.272C187.678 60.272 188.91 60.5893 190.011 61.224C191.113 61.8587 191.971 62.736 192.587 63.856C193.222 64.976 193.539 66.2547 193.539 67.692C193.539 69.1293 193.222 70.4173 192.587 71.556C191.971 72.676 191.113 73.5533 190.011 74.188C188.91 74.804 187.678 75.112 186.315 75.112C185.027 75.112 183.861 74.8133 182.815 74.216C181.77 73.6 180.958 72.7507 180.379 71.668V80.432H178.979V60.384H180.323V63.828C180.902 62.708 181.714 61.84 182.759 61.224C183.823 60.5893 185.009 60.272 186.315 60.272ZM186.231 73.852C187.351 73.852 188.359 73.5907 189.255 73.068C190.151 72.5453 190.851 71.8173 191.355 70.884C191.878 69.9507 192.139 68.8867 192.139 67.692C192.139 66.4973 191.878 65.4333 191.355 64.5C190.851 63.5667 190.151 62.8387 189.255 62.316C188.359 61.7933 187.351 61.532 186.231 61.532C185.111 61.532 184.103 61.7933 183.207 62.316C182.33 62.8387 181.63 63.5667 181.107 64.5C180.603 65.4333 180.351 66.4973 180.351 67.692C180.351 68.8867 180.603 69.9507 181.107 70.884C181.63 71.8173 182.33 72.5453 183.207 73.068C184.103 73.5907 185.111 73.852 186.231 73.852ZM207.024 67.468C209.17 67.8413 210.244 69.0453 210.244 71.08C210.244 72.3493 209.777 73.32 208.844 73.992C207.929 74.664 206.548 75 204.7 75H198.372V60.384H204.532C206.156 60.384 207.425 60.7107 208.34 61.364C209.273 61.9987 209.74 62.9133 209.74 64.108C209.74 64.9667 209.497 65.6853 209.012 66.264C208.545 66.824 207.882 67.2253 207.024 67.468ZM199.744 67.048H204.448C205.698 67.048 206.66 66.8147 207.332 66.348C208.004 65.8627 208.34 65.172 208.34 64.276C208.34 63.3613 208.004 62.68 207.332 62.232C206.678 61.7653 205.717 61.532 204.448 61.532H199.744V67.048ZM204.672 73.852C207.453 73.852 208.844 72.9093 208.844 71.024C208.844 70.0347 208.526 69.3067 207.892 68.84C207.257 68.3733 206.258 68.14 204.896 68.14H199.744V73.852H204.672ZM215.496 60.384H216.896V72.844L227.312 60.384H228.544V75H227.144V62.54L216.728 75H215.496V60.384ZM240.77 75.112C239.351 75.112 238.082 74.7947 236.962 74.16C235.842 73.5253 234.964 72.648 234.33 71.528C233.695 70.3893 233.378 69.1107 233.378 67.692C233.378 66.2547 233.695 64.976 234.33 63.856C234.964 62.7173 235.842 61.84 236.962 61.224C238.082 60.5893 239.351 60.272 240.77 60.272C241.946 60.272 243.01 60.5053 243.962 60.972C244.932 61.42 245.716 62.0827 246.314 62.96L245.278 63.716C244.755 62.988 244.102 62.4467 243.318 62.092C242.552 61.7187 241.703 61.532 240.77 61.532C239.631 61.532 238.604 61.7933 237.69 62.316C236.794 62.82 236.084 63.5387 235.562 64.472C235.058 65.4053 234.806 66.4787 234.806 67.692C234.806 68.9053 235.058 69.9787 235.562 70.912C236.084 71.8453 236.794 72.5733 237.69 73.096C238.604 73.6 239.631 73.852 240.77 73.852C241.703 73.852 242.552 73.6747 243.318 73.32C244.102 72.9467 244.755 72.396 245.278 71.668L246.314 72.424C245.716 73.3013 244.932 73.9733 243.962 74.44C243.01 74.888 241.946 75.112 240.77 75.112ZM250.727 60.384H252.127V67.048H262.039V60.384H263.439V75H262.039V68.28H252.127V75H250.727V60.384ZM275.589 75.112C274.208 75.112 272.957 74.7947 271.837 74.16C270.736 73.5253 269.868 72.648 269.233 71.528C268.599 70.3893 268.281 69.1107 268.281 67.692C268.281 66.2733 268.599 65.004 269.233 63.884C269.868 62.7453 270.736 61.8587 271.837 61.224C272.957 60.5893 274.208 60.272 275.589 60.272C276.971 60.272 278.212 60.5893 279.313 61.224C280.433 61.8587 281.311 62.7453 281.945 63.884C282.58 65.004 282.897 66.2733 282.897 67.692C282.897 69.1107 282.58 70.3893 281.945 71.528C281.311 72.648 280.433 73.5253 279.313 74.16C278.212 74.7947 276.971 75.112 275.589 75.112ZM275.589 73.852C276.709 73.852 277.708 73.5907 278.585 73.068C279.481 72.5453 280.181 71.8173 280.685 70.884C281.208 69.9507 281.469 68.8867 281.469 67.692C281.469 66.4973 281.208 65.4333 280.685 64.5C280.181 63.5667 279.481 62.8387 278.585 62.316C277.708 61.7933 276.709 61.532 275.589 61.532C274.469 61.532 273.461 61.7933 272.565 62.316C271.688 62.8387 270.988 63.5667 270.465 64.5C269.961 65.4333 269.709 66.4973 269.709 67.692C269.709 68.8867 269.961 69.9507 270.465 70.884C270.988 71.8173 271.688 72.5453 272.565 73.068C273.461 73.5907 274.469 73.852 275.589 73.852ZM300.197 68.028H287.625C287.662 69.1667 287.951 70.184 288.493 71.08C289.034 71.9573 289.762 72.6387 290.677 73.124C291.61 73.6093 292.655 73.852 293.813 73.852C294.765 73.852 295.642 73.684 296.445 73.348C297.266 72.9933 297.947 72.48 298.489 71.808L299.301 72.732C298.666 73.4973 297.863 74.0853 296.893 74.496C295.941 74.9067 294.905 75.112 293.785 75.112C292.329 75.112 291.031 74.7947 289.893 74.16C288.754 73.5253 287.858 72.648 287.205 71.528C286.57 70.408 286.253 69.1293 286.253 67.692C286.253 66.2733 286.551 65.004 287.149 63.884C287.765 62.7453 288.605 61.8587 289.669 61.224C290.733 60.5893 291.927 60.272 293.253 60.272C294.578 60.272 295.763 60.5893 296.809 61.224C297.873 61.84 298.703 62.708 299.301 63.828C299.917 64.948 300.225 66.2173 300.225 67.636L300.197 68.028ZM293.253 61.504C292.226 61.504 291.302 61.7373 290.481 62.204C289.659 62.652 288.997 63.296 288.493 64.136C288.007 64.9573 287.727 65.8907 287.653 66.936H298.853C298.797 65.8907 298.517 64.9573 298.013 64.136C297.509 63.3147 296.846 62.6707 296.025 62.204C295.203 61.7373 294.279 61.504 293.253 61.504ZM147.932 106.112C146.513 106.112 145.244 105.795 144.124 105.16C143.004 104.525 142.127 103.648 141.492 102.528C140.857 101.389 140.54 100.111 140.54 98.692C140.54 97.2547 140.857 95.976 141.492 94.856C142.127 93.7173 143.004 92.84 144.124 92.224C145.244 91.5893 146.513 91.272 147.932 91.272C149.108 91.272 150.172 91.5053 151.124 91.972C152.095 92.42 152.879 93.0827 153.476 93.96L152.44 94.716C151.917 93.988 151.264 93.4467 150.48 93.092C149.715 92.7187 148.865 92.532 147.932 92.532C146.793 92.532 145.767 92.7933 144.852 93.316C143.956 93.82 143.247 94.5387 142.724 95.472C142.22 96.4053 141.968 97.4787 141.968 98.692C141.968 99.9053 142.22 100.979 142.724 101.912C143.247 102.845 143.956 103.573 144.852 104.096C145.767 104.6 146.793 104.852 147.932 104.852C148.865 104.852 149.715 104.675 150.48 104.32C151.264 103.947 151.917 103.396 152.44 102.668L153.476 103.424C152.879 104.301 152.095 104.973 151.124 105.44C150.172 105.888 149.108 106.112 147.932 106.112ZM163.468 106.112C162.087 106.112 160.836 105.795 159.716 105.16C158.615 104.525 157.747 103.648 157.112 102.528C156.477 101.389 156.16 100.111 156.16 98.692C156.16 97.2733 156.477 96.004 157.112 94.884C157.747 93.7453 158.615 92.8587 159.716 92.224C160.836 91.5893 162.087 91.272 163.468 91.272C164.849 91.272 166.091 91.5893 167.192 92.224C168.312 92.8587 169.189 93.7453 169.824 94.884C170.459 96.004 170.776 97.2733 170.776 98.692C170.776 100.111 170.459 101.389 169.824 102.528C169.189 103.648 168.312 104.525 167.192 105.16C166.091 105.795 164.849 106.112 163.468 106.112ZM163.468 104.852C164.588 104.852 165.587 104.591 166.464 104.068C167.36 103.545 168.06 102.817 168.564 101.884C169.087 100.951 169.348 99.8867 169.348 98.692C169.348 97.4973 169.087 96.4333 168.564 95.5C168.06 94.5667 167.36 93.8387 166.464 93.316C165.587 92.7933 164.588 92.532 163.468 92.532C162.348 92.532 161.34 92.7933 160.444 93.316C159.567 93.8387 158.867 94.5667 158.344 95.5C157.84 96.4333 157.588 97.4973 157.588 98.692C157.588 99.8867 157.84 100.951 158.344 101.884C158.867 102.817 159.567 103.545 160.444 104.068C161.34 104.591 162.348 104.852 163.468 104.852ZM188.383 91.384V106H186.983V92.644H177.015V106H175.615V91.384H188.383ZM202.072 91.272C203.434 91.272 204.666 91.5893 205.768 92.224C206.869 92.8587 207.728 93.736 208.344 94.856C208.978 95.976 209.296 97.2547 209.296 98.692C209.296 100.129 208.978 101.417 208.344 102.556C207.728 103.676 206.869 104.553 205.768 105.188C204.666 105.804 203.434 106.112 202.072 106.112C200.784 106.112 199.617 105.813 198.572 105.216C197.526 104.6 196.714 103.751 196.136 102.668V111.432H194.736V91.384H196.08V94.828C196.658 93.708 197.47 92.84 198.516 92.224C199.58 91.5893 200.765 91.272 202.072 91.272ZM201.988 104.852C203.108 104.852 204.116 104.591 205.012 104.068C205.908 103.545 206.608 102.817 207.112 101.884C207.634 100.951 207.896 99.8867 207.896 98.692C207.896 97.4973 207.634 96.4333 207.112 95.5C206.608 94.5667 205.908 93.8387 205.012 93.316C204.116 92.7933 203.108 92.532 201.988 92.532C200.868 92.532 199.86 92.7933 198.964 93.316C198.086 93.8387 197.386 94.5667 196.864 95.5C196.36 96.4333 196.108 97.4973 196.108 98.692C196.108 99.8867 196.36 100.951 196.864 101.884C197.386 102.817 198.086 103.545 198.964 104.068C199.86 104.591 200.868 104.852 201.988 104.852ZM219.952 106.112C218.571 106.112 217.32 105.795 216.2 105.16C215.099 104.525 214.231 103.648 213.596 102.528C212.962 101.389 212.644 100.111 212.644 98.692C212.644 97.2733 212.962 96.004 213.596 94.884C214.231 93.7453 215.099 92.8587 216.2 92.224C217.32 91.5893 218.571 91.272 219.952 91.272C221.334 91.272 222.575 91.5893 223.676 92.224C224.796 92.8587 225.674 93.7453 226.308 94.884C226.943 96.004 227.26 97.2733 227.26 98.692C227.26 100.111 226.943 101.389 226.308 102.528C225.674 103.648 224.796 104.525 223.676 105.16C222.575 105.795 221.334 106.112 219.952 106.112ZM219.952 104.852C221.072 104.852 222.071 104.591 222.948 104.068C223.844 103.545 224.544 102.817 225.048 101.884C225.571 100.951 225.832 99.8867 225.832 98.692C225.832 97.4973 225.571 96.4333 225.048 95.5C224.544 94.5667 223.844 93.8387 222.948 93.316C222.071 92.7933 221.072 92.532 219.952 92.532C218.832 92.532 217.824 92.7933 216.928 93.316C216.051 93.8387 215.351 94.5667 214.828 95.5C214.324 96.4333 214.072 97.4973 214.072 98.692C214.072 99.8867 214.324 100.951 214.828 101.884C215.351 102.817 216.051 103.545 216.928 104.068C217.824 104.591 218.832 104.852 219.952 104.852ZM240.752 98.468C242.898 98.8413 243.972 100.045 243.972 102.08C243.972 103.349 243.505 104.32 242.572 104.992C241.657 105.664 240.276 106 238.428 106H232.1V91.384H238.26C239.884 91.384 241.153 91.7107 242.068 92.364C243.001 92.9987 243.468 93.9133 243.468 95.108C243.468 95.9667 243.225 96.6853 242.74 97.264C242.273 97.824 241.61 98.2253 240.752 98.468ZM233.472 98.048H238.176C239.426 98.048 240.388 97.8147 241.06 97.348C241.732 96.8627 242.068 96.172 242.068 95.276C242.068 94.3613 241.732 93.68 241.06 93.232C240.406 92.7653 239.445 92.532 238.176 92.532H233.472V98.048ZM238.4 104.852C241.181 104.852 242.572 103.909 242.572 102.024C242.572 101.035 242.254 100.307 241.62 99.84C240.985 99.3733 239.986 99.14 238.624 99.14H233.472V104.852H238.4ZM255.048 106.112C253.666 106.112 252.416 105.795 251.296 105.16C250.194 104.525 249.326 103.648 248.692 102.528C248.057 101.389 247.74 100.111 247.74 98.692C247.74 97.2733 248.057 96.004 248.692 94.884C249.326 93.7453 250.194 92.8587 251.296 92.224C252.416 91.5893 253.666 91.272 255.048 91.272C256.429 91.272 257.67 91.5893 258.772 92.224C259.892 92.8587 260.769 93.7453 261.404 94.884C262.038 96.004 262.356 97.2733 262.356 98.692C262.356 100.111 262.038 101.389 261.404 102.528C260.769 103.648 259.892 104.525 258.772 105.16C257.67 105.795 256.429 106.112 255.048 106.112ZM255.048 104.852C256.168 104.852 257.166 104.591 258.044 104.068C258.94 103.545 259.64 102.817 260.144 101.884C260.666 100.951 260.928 99.8867 260.928 98.692C260.928 97.4973 260.666 96.4333 260.144 95.5C259.64 94.5667 258.94 93.8387 258.044 93.316C257.166 92.7933 256.168 92.532 255.048 92.532C253.928 92.532 252.92 92.7933 252.024 93.316C251.146 93.8387 250.446 94.5667 249.924 95.5C249.42 96.4333 249.168 97.4973 249.168 98.692C249.168 99.8867 249.42 100.951 249.924 101.884C250.446 102.817 251.146 103.545 252.024 104.068C252.92 104.591 253.928 104.852 255.048 104.852ZM279.079 99.224H275.635V106H274.235V99.224H270.819L265.947 106H264.239L269.699 98.496L264.687 91.384H266.227L270.819 98.02H274.235V91.384H275.635V98.02H279.079L283.671 91.384H285.211L280.199 98.496L285.631 106H283.951L279.079 99.224ZM303.289 104.768V109.64H301.973V106H288.141V109.64H286.797V104.768H287.665C288.655 104.712 289.327 103.947 289.681 102.472C290.055 100.979 290.316 98.888 290.465 96.2L290.661 91.384H300.937V104.768H303.289ZM291.753 96.284C291.66 98.5053 291.473 100.353 291.193 101.828C290.913 103.303 290.409 104.283 289.681 104.768H299.537V92.644H291.921L291.753 96.284ZM320.164 99.028H307.592C307.629 100.167 307.919 101.184 308.46 102.08C309.001 102.957 309.729 103.639 310.644 104.124C311.577 104.609 312.623 104.852 313.78 104.852C314.732 104.852 315.609 104.684 316.412 104.348C317.233 103.993 317.915 103.48 318.456 102.808L319.268 103.732C318.633 104.497 317.831 105.085 316.86 105.496C315.908 105.907 314.872 106.112 313.752 106.112C312.296 106.112 310.999 105.795 309.86 105.16C308.721 104.525 307.825 103.648 307.172 102.528C306.537 101.408 306.22 100.129 306.22 98.692C306.22 97.2733 306.519 96.004 307.116 94.884C307.732 93.7453 308.572 92.8587 309.636 92.224C310.7 91.5893 311.895 91.272 313.22 91.272C314.545 91.272 315.731 91.5893 316.776 92.224C317.84 92.84 318.671 93.708 319.268 94.828C319.884 95.948 320.192 97.2173 320.192 98.636L320.164 99.028ZM313.22 92.504C312.193 92.504 311.269 92.7373 310.448 93.204C309.627 93.652 308.964 94.296 308.46 95.136C307.975 95.9573 307.695 96.8907 307.62 97.936H318.82C318.764 96.8907 318.484 95.9573 317.98 95.136C317.476 94.3147 316.813 93.6707 315.992 93.204C315.171 92.7373 314.247 92.504 313.22 92.504ZM325.047 91.384H326.447V98.048H336.359V91.384H337.759V106H336.359V99.28H326.447V106H325.047V91.384ZM344.084 91.384H345.484V103.844L355.9 91.384H357.132V106H355.732V93.54L345.316 106H344.084V91.384ZM375.91 99.028H363.338C363.376 100.167 363.665 101.184 364.206 102.08C364.748 102.957 365.476 103.639 366.39 104.124C367.324 104.609 368.369 104.852 369.526 104.852C370.478 104.852 371.356 104.684 372.158 104.348C372.98 103.993 373.661 103.48 374.202 102.808L375.014 103.732C374.38 104.497 373.577 105.085 372.606 105.496C371.654 105.907 370.618 106.112 369.498 106.112C368.042 106.112 366.745 105.795 365.606 105.16C364.468 104.525 363.572 103.648 362.918 102.528C362.284 101.408 361.966 100.129 361.966 98.692C361.966 97.2733 362.265 96.004 362.862 94.884C363.478 93.7453 364.318 92.8587 365.382 92.224C366.446 91.5893 367.641 91.272 368.966 91.272C370.292 91.272 371.477 91.5893 372.522 92.224C373.586 92.84 374.417 93.708 375.014 94.828C375.63 95.948 375.938 97.2173 375.938 98.636L375.91 99.028ZM368.966 92.504C367.94 92.504 367.016 92.7373 366.194 93.204C365.373 93.652 364.71 94.296 364.206 95.136C363.721 95.9573 363.441 96.8907 363.366 97.936H374.566C374.51 96.8907 374.23 95.9573 373.726 95.136C373.222 94.3147 372.56 93.6707 371.738 93.204C370.917 92.7373 369.993 92.504 368.966 92.504Z" fill="white"/>
<g filter="url(#filter2_d_396_113131)">
<circle cx="72.7017" cy="72.7017" r="41.99" fill="#FA6334" stroke="#FB906F" stroke-width="1.42339"/>
<path d="M82.7678 88.0468L88.8997 94.1437L89.9523 95.1902V88.0468H93.5445C94.4972 88.0468 95.4109 87.6705 96.0846 87.0007C96.7583 86.3309 97.1367 85.4224 97.1367 84.4751V73.76C97.1367 72.8128 96.7583 71.9043 96.0846 71.2345C95.4109 70.5647 94.4972 70.1884 93.5445 70.1884H75.5833C74.6306 70.1884 73.7169 70.5647 73.0432 71.2345C72.3696 71.9043 71.9911 72.8128 71.9911 73.76V84.4751C71.9911 85.4224 72.3696 86.3309 73.0432 87.0007C73.7169 87.6705 74.6306 88.0468 75.5833 88.0468H82.7678Z" stroke="white" stroke-width="2.13508" stroke-linecap="round" stroke-linejoin="round"/>
<ellipse cx="79.0153" cy="80.541" rx="1.14229" ry="1.20893" fill="white"/>
<ellipse cx="84.154" cy="80.541" rx="1.14229" ry="1.20893" fill="white"/>
<ellipse cx="89.2966" cy="80.541" rx="1.14229" ry="1.20893" fill="white"/>
<path d="M70.4184 77.3982H68.8338L60.5814 85.6034L59.1649 87.0118V77.3982H54.3305C53.0483 77.3982 51.8187 76.8918 50.9121 75.9903C50.0054 75.0889 49.4961 73.8662 49.4961 72.5914V58.171C49.4961 56.8962 50.0054 55.6736 50.9121 54.7721C51.8187 53.8707 53.0483 53.3643 54.3305 53.3643H78.5026C79.7848 53.3643 81.0145 53.8707 81.9211 54.7721C82.8277 55.6736 83.3371 56.8962 83.3371 58.171V69.7428" stroke="white" stroke-width="2.13508" stroke-linecap="round" stroke-linejoin="round"/>
<path d="M61.9121 63.0291C62.5486 61.7357 64.2657 60.8086 66.2853 60.8086C68.8475 60.8086 70.9228 62.2997 70.9228 64.1393C70.9228 65.6937 69.4411 66.9982 67.4377 67.3668C66.8093 67.4823 66.2853 67.9664 66.2853 68.5803M66.2853 71.9111H66.2969" stroke="white" stroke-width="2.13508" stroke-linecap="round" stroke-linejoin="round"/>
</g>
<g filter="url(#filter3_d_396_113131)">
<path d="M361.477 214.197C361.477 207.459 355.618 202 348.39 202H62.0831C54.8554 202 48.9992 207.459 48.9992 214.197V250.117C48.9992 256.855 54.8554 262.318 62.0831 262.318H361.477V214.197Z" fill="url(#paint2_linear_396_113131)" fill-opacity="0.45"/>
<path d="M360.717 214.197C360.717 207.88 355.208 202.76 348.413 202.76H61.303C54.5085 202.76 49 207.88 49 214.197V250.117C49 256.433 54.5085 261.554 61.303 261.554H360.717V214.197Z" stroke="white" stroke-opacity="0.08" stroke-width="1.52478"/>
<path d="M360.717 214.197C360.717 207.88 355.208 202.76 348.413 202.76H61.303C54.5085 202.76 49 207.88 49 214.197V250.117C49 256.433 54.5085 261.554 61.303 261.554H360.717V214.197Z" stroke="#FA6334" stroke-width="1.52478"/>
<path d="M360.717 214.197C360.717 207.88 355.208 202.76 348.413 202.76H61.303C54.5085 202.76 49 207.88 49 214.197V250.117C49 256.433 54.5085 261.554 61.303 261.554H360.717V214.197Z" stroke="url(#paint3_radial_396_113131)" stroke-opacity="0.6" stroke-width="2.11286"/>
<g filter="url(#filter4_d_396_113131)">
<path d="M65.0718 239.656V224.256H66.8758L73.7838 235.894H72.8158L79.6358 224.256H81.4398L81.4618 239.656H79.3498L79.3278 227.578H79.8338L73.7618 237.786H72.7498L66.6338 227.578H67.1838V239.656H65.0718ZM90.8974 239.788C89.7241 239.788 88.6828 239.532 87.7734 239.018C86.8641 238.505 86.1454 237.801 85.6174 236.906C85.0894 235.997 84.8254 234.97 84.8254 233.826C84.8254 232.668 85.0894 231.641 85.6174 230.746C86.1454 229.852 86.8641 229.155 87.7734 228.656C88.6828 228.143 89.7241 227.886 90.8974 227.886C92.0561 227.886 93.0901 228.143 93.9994 228.656C94.9234 229.155 95.6421 229.852 96.1554 230.746C96.6834 231.626 96.9474 232.653 96.9474 233.826C96.9474 234.985 96.6834 236.012 96.1554 236.906C95.6421 237.801 94.9234 238.505 93.9994 239.018C93.0901 239.532 92.0561 239.788 90.8974 239.788ZM90.8974 237.94C91.6454 237.94 92.3128 237.772 92.8994 237.434C93.5008 237.097 93.9701 236.62 94.3074 236.004C94.6448 235.374 94.8134 234.648 94.8134 233.826C94.8134 232.99 94.6448 232.272 94.3074 231.67C93.9701 231.054 93.5008 230.578 92.8994 230.24C92.3128 229.903 91.6454 229.734 90.8974 229.734C90.1494 229.734 89.4821 229.903 88.8954 230.24C88.3088 230.578 87.8394 231.054 87.4874 231.67C87.1354 232.272 86.9594 232.99 86.9594 233.826C86.9594 234.648 87.1354 235.374 87.4874 236.004C87.8394 236.62 88.3088 237.097 88.8954 237.434C89.4821 237.772 90.1494 237.94 90.8974 237.94ZM99.9972 239.656V227.996H108.577V229.844H101.603L102.109 229.36V239.656H99.9972ZM108.051 239.634L108.183 237.852C108.286 237.867 108.381 237.882 108.469 237.896C108.557 237.911 108.638 237.918 108.711 237.918C109.181 237.918 109.547 237.757 109.811 237.434C110.09 237.112 110.295 236.686 110.427 236.158C110.559 235.616 110.655 235.007 110.713 234.332C110.772 233.658 110.816 232.983 110.845 232.308L111.043 227.996H119.997V239.656H117.885V229.228L118.391 229.844H112.407L112.891 229.206L112.737 232.44C112.693 233.467 112.613 234.428 112.495 235.322C112.378 236.217 112.195 237.002 111.945 237.676C111.711 238.351 111.381 238.879 110.955 239.26C110.545 239.642 110.009 239.832 109.349 239.832C109.159 239.832 108.953 239.81 108.733 239.766C108.528 239.737 108.301 239.693 108.051 239.634ZM124.081 239.656V227.996H126.193V236.488L133.343 227.996H135.257V239.656H133.145V231.164L126.017 239.656H124.081ZM150.655 239.832C149.687 239.832 148.829 239.678 148.081 239.37C147.347 239.062 146.717 238.608 146.189 238.006C145.661 237.39 145.257 236.62 144.979 235.696C144.715 234.758 144.583 233.658 144.583 232.396C144.583 231.399 144.671 230.504 144.847 229.712C145.023 228.92 145.272 228.216 145.595 227.6C145.932 226.984 146.343 226.449 146.827 225.994C147.325 225.54 147.883 225.166 148.499 224.872C149.129 224.564 149.819 224.33 150.567 224.168L155.891 222.98L156.199 224.938L151.293 225.994C150.999 226.053 150.647 226.141 150.237 226.258C149.826 226.376 149.408 226.559 148.983 226.808C148.557 227.043 148.161 227.373 147.795 227.798C147.428 228.224 147.135 228.781 146.915 229.47C146.695 230.145 146.585 230.981 146.585 231.978C146.585 232.257 146.592 232.47 146.607 232.616C146.621 232.763 146.636 232.91 146.651 233.056C146.68 233.203 146.702 233.423 146.717 233.716L145.837 232.814C146.071 232.008 146.445 231.304 146.959 230.702C147.472 230.101 148.088 229.639 148.807 229.316C149.54 228.979 150.339 228.81 151.205 228.81C152.29 228.81 153.251 229.045 154.087 229.514C154.937 229.984 155.605 230.629 156.089 231.45C156.573 232.272 156.815 233.21 156.815 234.266C156.815 235.337 156.558 236.298 156.045 237.148C155.546 237.984 154.835 238.644 153.911 239.128C152.987 239.598 151.901 239.832 150.655 239.832ZM150.853 238.072C151.601 238.072 152.261 237.911 152.833 237.588C153.405 237.251 153.852 236.804 154.175 236.246C154.497 235.674 154.659 235.036 154.659 234.332C154.659 233.628 154.497 233.005 154.175 232.462C153.852 231.92 153.405 231.494 152.833 231.186C152.261 230.864 151.586 230.702 150.809 230.702C150.075 230.702 149.415 230.856 148.829 231.164C148.242 231.458 147.787 231.876 147.465 232.418C147.142 232.946 146.981 233.562 146.981 234.266C146.981 234.97 147.142 235.616 147.465 236.202C147.802 236.774 148.257 237.229 148.829 237.566C149.415 237.904 150.09 238.072 150.853 238.072ZM171.359 239.656V227.996H173.471V239.656H171.359ZM165.089 231.956C166.57 231.971 167.692 232.308 168.455 232.968C169.232 233.628 169.621 234.56 169.621 235.762C169.621 237.024 169.196 237.999 168.345 238.688C167.509 239.363 166.306 239.693 164.737 239.678L159.831 239.656V227.996H161.943V231.934L165.089 231.956ZM164.583 238.072C165.522 238.087 166.24 237.896 166.739 237.5C167.238 237.104 167.487 236.518 167.487 235.74C167.487 234.978 167.238 234.42 166.739 234.068C166.255 233.716 165.536 233.533 164.583 233.518L161.943 233.474V238.05L164.583 238.072ZM183.485 239.656V227.996H185.663L190.679 236.62H189.799L194.947 227.996H196.927V239.656H195.013V230.372L195.365 230.57L190.657 238.336H189.733L185.003 230.416L185.421 230.328V239.656H183.485ZM201.038 239.656V227.996H203.15V232.946H209.794V227.996H211.906V239.656H209.794V234.772H203.15V239.656H201.038ZM221.205 239.788C219.958 239.788 218.858 239.532 217.905 239.018C216.966 238.505 216.233 237.801 215.705 236.906C215.191 236.012 214.935 234.985 214.935 233.826C214.935 232.668 215.184 231.641 215.683 230.746C216.196 229.852 216.893 229.155 217.773 228.656C218.667 228.143 219.672 227.886 220.787 227.886C221.916 227.886 222.913 228.136 223.779 228.634C224.644 229.133 225.319 229.837 225.803 230.746C226.301 231.641 226.551 232.69 226.551 233.892C226.551 233.98 226.543 234.083 226.529 234.2C226.529 234.318 226.521 234.428 226.507 234.53H216.585V233.012H225.407L224.549 233.54C224.563 232.792 224.409 232.125 224.087 231.538C223.764 230.952 223.317 230.497 222.745 230.174C222.187 229.837 221.535 229.668 220.787 229.668C220.053 229.668 219.401 229.837 218.829 230.174C218.257 230.497 217.809 230.959 217.487 231.56C217.164 232.147 217.003 232.822 217.003 233.584V233.936C217.003 234.714 217.179 235.41 217.531 236.026C217.897 236.628 218.403 237.097 219.049 237.434C219.694 237.772 220.435 237.94 221.271 237.94C221.96 237.94 222.583 237.823 223.141 237.588C223.713 237.354 224.211 237.002 224.637 236.532L225.803 237.896C225.275 238.512 224.615 238.982 223.823 239.304C223.045 239.627 222.173 239.788 221.205 239.788ZM235.735 239.656V227.996H246.537V239.656H244.425V229.316L244.931 229.844H237.341L237.847 229.316V239.656H235.735ZM255.618 239.788C254.445 239.788 253.403 239.532 252.494 239.018C251.585 238.505 250.866 237.801 250.338 236.906C249.81 235.997 249.546 234.97 249.546 233.826C249.546 232.668 249.81 231.641 250.338 230.746C250.866 229.852 251.585 229.155 252.494 228.656C253.403 228.143 254.445 227.886 255.618 227.886C256.777 227.886 257.811 228.143 258.72 228.656C259.644 229.155 260.363 229.852 260.876 230.746C261.404 231.626 261.668 232.653 261.668 233.826C261.668 234.985 261.404 236.012 260.876 236.906C260.363 237.801 259.644 238.505 258.72 239.018C257.811 239.532 256.777 239.788 255.618 239.788ZM255.618 237.94C256.366 237.94 257.033 237.772 257.62 237.434C258.221 237.097 258.691 236.62 259.028 236.004C259.365 235.374 259.534 234.648 259.534 233.826C259.534 232.99 259.365 232.272 259.028 231.67C258.691 231.054 258.221 230.578 257.62 230.24C257.033 229.903 256.366 229.734 255.618 229.734C254.87 229.734 254.203 229.903 253.616 230.24C253.029 230.578 252.56 231.054 252.208 231.67C251.856 232.272 251.68 232.99 251.68 233.826C251.68 234.648 251.856 235.374 252.208 236.004C252.56 236.62 253.029 237.097 253.616 237.434C254.203 237.772 254.87 237.94 255.618 237.94ZM264.718 239.656V227.996H266.896L271.912 236.62H271.032L276.18 227.996H278.16V239.656H276.246V230.372L276.598 230.57L271.89 238.336H270.966L266.236 230.416L266.654 230.328V239.656H264.718ZM287.265 239.788C286.091 239.788 285.05 239.532 284.141 239.018C283.231 238.505 282.513 237.801 281.985 236.906C281.457 235.997 281.193 234.97 281.193 233.826C281.193 232.668 281.457 231.641 281.985 230.746C282.513 229.852 283.231 229.155 284.141 228.656C285.05 228.143 286.091 227.886 287.265 227.886C288.423 227.886 289.457 228.143 290.367 228.656C291.291 229.155 292.009 229.852 292.523 230.746C293.051 231.626 293.315 232.653 293.315 233.826C293.315 234.985 293.051 236.012 292.523 236.906C292.009 237.801 291.291 238.505 290.367 239.018C289.457 239.532 288.423 239.788 287.265 239.788ZM287.265 237.94C288.013 237.94 288.68 237.772 289.267 237.434C289.868 237.097 290.337 236.62 290.675 236.004C291.012 235.374 291.181 234.648 291.181 233.826C291.181 232.99 291.012 232.272 290.675 231.67C290.337 231.054 289.868 230.578 289.267 230.24C288.68 229.903 288.013 229.734 287.265 229.734C286.517 229.734 285.849 229.903 285.263 230.24C284.676 230.578 284.207 231.054 283.855 231.67C283.503 232.272 283.327 232.99 283.327 233.826C283.327 234.648 283.503 235.374 283.855 236.004C284.207 236.62 284.676 237.097 285.263 237.434C285.849 237.772 286.517 237.94 287.265 237.94ZM303.712 234.882C303.096 235.176 302.458 235.41 301.798 235.586C301.153 235.748 300.486 235.828 299.796 235.828C298.388 235.828 297.274 235.498 296.452 234.838C295.646 234.178 295.242 233.159 295.242 231.78V227.996H297.354V231.648C297.354 232.484 297.611 233.1 298.124 233.496C298.652 233.892 299.356 234.09 300.236 234.09C300.794 234.09 301.366 234.017 301.952 233.87C302.554 233.724 303.14 233.518 303.712 233.254V234.882ZM303.558 239.656V227.996H305.67V239.656H303.558ZM315.161 231.956C316.642 231.971 317.771 232.308 318.549 232.968C319.326 233.628 319.715 234.56 319.715 235.762C319.715 237.024 319.289 237.999 318.439 238.688C317.588 239.363 316.385 239.693 314.831 239.678L309.771 239.656V227.996H311.883V231.934L315.161 231.956ZM314.655 238.072C315.608 238.087 316.327 237.896 316.811 237.5C317.309 237.104 317.559 236.518 317.559 235.74C317.559 234.978 317.317 234.42 316.833 234.068C316.349 233.716 315.623 233.533 314.655 233.518L311.883 233.474V238.05L314.655 238.072ZM324.45 234.794C324.45 234.222 324.545 233.724 324.736 233.298C324.926 232.873 325.161 232.492 325.44 232.154C325.733 231.817 326.048 231.509 326.386 231.23C326.723 230.937 327.038 230.651 327.332 230.372C327.625 230.079 327.86 229.771 328.036 229.448C328.226 229.126 328.322 228.752 328.322 228.326C328.322 227.622 328.043 227.05 327.486 226.61C326.928 226.17 326.158 225.95 325.176 225.95C324.296 225.95 323.533 226.097 322.888 226.39C322.242 226.684 321.692 227.116 321.238 227.688L319.632 226.544C320.248 225.767 321.032 225.166 321.986 224.74C322.939 224.3 324.054 224.08 325.33 224.08C326.386 224.08 327.302 224.242 328.08 224.564C328.857 224.872 329.458 225.32 329.884 225.906C330.324 226.478 330.544 227.175 330.544 227.996C330.544 228.612 330.448 229.14 330.258 229.58C330.067 230.02 329.825 230.409 329.532 230.746C329.238 231.084 328.923 231.399 328.586 231.692C328.263 231.986 327.955 232.279 327.662 232.572C327.368 232.866 327.126 233.188 326.936 233.54C326.745 233.892 326.65 234.31 326.65 234.794H324.45ZM325.572 239.788C325.161 239.788 324.816 239.649 324.538 239.37C324.274 239.092 324.142 238.762 324.142 238.38C324.142 237.97 324.274 237.632 324.538 237.368C324.816 237.104 325.161 236.972 325.572 236.972C325.982 236.972 326.32 237.104 326.584 237.368C326.848 237.632 326.98 237.97 326.98 238.38C326.98 238.762 326.848 239.092 326.584 239.37C326.32 239.649 325.982 239.788 325.572 239.788Z" fill="#FA6334"/>
</g>
<path d="M360.823 289C360.823 299.213 352.472 307.5 342.162 307.5C331.851 307.5 323.5 299.213 323.5 289C323.5 278.787 331.851 270.5 342.162 270.5C352.472 270.5 360.823 278.787 360.823 289Z" fill="#2C2C33" stroke="#D5B563"/>
<path d="M350.872 298.346V296.197C350.872 295.056 350.427 293.963 349.636 293.157C348.845 292.35 347.772 291.897 346.654 291.897H338.218C337.099 291.897 336.026 292.35 335.235 293.157C334.444 293.963 334 295.056 334 296.197V298.346" stroke="#D5B563" stroke-linecap="round" stroke-linejoin="round"/>
<path d="M342.435 287.598C344.764 287.598 346.653 285.673 346.653 283.299C346.653 280.925 344.764 279 342.435 279C340.105 279 338.217 280.925 338.217 283.299C338.217 285.673 340.105 287.598 342.435 287.598Z" stroke="#D5B563" stroke-linecap="round" stroke-linejoin="round"/>
</g>
<path d="M271.272 288.46H269.712V292H268.176V283.6H269.712V287.116H271.32L273.732 283.6H275.388L272.52 287.668L275.496 292H273.732L271.272 288.46ZM282.359 285.592V292H280.859V286.864H278.459L278.399 288.136C278.359 288.984 278.279 289.696 278.159 290.272C278.047 290.84 277.851 291.292 277.571 291.628C277.299 291.956 276.923 292.12 276.443 292.12C276.219 292.12 275.943 292.076 275.615 291.988L275.687 290.728C275.799 290.752 275.895 290.764 275.975 290.764C276.279 290.764 276.507 290.644 276.659 290.404C276.811 290.156 276.907 289.864 276.947 289.528C276.995 289.184 277.035 288.696 277.067 288.064L277.175 285.592H282.359ZM284.379 285.592H285.879V289.816L289.419 285.592H290.787V292H289.287V287.776L285.759 292H284.379V285.592ZM298.805 288.832C298.805 288.936 298.797 289.084 298.781 289.276H293.753C293.841 289.748 294.069 290.124 294.437 290.404C294.813 290.676 295.277 290.812 295.829 290.812C296.533 290.812 297.113 290.58 297.569 290.116L298.373 291.04C298.085 291.384 297.721 291.644 297.281 291.82C296.841 291.996 296.345 292.084 295.793 292.084C295.089 292.084 294.469 291.944 293.933 291.664C293.397 291.384 292.981 290.996 292.685 290.5C292.397 289.996 292.253 289.428 292.253 288.796C292.253 288.172 292.393 287.612 292.673 287.116C292.961 286.612 293.357 286.22 293.861 285.94C294.365 285.66 294.933 285.52 295.565 285.52C296.189 285.52 296.745 285.66 297.233 285.94C297.729 286.212 298.113 286.6 298.385 287.104C298.665 287.6 298.805 288.176 298.805 288.832ZM295.565 286.72C295.085 286.72 294.677 286.864 294.341 287.152C294.013 287.432 293.813 287.808 293.741 288.28H297.377C297.313 287.816 297.117 287.44 296.789 287.152C296.461 286.864 296.053 286.72 295.565 286.72ZM300.446 285.592H301.946V288.196H305.174V285.592H306.674V292H305.174V289.468H301.946V292H300.446V285.592ZM313.76 286.864H311.516V292H310.016V286.864H307.76V285.592H313.76V286.864Z" fill="white"/>
<g filter="url(#filter5_d_396_113131)">
<path d="M49 338.197C49 331.459 54.4617 326 61.1993 326H346.095C352.833 326 358.292 331.459 358.292 338.197V374.117C358.292 380.855 352.833 386.318 346.095 386.318H49V338.197Z" fill="url(#paint4_linear_396_113131)" fill-opacity="0.45"/>
<path d="M49.7617 338.197C49.7617 331.88 54.8823 326.76 61.1988 326.76H347.094C353.411 326.76 358.531 331.88 358.531 338.197V374.117C358.531 380.433 353.411 385.554 347.094 385.554H49.7617V338.197Z" stroke="white" stroke-opacity="0.08" stroke-width="1.52478"/>
<path d="M49.7617 338.197C49.7617 331.88 54.8823 326.76 61.1988 326.76H348.094C354.411 326.76 359.531 331.88 359.531 338.197V374.117C359.531 380.433 354.411 385.554 348.094 385.554H49.7617V338.197Z" stroke="url(#paint5_linear_396_113131)" stroke-opacity="0.18" stroke-width="1.52478"/>
<path d="M74.8127 363.555L69.2247 355.965L71.0067 354.865L77.3207 363.555H74.8127ZM64.4507 363.555V348.155H66.6067V363.555H64.4507ZM65.9467 356.779V354.843H70.9407V356.779H65.9467ZM71.2047 356.097L69.1807 355.789L74.7027 348.155H77.0567L71.2047 356.097ZM84.0673 363.687C82.894 363.687 81.8527 363.43 80.9433 362.917C80.034 362.403 79.3153 361.699 78.7873 360.805C78.2593 359.895 77.9953 358.869 77.9953 357.725C77.9953 356.566 78.2593 355.539 78.7873 354.645C79.3153 353.75 80.034 353.053 80.9433 352.555C81.8527 352.041 82.894 351.785 84.0673 351.785C85.226 351.785 86.26 352.041 87.1693 352.555C88.0933 353.053 88.812 353.75 89.3253 354.645C89.8533 355.525 90.1173 356.551 90.1173 357.725C90.1173 358.883 89.8533 359.91 89.3253 360.805C88.812 361.699 88.0933 362.403 87.1693 362.917C86.26 363.43 85.226 363.687 84.0673 363.687ZM84.0673 361.839C84.8153 361.839 85.4827 361.67 86.0693 361.333C86.6707 360.995 87.14 360.519 87.4773 359.903C87.8147 359.272 87.9833 358.546 87.9833 357.725C87.9833 356.889 87.8147 356.17 87.4773 355.569C87.14 354.953 86.6707 354.476 86.0693 354.139C85.4827 353.801 84.8153 353.633 84.0673 353.633C83.3193 353.633 82.652 353.801 82.0653 354.139C81.4787 354.476 81.0093 354.953 80.6573 355.569C80.3053 356.17 80.1293 356.889 80.1293 357.725C80.1293 358.546 80.3053 359.272 80.6573 359.903C81.0093 360.519 81.4787 360.995 82.0653 361.333C82.652 361.67 83.3193 361.839 84.0673 361.839ZM93.1671 363.555V351.895H95.2791V356.845H101.923V351.895H104.035V363.555H101.923V358.671H95.2791V363.555H93.1671ZM113.334 363.687C112.087 363.687 110.987 363.43 110.034 362.917C109.095 362.403 108.362 361.699 107.834 360.805C107.32 359.91 107.064 358.883 107.064 357.725C107.064 356.566 107.313 355.539 107.812 354.645C108.325 353.75 109.022 353.053 109.902 352.555C110.796 352.041 111.801 351.785 112.916 351.785C114.045 351.785 115.042 352.034 115.908 352.533C116.773 353.031 117.448 353.735 117.932 354.645C118.43 355.539 118.68 356.588 118.68 357.791C118.68 357.879 118.672 357.981 118.658 358.099C118.658 358.216 118.65 358.326 118.636 358.429H108.714V356.911H117.536L116.678 357.439C116.692 356.691 116.538 356.023 116.216 355.437C115.893 354.85 115.446 354.395 114.874 354.073C114.316 353.735 113.664 353.567 112.916 353.567C112.182 353.567 111.53 353.735 110.958 354.073C110.386 354.395 109.938 354.857 109.616 355.459C109.293 356.045 109.132 356.72 109.132 357.483V357.835C109.132 358.612 109.308 359.309 109.66 359.925C110.026 360.526 110.532 360.995 111.178 361.333C111.823 361.67 112.564 361.839 113.4 361.839C114.089 361.839 114.712 361.721 115.27 361.487C115.842 361.252 116.34 360.9 116.766 360.431L117.932 361.795C117.404 362.411 116.744 362.88 115.952 363.203C115.174 363.525 114.302 363.687 113.334 363.687ZM129.304 358.781C128.688 359.074 128.05 359.309 127.39 359.485C126.745 359.646 126.077 359.727 125.388 359.727C123.98 359.727 122.865 359.397 122.044 358.737C121.237 358.077 120.834 357.057 120.834 355.679V351.895H122.946V355.547C122.946 356.383 123.203 356.999 123.716 357.395C124.244 357.791 124.948 357.989 125.828 357.989C126.385 357.989 126.957 357.915 127.544 357.769C128.145 357.622 128.732 357.417 129.304 357.153V358.781ZM129.15 363.555V351.895H131.262V363.555H129.15ZM135.362 363.555V351.895H137.474V356.845H144.118V351.895H146.23V363.555H144.118V358.671H137.474V363.555H135.362ZM155.331 363.687C154.158 363.687 153.116 363.43 152.207 362.917C151.298 362.403 150.579 361.699 150.051 360.805C149.523 359.895 149.259 358.869 149.259 357.725C149.259 356.566 149.523 355.539 150.051 354.645C150.579 353.75 151.298 353.053 152.207 352.555C153.116 352.041 154.158 351.785 155.331 351.785C156.49 351.785 157.524 352.041 158.433 352.555C159.357 353.053 160.076 353.75 160.589 354.645C161.117 355.525 161.381 356.551 161.381 357.725C161.381 358.883 161.117 359.91 160.589 360.805C160.076 361.699 159.357 362.403 158.433 362.917C157.524 363.43 156.49 363.687 155.331 363.687ZM155.331 361.839C156.079 361.839 156.746 361.67 157.333 361.333C157.934 360.995 158.404 360.519 158.741 359.903C159.078 359.272 159.247 358.546 159.247 357.725C159.247 356.889 159.078 356.17 158.741 355.569C158.404 354.953 157.934 354.476 157.333 354.139C156.746 353.801 156.079 353.633 155.331 353.633C154.583 353.633 153.916 353.801 153.329 354.139C152.742 354.476 152.273 354.953 151.921 355.569C151.569 356.17 151.393 356.889 151.393 357.725C151.393 358.546 151.569 359.272 151.921 359.903C152.273 360.519 152.742 360.995 153.329 361.333C153.916 361.67 154.583 361.839 155.331 361.839ZM164.635 363.687C164.224 363.687 163.872 363.547 163.579 363.269C163.286 362.975 163.139 362.609 163.139 362.169C163.139 361.729 163.286 361.369 163.579 361.091C163.872 360.812 164.224 360.673 164.635 360.673C165.031 360.673 165.368 360.812 165.647 361.091C165.94 361.369 166.087 361.729 166.087 362.169C166.087 362.609 165.94 362.975 165.647 363.269C165.368 363.547 165.031 363.687 164.635 363.687ZM175.418 363.555V348.155H185.516L185.494 350.069H177.046L177.574 349.519L177.596 363.555H175.418ZM192.311 362.565V353.743H187.251L187.141 355.987C187.111 356.72 187.06 357.431 186.987 358.121C186.928 358.795 186.825 359.419 186.679 359.991C186.547 360.563 186.349 361.032 186.085 361.399C185.821 361.765 185.469 361.993 185.029 362.081L182.939 361.707C183.393 361.721 183.76 361.575 184.039 361.267C184.317 360.944 184.53 360.504 184.677 359.947C184.838 359.389 184.955 358.759 185.029 358.055C185.102 357.336 185.161 356.595 185.205 355.833L185.381 351.895H194.423V362.565H192.311ZM182.477 366.261V361.707H196.205V366.261H194.225V363.555H184.479V366.261H182.477ZM204.148 363.687C202.901 363.687 201.801 363.43 200.848 362.917C199.909 362.403 199.176 361.699 198.648 360.805C198.135 359.91 197.878 358.883 197.878 357.725C197.878 356.566 198.127 355.539 198.626 354.645C199.139 353.75 199.836 353.053 200.716 352.555C201.611 352.041 202.615 351.785 203.73 351.785C204.859 351.785 205.857 352.034 206.722 352.533C207.587 353.031 208.262 353.735 208.746 354.645C209.245 355.539 209.494 356.588 209.494 357.791C209.494 357.879 209.487 357.981 209.472 358.099C209.472 358.216 209.465 358.326 209.45 358.429H199.528V356.911H208.35L207.492 357.439C207.507 356.691 207.353 356.023 207.03 355.437C206.707 354.85 206.26 354.395 205.688 354.073C205.131 353.735 204.478 353.567 203.73 353.567C202.997 353.567 202.344 353.735 201.772 354.073C201.2 354.395 200.753 354.857 200.43 355.459C200.107 356.045 199.946 356.72 199.946 357.483V357.835C199.946 358.612 200.122 359.309 200.474 359.925C200.841 360.526 201.347 360.995 201.992 361.333C202.637 361.67 203.378 361.839 204.214 361.839C204.903 361.839 205.527 361.721 206.084 361.487C206.656 361.252 207.155 360.9 207.58 360.431L208.746 361.795C208.218 362.411 207.558 362.88 206.766 363.203C205.989 363.525 205.116 363.687 204.148 363.687ZM219.273 367.955C218.715 367.955 218.173 367.859 217.645 367.669C217.117 367.493 216.662 367.229 216.281 366.877L217.183 365.293C217.476 365.571 217.799 365.784 218.151 365.931C218.503 366.077 218.877 366.151 219.273 366.151C219.786 366.151 220.211 366.019 220.549 365.755C220.886 365.491 221.201 365.021 221.495 364.347L222.221 362.741L222.441 362.477L227.017 351.895H229.085L223.431 364.721C223.093 365.542 222.712 366.187 222.287 366.657C221.876 367.126 221.421 367.456 220.923 367.647C220.424 367.852 219.874 367.955 219.273 367.955ZM222.045 363.929L216.721 351.895H218.921L223.453 362.279L222.045 363.929ZM238.61 362.565V353.743H233.55L233.44 355.987C233.41 356.72 233.359 357.431 233.286 358.121C233.227 358.795 233.124 359.419 232.978 359.991C232.846 360.563 232.648 361.032 232.384 361.399C232.12 361.765 231.768 361.993 231.328 362.081L229.238 361.707C229.692 361.721 230.059 361.575 230.338 361.267C230.616 360.944 230.829 360.504 230.976 359.947C231.137 359.389 231.254 358.759 231.328 358.055C231.401 357.336 231.46 356.595 231.504 355.833L231.68 351.895H240.722V362.565H238.61ZM228.776 366.261V361.707H242.504V366.261H240.524V363.555H230.778V366.261H228.776ZM250.249 363.687C249.076 363.687 248.034 363.43 247.125 362.917C246.216 362.403 245.497 361.699 244.969 360.805C244.441 359.895 244.177 358.869 244.177 357.725C244.177 356.566 244.441 355.539 244.969 354.645C245.497 353.75 246.216 353.053 247.125 352.555C248.034 352.041 249.076 351.785 250.249 351.785C251.408 351.785 252.442 352.041 253.351 352.555C254.275 353.053 254.994 353.75 255.507 354.645C256.035 355.525 256.299 356.551 256.299 357.725C256.299 358.883 256.035 359.91 255.507 360.805C254.994 361.699 254.275 362.403 253.351 362.917C252.442 363.43 251.408 363.687 250.249 363.687ZM250.249 361.839C250.997 361.839 251.664 361.67 252.251 361.333C252.852 360.995 253.322 360.519 253.659 359.903C253.996 359.272 254.165 358.546 254.165 357.725C254.165 356.889 253.996 356.17 253.659 355.569C253.322 354.953 252.852 354.476 252.251 354.139C251.664 353.801 250.997 353.633 250.249 353.633C249.501 353.633 248.834 353.801 248.247 354.139C247.66 354.476 247.191 354.953 246.839 355.569C246.487 356.17 246.311 356.889 246.311 357.725C246.311 358.546 246.487 359.272 246.839 359.903C247.191 360.519 247.66 360.995 248.247 361.333C248.834 361.67 249.501 361.839 250.249 361.839ZM264.739 363.731C263.771 363.731 262.913 363.577 262.165 363.269C261.431 362.961 260.801 362.506 260.273 361.905C259.745 361.289 259.341 360.519 259.063 359.595C258.799 358.656 258.667 357.556 258.667 356.295C258.667 355.297 258.755 354.403 258.931 353.611C259.107 352.819 259.356 352.115 259.679 351.499C260.016 350.883 260.427 350.347 260.911 349.893C261.409 349.438 261.967 349.064 262.583 348.771C263.213 348.463 263.903 348.228 264.651 348.067L269.975 346.879L270.283 348.837L265.377 349.893C265.083 349.951 264.731 350.039 264.321 350.157C263.91 350.274 263.492 350.457 263.067 350.707C262.641 350.941 262.245 351.271 261.879 351.697C261.512 352.122 261.219 352.679 260.999 353.369C260.779 354.043 260.669 354.879 260.669 355.877C260.669 356.155 260.676 356.368 260.691 356.515C260.705 356.661 260.72 356.808 260.735 356.955C260.764 357.101 260.786 357.321 260.801 357.615L259.921 356.713C260.155 355.906 260.529 355.202 261.043 354.601C261.556 353.999 262.172 353.537 262.891 353.215C263.624 352.877 264.423 352.709 265.289 352.709C266.374 352.709 267.335 352.943 268.171 353.413C269.021 353.882 269.689 354.527 270.173 355.349C270.657 356.17 270.899 357.109 270.899 358.165C270.899 359.235 270.642 360.196 270.129 361.047C269.63 361.883 268.919 362.543 267.995 363.027C267.071 363.496 265.985 363.731 264.739 363.731ZM264.937 361.971C265.685 361.971 266.345 361.809 266.917 361.487C267.489 361.149 267.936 360.702 268.259 360.145C268.581 359.573 268.743 358.935 268.743 358.231C268.743 357.527 268.581 356.903 268.259 356.361C267.936 355.818 267.489 355.393 266.917 355.085C266.345 354.762 265.67 354.601 264.893 354.601C264.159 354.601 263.499 354.755 262.913 355.063C262.326 355.356 261.871 355.774 261.549 356.317C261.226 356.845 261.065 357.461 261.065 358.165C261.065 358.869 261.226 359.514 261.549 360.101C261.886 360.673 262.341 361.127 262.913 361.465C263.499 361.802 264.174 361.971 264.937 361.971ZM273.915 363.555V351.895H276.027V356.845H282.671V351.895H284.783V363.555H282.671V358.671H276.027V363.555H273.915ZM294.082 363.687C292.835 363.687 291.735 363.43 290.782 362.917C289.843 362.403 289.11 361.699 288.582 360.805C288.068 359.91 287.812 358.883 287.812 357.725C287.812 356.566 288.061 355.539 288.56 354.645C289.073 353.75 289.77 353.053 290.65 352.555C291.544 352.041 292.549 351.785 293.664 351.785C294.793 351.785 295.79 352.034 296.656 352.533C297.521 353.031 298.196 353.735 298.68 354.645C299.178 355.539 299.428 356.588 299.428 357.791C299.428 357.879 299.42 357.981 299.406 358.099C299.406 358.216 299.398 358.326 299.384 358.429H289.462V356.911H298.284L297.426 357.439C297.44 356.691 297.286 356.023 296.964 355.437C296.641 354.85 296.194 354.395 295.622 354.073C295.064 353.735 294.412 353.567 293.664 353.567C292.93 353.567 292.278 353.735 291.706 354.073C291.134 354.395 290.686 354.857 290.364 355.459C290.041 356.045 289.88 356.72 289.88 357.483V357.835C289.88 358.612 290.056 359.309 290.408 359.925C290.774 360.526 291.28 360.995 291.926 361.333C292.571 361.67 293.312 361.839 294.148 361.839C294.837 361.839 295.46 361.721 296.018 361.487C296.59 361.252 297.088 360.9 297.514 360.431L298.68 361.795C298.152 362.411 297.492 362.88 296.7 363.203C295.922 363.525 295.05 363.687 294.082 363.687ZM307.896 363.687C306.65 363.687 305.55 363.43 304.596 362.917C303.658 362.403 302.924 361.699 302.396 360.805C301.883 359.91 301.626 358.883 301.626 357.725C301.626 356.566 301.876 355.539 302.374 354.645C302.888 353.75 303.584 353.053 304.464 352.555C305.359 352.041 306.364 351.785 307.478 351.785C308.608 351.785 309.605 352.034 310.47 352.533C311.336 353.031 312.01 353.735 312.494 354.645C312.993 355.539 313.242 356.588 313.242 357.791C313.242 357.879 313.235 357.981 313.22 358.099C313.22 358.216 313.213 358.326 313.198 358.429H303.276V356.911H312.098L311.24 357.439C311.255 356.691 311.101 356.023 310.778 355.437C310.456 354.85 310.008 354.395 309.436 354.073C308.879 353.735 308.226 353.567 307.478 353.567C306.745 353.567 306.092 353.735 305.52 354.073C304.948 354.395 304.501 354.857 304.178 355.459C303.856 356.045 303.694 356.72 303.694 357.483V357.835C303.694 358.612 303.87 359.309 304.222 359.925C304.589 360.526 305.095 360.995 305.74 361.333C306.386 361.67 307.126 361.839 307.962 361.839C308.652 361.839 309.275 361.721 309.832 361.487C310.404 361.252 310.903 360.9 311.328 360.431L312.494 361.795C311.966 362.411 311.306 362.88 310.514 363.203C309.737 363.525 308.864 363.687 307.896 363.687ZM318.457 358.693C318.457 358.121 318.553 357.622 318.743 357.197C318.934 356.771 319.169 356.39 319.447 356.053C319.741 355.715 320.056 355.407 320.393 355.129C320.731 354.835 321.046 354.549 321.339 354.271C321.633 353.977 321.867 353.669 322.043 353.347C322.234 353.024 322.329 352.65 322.329 352.225C322.329 351.521 322.051 350.949 321.493 350.509C320.936 350.069 320.166 349.849 319.183 349.849C318.303 349.849 317.541 349.995 316.895 350.289C316.25 350.582 315.7 351.015 315.245 351.587L313.639 350.443C314.255 349.665 315.04 349.064 315.993 348.639C316.947 348.199 318.061 347.979 319.337 347.979C320.393 347.979 321.31 348.14 322.087 348.463C322.865 348.771 323.466 349.218 323.891 349.805C324.331 350.377 324.551 351.073 324.551 351.895C324.551 352.511 324.456 353.039 324.265 353.479C324.075 353.919 323.833 354.307 323.539 354.645C323.246 354.982 322.931 355.297 322.593 355.591C322.271 355.884 321.963 356.177 321.669 356.471C321.376 356.764 321.134 357.087 320.943 357.439C320.753 357.791 320.657 358.209 320.657 358.693H318.457ZM319.579 363.687C319.169 363.687 318.824 363.547 318.545 363.269C318.281 362.99 318.149 362.66 318.149 362.279C318.149 361.868 318.281 361.531 318.545 361.267C318.824 361.003 319.169 360.871 319.579 360.871C319.99 360.871 320.327 361.003 320.591 361.267C320.855 361.531 320.987 361.868 320.987 362.279C320.987 362.66 320.855 362.99 320.591 363.269C320.327 363.547 319.99 363.687 319.579 363.687Z" fill="white"/>
<circle cx="68" cy="423" r="19" fill="#2C2C33" fill-opacity="0.72" stroke="#D5B563"/>
<path d="M56.8711 421.006H60.9572V426.615H56.8711V421.006Z" fill="#2C2C33" fill-opacity="0.72"/>
<path d="M70.3949 433.068H64.9572C62.748 433.068 60.9572 431.277 60.9572 429.068V426.615M75.4868 421.006H79.1292C79.1292 423.196 79.1292 424.425 79.1292 426.615H74.9294V418.796C74.9294 414.937 71.8016 411.81 67.9433 411.81V411.81C64.085 411.81 60.9572 414.937 60.9572 418.796V421.006M60.9572 421.006H56.8711V426.615H60.9572M60.9572 421.006V426.615" stroke="#D5B563" stroke-linecap="round" stroke-linejoin="round"/>
</g>
<path d="M205.65 423C205.65 433.774 196.992 442.5 186.321 442.5C175.65 442.5 166.992 433.774 166.992 423C166.992 412.226 175.65 403.5 186.321 403.5C196.992 403.5 205.65 412.226 205.65 423Z" fill="#48C95F" stroke="white"/>
<path d="M194.18 415.062C192.221 413.094 189.609 412 186.853 412C181.122 412 176.479 416.667 176.479 422.427C176.479 424.25 176.987 426.073 177.857 427.604L176.406 433L181.92 431.542C183.443 432.344 185.112 432.781 186.853 432.781C192.584 432.781 197.226 428.115 197.226 422.354C197.154 419.656 196.138 417.031 194.18 415.062ZM191.858 426.146C191.641 426.729 190.625 427.312 190.117 427.385C189.682 427.458 189.101 427.458 188.521 427.312C188.158 427.167 187.651 427.021 187.07 426.729C184.459 425.635 182.79 423.01 182.645 422.792C182.5 422.646 181.557 421.406 181.557 420.094C181.557 418.781 182.21 418.198 182.427 417.906C182.645 417.615 182.935 417.615 183.153 417.615C183.298 417.615 183.516 417.615 183.661 417.615C183.806 417.615 184.023 417.542 184.241 418.052C184.459 418.562 184.966 419.875 185.039 419.948C185.112 420.094 185.112 420.24 185.039 420.385C184.966 420.531 184.894 420.677 184.749 420.823C184.604 420.969 184.459 421.187 184.386 421.26C184.241 421.406 184.096 421.552 184.241 421.771C184.386 422.062 184.894 422.865 185.692 423.594C186.708 424.469 187.506 424.76 187.796 424.906C188.086 425.052 188.231 424.979 188.376 424.833C188.521 424.687 189.029 424.104 189.174 423.813C189.319 423.521 189.537 423.594 189.754 423.667C189.972 423.74 191.278 424.396 191.495 424.542C191.786 424.688 191.931 424.76 192.003 424.833C192.076 425.052 192.076 425.562 191.858 426.146Z" fill="white"/>
<path d="M174.915 423C174.915 433.774 166.258 442.5 155.587 442.5C144.916 442.5 136.258 433.774 136.258 423C136.258 412.226 144.916 403.5 155.587 403.5C166.258 403.5 174.915 412.226 174.915 423Z" fill="#40AA1A" stroke="white"/>
<path d="M167.038 424.625L166.875 424.365C166.612 423.976 166.351 423.587 165.957 423.328C165.63 423.1 165.236 422.939 164.877 422.776C165.892 422.29 166.586 421.609 166.915 420.734C167.144 420.02 166.725 419.437 166.725 418.853V418.789C166.725 418.139 165.834 417.718 165.015 417.491C164.523 417.394 163.979 417.394 163.488 417.425L162.412 417.653L162.777 416.842C163.104 415.804 163.008 414.799 162.451 413.858L162.353 413.697C161.862 412.886 161.141 412.4 160.158 412.14C159.143 411.88 158.279 411.978 157.361 412.464C156.443 412.952 155.576 413.698 155.576 414.669V414.734L155.461 414.961L155.288 414.734L154.939 414.151C154.415 413.34 153.749 412.854 152.93 412.626C152.209 412.464 151.615 412.529 150.992 412.854C150.305 413.275 149.909 413.925 149.744 414.832C149.58 415.772 149.744 416.681 150.235 417.588L150.463 417.913L149.677 417.653C148.694 417.425 147.777 417.555 146.86 418.042C145.909 418.528 145.32 419.209 144.926 420.15C144.566 421.058 144.599 421.932 145.058 422.744C145.254 423.101 145.549 423.392 145.811 423.587C146.204 423.976 146.696 424.203 147.285 424.3L147.514 424.365L147.023 424.788C146.564 425.177 146.303 425.663 146.139 426.149C145.975 426.733 146.041 427.317 146.368 427.869C146.532 428.128 146.696 428.353 146.958 428.517C147.22 428.743 147.548 428.905 147.94 428.938C148.661 429.101 149.415 429.101 150.233 428.84L149.643 429.814L149.481 430.235C149.152 431.271 149.25 432.179 149.742 433.12C149.971 433.478 150.233 433.802 150.496 434.093C150.889 434.45 151.379 434.677 151.97 434.84C152.951 435.099 153.934 435.065 154.886 434.58C155.803 434.093 156.391 433.314 156.687 432.342L156.719 432.149C157.342 432.828 157.931 433.283 158.587 433.445C159.242 433.639 159.897 433.608 160.487 433.217C161.044 432.893 161.437 432.342 161.633 431.66C161.796 430.947 161.796 430.234 161.633 429.425C161.96 429.651 162.288 429.813 162.681 429.909C163.728 430.234 164.647 430.201 165.564 429.715C166.448 429.23 167.038 428.45 167.332 427.445C167.596 426.473 167.53 425.533 167.038 424.625ZM162.289 419.21L162.681 419.047C163.272 418.789 163.828 418.723 164.419 418.789C164.974 418.853 165.369 419.112 165.564 419.502L165.695 419.922L165.63 420.247C165.401 420.831 164.909 421.285 164.091 421.642C163.763 421.803 163.403 421.869 163.01 421.932L158.981 422.42L158.914 422.193L158.849 422.095L158.981 421.932L162.289 419.21ZM156.719 415.124C156.883 414.475 157.342 413.989 157.932 413.665C158.521 413.34 159.176 413.275 159.798 413.502C160.487 413.665 160.978 414.021 161.274 414.572C161.437 414.897 161.535 415.286 161.535 415.707L161.437 416.42C161.306 416.777 161.142 417.102 160.946 417.394L157.998 420.961C157.703 420.734 157.376 420.571 157.047 420.409L156.719 416.745L156.687 415.448L156.719 415.124ZM151.119 415.221C151.151 414.637 151.379 414.248 151.773 414.021C151.97 413.859 152.265 413.859 152.526 413.989C153.116 414.152 153.608 414.573 154 415.383C154.164 415.708 154.328 416.032 154.394 416.421L155.049 420.248L154.558 420.41L151.642 417.264L151.478 416.94C151.216 416.356 151.053 415.805 151.119 415.221ZM146.302 422.095C146.041 421.609 146.041 421.123 146.237 420.637C146.466 420.02 146.892 419.534 147.513 419.274C148.104 418.95 148.693 418.853 149.349 419.014L150.233 419.371L153.116 421.447C152.854 421.772 152.69 422.095 152.591 422.42L147.874 423.004L147.547 422.939C146.958 422.841 146.564 422.583 146.302 422.095ZM155.576 431.662L155.461 431.987C155.231 432.57 154.796 433.057 154.207 433.314C153.617 433.64 152.972 433.704 152.384 433.543C151.727 433.381 151.226 432.992 150.964 432.472C150.801 432.149 150.666 431.759 150.666 431.37L150.825 430.625C150.891 430.3 151.055 429.975 151.317 429.716L154.067 426.472C154.394 426.635 154.805 426.797 155.166 426.831C155.23 427.932 155.576 429.102 155.576 430.365V431.662ZM154.327 425.178C153.902 424.788 153.673 424.235 153.673 423.652C153.673 423.068 153.902 422.583 154.327 422.128C154.721 421.772 155.245 421.544 155.868 421.544C156.457 421.544 157.014 421.772 157.376 422.128C157.832 422.583 158.03 423.068 158.03 423.652C158.03 424.235 157.832 424.788 157.376 425.178C156.949 425.599 156.457 425.824 155.868 425.824C155.245 425.825 154.721 425.599 154.327 425.178ZM160.389 430.851C160.324 431.436 160.127 431.858 159.733 432.02C159.505 432.181 159.242 432.181 158.98 432.15C158.358 431.987 157.866 431.501 157.506 430.722L157.112 429.652L156.622 426.831L157.177 426.635L157.604 426.41L158.98 427.802L159.832 428.841L159.996 429.164C160.29 429.716 160.455 430.236 160.389 430.851ZM166.023 427.057C165.859 427.707 165.466 428.193 164.909 428.451C164.32 428.776 163.729 428.841 163.075 428.614C162.681 428.518 162.42 428.353 162.191 428.095L158.75 425.274L158.98 424.788L159.079 424.398L162.78 424.073L164.09 424.042L164.419 424.073C164.909 424.236 165.369 424.528 165.629 425.014C165.957 425.372 166.121 425.858 166.121 426.411L166.023 427.057Z" fill="white"/>
<path d="M144.181 423C144.181 433.774 135.523 442.5 124.852 442.5C114.181 442.5 105.523 433.774 105.523 423C105.523 412.226 114.181 403.5 124.852 403.5C135.523 403.5 144.181 412.226 144.181 423Z" fill="#2F89CE" stroke="white"/>
<path d="M114.295 423.374L118.854 425.089L120.631 430.856C120.708 431.245 121.172 431.323 121.481 431.09L124.031 428.985C124.262 428.751 124.649 428.751 124.958 428.985L129.516 432.336C129.826 432.57 130.289 432.414 130.366 432.025L133.766 415.659C133.843 415.269 133.457 414.879 133.071 415.035L114.295 422.361C113.831 422.517 113.831 423.218 114.295 423.374ZM120.399 424.231L129.362 418.698C129.516 418.62 129.671 418.854 129.516 418.932L122.176 425.868C121.944 426.102 121.713 426.413 121.713 426.803L121.481 428.674C121.481 428.907 121.094 428.985 121.017 428.674L120.09 425.244C119.858 424.855 120.013 424.387 120.399 424.231Z" fill="white"/>
<g filter="url(#filter6_d_396_113131)">
<path d="M324 468.828C324 464.505 327.505 461 331.828 461H394.172C398.495 461 402 464.505 402 468.828V531.172C402 535.495 398.495 539 394.172 539H331.828C327.505 539 324 535.495 324 531.172V468.828Z" fill="url(#paint6_linear_396_113131)" fill-opacity="0.45" stroke="#1E1E1E" stroke-width="2"/>
</g>
<path d="M355.658 515.072H352.895C351.79 515.072 350.895 514.177 350.895 513.072V512.057C350.895 511.152 350.282 510.372 349.434 510.057C349.052 509.915 348.677 509.759 348.309 509.591C347.487 509.213 346.501 509.332 345.861 509.972L345.143 510.69C344.362 511.471 343.095 511.471 342.314 510.69L339.079 507.455C338.298 506.674 338.298 505.407 339.079 504.626L339.798 503.907C340.438 503.267 340.556 502.282 340.179 501.46C340.01 501.092 339.855 500.718 339.713 500.337C339.398 499.488 338.617 498.876 337.713 498.876H336.697C335.593 498.876 334.697 497.98 334.697 496.876V492.3C334.697 491.196 335.593 490.3 336.697 490.3H337.712C338.617 490.3 339.397 489.687 339.713 488.839C339.836 488.507 339.97 488.18 340.114 487.859C340.483 487.032 340.355 486.048 339.709 485.415L338.984 484.703C338.196 483.93 338.184 482.664 338.957 481.875L342.162 478.609C342.935 477.82 344.202 477.808 344.99 478.582L345.715 479.293C346.361 479.927 347.347 480.036 348.166 479.651C348.58 479.456 349.002 479.278 349.434 479.118C350.282 478.803 350.895 478.022 350.895 477.117V476.104C350.895 474.999 351.79 474.104 352.895 474.104H357.47C358.575 474.104 359.47 474.999 359.47 476.104V477.118C359.47 478.023 360.083 478.803 360.931 479.118C361.312 479.26 361.687 479.415 362.054 479.584C362.877 479.961 363.862 479.843 364.502 479.203L365.219 478.486C366 477.705 367.267 477.705 368.048 478.486L371.283 481.721C372.064 482.502 372.064 483.769 371.283 484.55L370.566 485.267C369.926 485.907 369.808 486.892 370.185 487.715C370.354 488.082 370.51 488.457 370.652 488.839" stroke="#D5B563" stroke-width="2" stroke-linecap="round" stroke-linejoin="round"/>
<path d="M355.892 503.773C350.819 503.773 346.707 499.66 346.707 494.587C346.707 489.515 350.819 485.402 355.892 485.402C359.987 485.402 363.455 488.081 364.641 491.782" stroke="#D5B563" stroke-width="2"/>
<circle cx="372.932" cy="507.525" r="18.3719" stroke="#D5B563" stroke-width="2"/>
<path d="M375.249 517.259H370.123C367.914 517.259 366.123 515.468 366.123 513.259V511.02M380.172 505.596H383.694C383.694 507.714 383.694 508.902 383.694 511.02H379.633V503.459C379.633 499.728 376.609 496.704 372.878 496.704V496.704C369.147 496.704 366.123 499.728 366.123 503.459V505.596M366.123 505.596H362.172V511.02H366.123M366.123 505.596V511.02" stroke="#D5B563" stroke-width="2" stroke-linecap="round" stroke-linejoin="round"/>
</g>
</g>
<defs>
<filter id="filter0_d_396_113131" x="-16" y="-16" width="452" height="602" filterUnits="userSpaceOnUse" color-interpolation-filters="sRGB">
<feFlood flood-opacity="0" result="BackgroundImageFix"/>
<feColorMatrix in="SourceAlpha" type="matrix" values="0 0 0 0 0 0 0 0 0 0 0 0 0 0 0 0 0 0 127 0" result="hardAlpha"/>
<feOffset/>
<feGaussianBlur stdDeviation="8"/>
<feComposite in2="hardAlpha" operator="out"/>
<feColorMatrix type="matrix" values="0 0 0 0 0 0 0 0 0 0 0 0 0 0 0 0 0 0 0.45 0"/>
<feBlend mode="normal" in2="BackgroundImageFix" result="effect1_dropShadow_396_113131"/>
<feBlend mode="normal" in="SourceGraphic" in2="effect1_dropShadow_396_113131" result="shape"/>
</filter>
<filter id="filter1_d_396_113131" x="-4.38579" y="-1" width="427.772" height="579.772" filterUnits="userSpaceOnUse" color-interpolation-filters="sRGB">
<feFlood flood-opacity="0" result="BackgroundImageFix"/>
<feColorMatrix in="SourceAlpha" type="matrix" values="0 0 0 0 0 0 0 0 0 0 0 0 0 0 0 0 0 0 127 0" result="hardAlpha"/>
<feOffset dy="4.38579"/>
<feGaussianBlur stdDeviation="2.19289"/>
<feComposite in2="hardAlpha" operator="out"/>
<feColorMatrix type="matrix" values="0 0 0 0 0 0 0 0 0 0 0 0 0 0 0 0 0 0 0.25 0"/>
<feBlend mode="normal" in2="BackgroundImageFix" result="effect1_dropShadow_396_113131"/>
<feBlend mode="normal" in="SourceGraphic" in2="effect1_dropShadow_396_113131" result="shape"/>
</filter>
<filter id="filter2_d_396_113131" x="24.1641" y="27.0109" width="97.0751" height="97.0751" filterUnits="userSpaceOnUse" color-interpolation-filters="sRGB">
<feFlood flood-opacity="0" result="BackgroundImageFix"/>
<feColorMatrix in="SourceAlpha" type="matrix" values="0 0 0 0 0 0 0 0 0 0 0 0 0 0 0 0 0 0 127 0" result="hardAlpha"/>
<feOffset dy="2.84678"/>
<feGaussianBlur stdDeviation="2.91795"/>
<feComposite in2="hardAlpha" operator="out"/>
<feColorMatrix type="matrix" values="0 0 0 0 0 0 0 0 0 0 0 0 0 0 0 0 0 0 0.25 0"/>
<feBlend mode="normal" in2="BackgroundImageFix" result="effect1_dropShadow_396_113131"/>
<feBlend mode="normal" in="SourceGraphic" in2="effect1_dropShadow_396_113131" result="shape"/>
</filter>
<filter id="filter3_d_396_113131" x="41.8435" y="200.178" width="326.03" height="118.496" filterUnits="userSpaceOnUse" color-interpolation-filters="sRGB">
<feFlood flood-opacity="0" result="BackgroundImageFix"/>
<feColorMatrix in="SourceAlpha" type="matrix" values="0 0 0 0 0 0 0 0 0 0 0 0 0 0 0 0 0 0 127 0" result="hardAlpha"/>
<feOffset dy="4.5747"/>
<feGaussianBlur stdDeviation="3.04991"/>
<feComposite in2="hardAlpha" operator="out"/>
<feColorMatrix type="matrix" values="0 0 0 0 0 0 0 0 0 0 0 0 0 0 0 0 0 0 0.25 0"/>
<feBlend mode="normal" in2="BackgroundImageFix" result="effect1_dropShadow_396_113131"/>
<feBlend mode="normal" in="SourceGraphic" in2="effect1_dropShadow_396_113131" result="shape"/>
</filter>
<filter id="filter4_d_396_113131" x="60.6427" y="220.765" width="274.331" height="25.7111" filterUnits="userSpaceOnUse" color-interpolation-filters="sRGB">
<feFlood flood-opacity="0" result="BackgroundImageFix"/>
<feColorMatrix in="SourceAlpha" type="matrix" values="0 0 0 0 0 0 0 0 0 0 0 0 0 0 0 0 0 0 127 0" result="hardAlpha"/>
<feOffset dy="2.21479"/>
<feGaussianBlur stdDeviation="2.21479"/>
<feComposite in2="hardAlpha" operator="out"/>
<feColorMatrix type="matrix" values="0 0 0 0 0 0 0 0 0 0 0 0 0 0 0 0 0 0 0.25 0"/>
<feBlend mode="normal" in2="BackgroundImageFix" result="effect1_dropShadow_396_113131"/>
<feBlend mode="normal" in="SourceGraphic" in2="effect1_dropShadow_396_113131" result="shape"/>
</filter>
<filter id="filter5_d_396_113131" x="42.4002" y="324.472" width="323.994" height="128.702" filterUnits="userSpaceOnUse" color-interpolation-filters="sRGB">
<feFlood flood-opacity="0" result="BackgroundImageFix"/>
<feColorMatrix in="SourceAlpha" type="matrix" values="0 0 0 0 0 0 0 0 0 0 0 0 0 0 0 0 0 0 127 0" result="hardAlpha"/>
<feOffset dy="4.5747"/>
<feGaussianBlur stdDeviation="3.04991"/>
<feComposite in2="hardAlpha" operator="out"/>
<feColorMatrix type="matrix" values="0 0 0 0 0 0 0 0 0 0 0 0 0 0 0 0 0 0 0.25 0"/>
<feBlend mode="normal" in2="BackgroundImageFix" result="effect1_dropShadow_396_113131"/>
<feBlend mode="normal" in="SourceGraphic" in2="effect1_dropShadow_396_113131" result="shape"/>
</filter>
<filter id="filter6_d_396_113131" x="314.36" y="454.24" width="97.2802" height="97.2802" filterUnits="userSpaceOnUse" color-interpolation-filters="sRGB">
<feFlood flood-opacity="0" result="BackgroundImageFix"/>
<feColorMatrix in="SourceAlpha" type="matrix" values="0 0 0 0 0 0 0 0 0 0 0 0 0 0 0 0 0 0 127 0" result="hardAlpha"/>
<feOffset dy="2.88026"/>
<feGaussianBlur stdDeviation="4.32005"/>
<feComposite in2="hardAlpha" operator="out"/>
<feColorMatrix type="matrix" values="0 0 0 0 0 0 0 0 0 0 0 0 0 0 0 0 0 0 0.4 0"/>
<feBlend mode="normal" in2="BackgroundImageFix" result="effect1_dropShadow_396_113131"/>
<feBlend mode="normal" in="SourceGraphic" in2="effect1_dropShadow_396_113131" result="shape"/>
</filter>
<linearGradient id="paint0_linear_396_113131" x1="0.0142966" y1="59.3942" x2="381.463" y2="459.622" gradientUnits="userSpaceOnUse">
<stop stop-color="#0D0D0E"/>
<stop offset="0.303582" stop-color="#1D1C1B"/>
<stop offset="1" stop-color="#101010"/>
</linearGradient>
<radialGradient id="paint1_radial_396_113131" cx="0" cy="0" r="1" gradientUnits="userSpaceOnUse" gradientTransform="translate(22.4335 300.327) rotate(61.057) scale(219.817 514.828)">
<stop stop-color="white"/>
<stop offset="1" stop-color="white" stop-opacity="0"/>
</radialGradient>
<linearGradient id="paint2_linear_396_113131" x1="361.477" y1="202" x2="-78.3521" y2="300.987" gradientUnits="userSpaceOnUse">
<stop stop-color="#272727"/>
<stop offset="0.203" stop-color="#323232"/>
<stop offset="0.438" stop-color="#353535"/>
<stop offset="0.656" stop-color="#1B1B1B"/>
</linearGradient>
<radialGradient id="paint3_radial_396_113131" cx="0" cy="0" r="1" gradientUnits="userSpaceOnUse" gradientTransform="translate(105.526 202.116) rotate(-1.34697) scale(26.1898 22.3706)">
<stop stop-color="#FBBAA6"/>
<stop offset="1" stop-color="white" stop-opacity="0"/>
</radialGradient>
<linearGradient id="paint4_linear_396_113131" x1="49" y1="326" x2="76.8778" y2="449.724" gradientUnits="userSpaceOnUse">
<stop stop-color="#272727"/>
<stop offset="0.203" stop-color="#323232"/>
<stop offset="0.438" stop-color="#353535"/>
<stop offset="0.656" stop-color="#1B1B1B"/>
</linearGradient>
<linearGradient id="paint5_linear_396_113131" x1="204.647" y1="326" x2="204.647" y2="370.482" gradientUnits="userSpaceOnUse">
<stop stop-color="white"/>
<stop offset="1" stop-color="white" stop-opacity="0"/>
</linearGradient>
<linearGradient id="paint6_linear_396_113131" x1="323" y1="460" x2="408.323" y2="533.851" gradientUnits="userSpaceOnUse">
<stop stop-color="#272727"/>
<stop offset="0.203" stop-color="#323232"/>
<stop offset="0.438" stop-color="#353535"/>
<stop offset="0.656" stop-color="#1B1B1B"/>
</linearGradient>
<clipPath id="clip0_396_113131">
<rect width="420" height="570" rx="20" fill="white"/>
</clipPath>
</defs>
</svg>
