<svg width="1160" height="470" viewBox="0 0 1160 470" fill="none" xmlns="http://www.w3.org/2000/svg">
<g clip-path="url(#clip0_182_38)">
<g filter="url(#filter0_d_182_38)">
<rect x="1" width="1158" height="468" rx="20" fill="url(#paint0_linear_182_38)"/>
<rect x="1" width="1158" height="468" rx="20" stroke="#1E1E1E" stroke-width="2"/>
</g>
<rect x="2" y="1" width="1156" height="466" rx="19" stroke="url(#paint1_radial_182_38)" stroke-opacity="0.6" stroke-width="2"/>
<path d="M222.3 95.25C219.7 95.25 217.283 94.8167 215.05 93.95C212.85 93.05 210.933 91.8 209.3 90.2C207.667 88.6 206.4 86.7333 205.5 84.6C204.6 82.4333 204.15 80.0667 204.15 77.5C204.15 74.9333 204.6 72.5833 205.5 70.45C206.4 68.2833 207.667 66.4 209.3 64.8C210.967 63.2 212.9 61.9667 215.1 61.1C217.3 60.2 219.7 59.75 222.3 59.75C224.767 59.75 227.067 60.15 229.2 60.95C231.367 61.75 233.217 62.9667 234.75 64.6L233.15 66.25C231.65 64.7833 229.983 63.7333 228.15 63.1C226.35 62.4333 224.433 62.1 222.4 62.1C220.167 62.1 218.083 62.4833 216.15 63.25C214.25 64.0167 212.583 65.1 211.15 66.5C209.75 67.9 208.65 69.5333 207.85 71.4C207.083 73.2667 206.7 75.3 206.7 77.5C206.7 79.7 207.083 81.7333 207.85 83.6C208.65 85.4667 209.75 87.1 211.15 88.5C212.583 89.9 214.25 90.9833 216.15 91.75C218.083 92.5167 220.167 92.9 222.4 92.9C224.433 92.9 226.35 92.5833 228.15 91.95C229.983 91.2833 231.65 90.2 233.15 88.7L234.75 90.35C233.217 91.9833 231.367 93.2167 229.2 94.05C227.067 94.85 224.767 95.25 222.3 95.25ZM252.173 95.2C249.539 95.2 247.206 94.6333 245.173 93.5C243.173 92.3667 241.589 90.8 240.423 88.8C239.289 86.8 238.723 84.5167 238.723 81.95C238.723 79.35 239.256 77.0667 240.323 75.1C241.423 73.1 242.923 71.5333 244.823 70.4C246.723 69.2667 248.856 68.7 251.223 68.7C253.589 68.7 255.706 69.25 257.573 70.35C259.473 71.45 260.956 73 262.023 75C263.123 76.9667 263.673 79.25 263.673 81.85C263.673 81.95 263.656 82.0667 263.623 82.2C263.623 82.3 263.623 82.4167 263.623 82.55H240.573V80.6H262.273L261.273 81.55C261.306 79.5167 260.873 77.7 259.973 76.1C259.106 74.4667 257.923 73.2 256.423 72.3C254.923 71.3667 253.189 70.9 251.223 70.9C249.289 70.9 247.556 71.3667 246.023 72.3C244.523 73.2 243.339 74.4667 242.473 76.1C241.606 77.7 241.173 79.5333 241.173 81.6V82.05C241.173 84.1833 241.639 86.0833 242.573 87.75C243.539 89.3833 244.856 90.6667 246.523 91.6C248.189 92.5 250.089 92.95 252.223 92.95C253.889 92.95 255.439 92.65 256.873 92.05C258.339 91.45 259.573 90.5333 260.573 89.3L262.023 90.95C260.889 92.35 259.456 93.4167 257.723 94.15C256.023 94.85 254.173 95.2 252.173 95.2ZM285.491 95.2C283.191 95.2 281.108 94.6667 279.241 93.6C277.408 92.5333 275.941 91.0167 274.841 89.05C273.775 87.05 273.241 84.6833 273.241 81.95C273.241 79.2167 273.775 76.8667 274.841 74.9C275.941 72.9 277.408 71.3667 279.241 70.3C281.108 69.2333 283.191 68.7 285.491 68.7C287.958 68.7 290.158 69.2667 292.091 70.4C294.058 71.5 295.591 73.05 296.691 75.05C297.825 77.05 298.391 79.35 298.391 81.95C298.391 84.55 297.825 86.85 296.691 88.85C295.591 90.85 294.058 92.4167 292.091 93.55C290.158 94.65 287.958 95.2 285.491 95.2ZM272.391 104.7V68.9H274.791V77.45L274.391 82L274.891 86.55V104.7H272.391ZM285.341 92.95C287.341 92.95 289.141 92.5 290.741 91.6C292.341 90.6667 293.591 89.3667 294.491 87.7C295.425 86.0333 295.891 84.1167 295.891 81.95C295.891 79.75 295.425 77.8333 294.491 76.2C293.591 74.5333 292.341 73.25 290.741 72.35C289.141 71.4167 287.341 70.95 285.341 70.95C283.341 70.95 281.541 71.4167 279.941 72.35C278.375 73.25 277.125 74.5333 276.191 76.2C275.291 77.8333 274.841 79.75 274.841 81.95C274.841 84.1167 275.291 86.0333 276.191 87.7C277.125 89.3667 278.375 90.6667 279.941 91.6C281.541 92.5 283.341 92.95 285.341 92.95ZM307.021 95V68.9H318.021C320.888 68.9 323.154 69.4667 324.821 70.6C326.488 71.7333 327.321 73.3833 327.321 75.55C327.321 77.6833 326.504 79.3 324.871 80.4C323.271 81.5 321.188 82.05 318.621 82.05L319.321 81.3C322.388 81.3 324.638 81.8667 326.071 83C327.504 84.1333 328.221 85.8 328.221 88C328.221 90.2333 327.404 91.9667 325.771 93.2C324.171 94.4 321.688 95 318.321 95H307.021ZM309.471 92.95H318.271C320.704 92.95 322.554 92.55 323.821 91.75C325.088 90.95 325.721 89.6667 325.721 87.9C325.721 86.1 325.154 84.8 324.021 84C322.921 83.1667 321.138 82.75 318.671 82.75H309.471V92.95ZM309.471 80.8H317.871C320.071 80.8 321.771 80.3833 322.971 79.55C324.204 78.7167 324.821 77.4833 324.821 75.85C324.821 74.2167 324.204 73 322.971 72.2C321.771 71.3667 320.071 70.95 317.871 70.95H309.471V80.8ZM337.599 95V68.9H340.099V91.15L358.699 68.9H360.899V95H358.399V72.75L339.799 95H337.599ZM382.731 95.2C380.198 95.2 377.931 94.6333 375.931 93.5C373.965 92.3667 372.398 90.8 371.231 88.8C370.098 86.8 369.531 84.5167 369.531 81.95C369.531 79.35 370.098 77.05 371.231 75.05C372.398 73.05 373.965 71.5 375.931 70.4C377.931 69.2667 380.198 68.7 382.731 68.7C384.831 68.7 386.731 69.1 388.431 69.9C390.165 70.7 391.565 71.9 392.631 73.5L390.781 74.85C389.848 73.5167 388.681 72.5333 387.281 71.9C385.881 71.2667 384.365 70.95 382.731 70.95C380.698 70.95 378.865 71.4167 377.231 72.35C375.631 73.25 374.365 74.5333 373.431 76.2C372.531 77.8333 372.081 79.75 372.081 81.95C372.081 84.15 372.531 86.0833 373.431 87.75C374.365 89.3833 375.631 90.6667 377.231 91.6C378.865 92.5 380.698 92.95 382.731 92.95C384.365 92.95 385.881 92.6333 387.281 92C388.681 91.3667 389.848 90.3833 390.781 89.05L392.631 90.4C391.565 92 390.165 93.2 388.431 94C386.731 94.8 384.831 95.2 382.731 95.2ZM400.513 95V68.9H403.013V80.8H420.713V68.9H423.213V95H420.713V83H403.013V95H400.513ZM444.909 95.2C442.409 95.2 440.176 94.6333 438.209 93.5C436.276 92.3667 434.726 90.8 433.559 88.8C432.426 86.8 431.859 84.5167 431.859 81.95C431.859 79.35 432.426 77.0667 433.559 75.1C434.726 73.1 436.276 71.5333 438.209 70.4C440.176 69.2667 442.409 68.7 444.909 68.7C447.409 68.7 449.643 69.2667 451.609 70.4C453.576 71.5333 455.126 73.1 456.259 75.1C457.393 77.0667 457.959 79.35 457.959 81.95C457.959 84.5167 457.393 86.8 456.259 88.8C455.126 90.8 453.576 92.3667 451.609 93.5C449.643 94.6333 447.409 95.2 444.909 95.2ZM444.909 92.95C446.909 92.95 448.709 92.5 450.309 91.6C451.909 90.6667 453.159 89.3667 454.059 87.7C454.959 86.0333 455.409 84.1167 455.409 81.95C455.409 79.75 454.959 77.8333 454.059 76.2C453.159 74.5333 451.909 73.25 450.309 72.35C448.709 71.4167 446.909 70.95 444.909 70.95C442.909 70.95 441.109 71.4167 439.509 72.35C437.943 73.25 436.693 74.5333 435.759 76.2C434.859 77.8333 434.409 79.75 434.409 81.95C434.409 84.1167 434.859 86.0333 435.759 87.7C436.693 89.3667 437.943 90.6667 439.509 91.6C441.109 92.5 442.909 92.95 444.909 92.95ZM477.401 95.2C474.768 95.2 472.435 94.6333 470.401 93.5C468.401 92.3667 466.818 90.8 465.651 88.8C464.518 86.8 463.951 84.5167 463.951 81.95C463.951 79.35 464.485 77.0667 465.551 75.1C466.651 73.1 468.151 71.5333 470.051 70.4C471.951 69.2667 474.085 68.7 476.451 68.7C478.818 68.7 480.935 69.25 482.801 70.35C484.701 71.45 486.185 73 487.251 75C488.351 76.9667 488.901 79.25 488.901 81.85C488.901 81.95 488.885 82.0667 488.851 82.2C488.851 82.3 488.851 82.4167 488.851 82.55H465.801V80.6H487.501L486.501 81.55C486.535 79.5167 486.101 77.7 485.201 76.1C484.335 74.4667 483.151 73.2 481.651 72.3C480.151 71.3667 478.418 70.9 476.451 70.9C474.518 70.9 472.785 71.3667 471.251 72.3C469.751 73.2 468.568 74.4667 467.701 76.1C466.835 77.7 466.401 79.5333 466.401 81.6V82.05C466.401 84.1833 466.868 86.0833 467.801 87.75C468.768 89.3833 470.085 90.6667 471.751 91.6C473.418 92.5 475.318 92.95 477.451 92.95C479.118 92.95 480.668 92.65 482.101 92.05C483.568 91.45 484.801 90.5333 485.801 89.3L487.251 90.95C486.118 92.35 484.685 93.4167 482.951 94.15C481.251 94.85 479.401 95.2 477.401 95.2ZM216.95 150.2C214.417 150.2 212.15 149.633 210.15 148.5C208.183 147.367 206.617 145.8 205.45 143.8C204.317 141.8 203.75 139.517 203.75 136.95C203.75 134.35 204.317 132.05 205.45 130.05C206.617 128.05 208.183 126.5 210.15 125.4C212.15 124.267 214.417 123.7 216.95 123.7C219.05 123.7 220.95 124.1 222.65 124.9C224.383 125.7 225.783 126.9 226.85 128.5L225 129.85C224.067 128.517 222.9 127.533 221.5 126.9C220.1 126.267 218.583 125.95 216.95 125.95C214.917 125.95 213.083 126.417 211.45 127.35C209.85 128.25 208.583 129.533 207.65 131.2C206.75 132.833 206.3 134.75 206.3 136.95C206.3 139.15 206.75 141.083 207.65 142.75C208.583 144.383 209.85 145.667 211.45 146.6C213.083 147.5 214.917 147.95 216.95 147.95C218.583 147.95 220.1 147.633 221.5 147C222.9 146.367 224.067 145.383 225 144.05L226.85 145.4C225.783 147 224.383 148.2 222.65 149C220.95 149.8 219.05 150.2 216.95 150.2ZM244.693 150.2C242.193 150.2 239.959 149.633 237.993 148.5C236.059 147.367 234.509 145.8 233.343 143.8C232.209 141.8 231.643 139.517 231.643 136.95C231.643 134.35 232.209 132.067 233.343 130.1C234.509 128.1 236.059 126.533 237.993 125.4C239.959 124.267 242.193 123.7 244.693 123.7C247.193 123.7 249.426 124.267 251.393 125.4C253.359 126.533 254.909 128.1 256.043 130.1C257.176 132.067 257.743 134.35 257.743 136.95C257.743 139.517 257.176 141.8 256.043 143.8C254.909 145.8 253.359 147.367 251.393 148.5C249.426 149.633 247.193 150.2 244.693 150.2ZM244.693 147.95C246.693 147.95 248.493 147.5 250.093 146.6C251.693 145.667 252.943 144.367 253.843 142.7C254.743 141.033 255.193 139.117 255.193 136.95C255.193 134.75 254.743 132.833 253.843 131.2C252.943 129.533 251.693 128.25 250.093 127.35C248.493 126.417 246.693 125.95 244.693 125.95C242.693 125.95 240.893 126.417 239.293 127.35C237.726 128.25 236.476 129.533 235.543 131.2C234.643 132.833 234.193 134.75 234.193 136.95C234.193 139.117 234.643 141.033 235.543 142.7C236.476 144.367 237.726 145.667 239.293 146.6C240.893 147.5 242.693 147.95 244.693 147.95ZM266.384 150V123.9H289.184V150H286.684V125.4L287.384 126.15H268.184L268.884 125.4V150H266.384ZM313.628 150.2C311.328 150.2 309.245 149.667 307.378 148.6C305.545 147.533 304.078 146.017 302.978 144.05C301.911 142.05 301.378 139.683 301.378 136.95C301.378 134.217 301.911 131.867 302.978 129.9C304.078 127.9 305.545 126.367 307.378 125.3C309.245 124.233 311.328 123.7 313.628 123.7C316.095 123.7 318.295 124.267 320.228 125.4C322.195 126.5 323.728 128.05 324.828 130.05C325.961 132.05 326.528 134.35 326.528 136.95C326.528 139.55 325.961 141.85 324.828 143.85C323.728 145.85 322.195 147.417 320.228 148.55C318.295 149.65 316.095 150.2 313.628 150.2ZM300.528 159.7V123.9H302.928V132.45L302.528 137L303.028 141.55V159.7H300.528ZM313.478 147.95C315.478 147.95 317.278 147.5 318.878 146.6C320.478 145.667 321.728 144.367 322.628 142.7C323.561 141.033 324.028 139.117 324.028 136.95C324.028 134.75 323.561 132.833 322.628 131.2C321.728 129.533 320.478 128.25 318.878 127.35C317.278 126.417 315.478 125.95 313.478 125.95C311.478 125.95 309.678 126.417 308.078 127.35C306.511 128.25 305.261 129.533 304.328 131.2C303.428 132.833 302.978 134.75 302.978 136.95C302.978 139.117 303.428 141.033 304.328 142.7C305.261 144.367 306.511 145.667 308.078 146.6C309.678 147.5 311.478 147.95 313.478 147.95ZM345.558 150.2C343.058 150.2 340.824 149.633 338.858 148.5C336.924 147.367 335.374 145.8 334.208 143.8C333.074 141.8 332.508 139.517 332.508 136.95C332.508 134.35 333.074 132.067 334.208 130.1C335.374 128.1 336.924 126.533 338.858 125.4C340.824 124.267 343.058 123.7 345.558 123.7C348.058 123.7 350.291 124.267 352.258 125.4C354.224 126.533 355.774 128.1 356.908 130.1C358.041 132.067 358.608 134.35 358.608 136.95C358.608 139.517 358.041 141.8 356.908 143.8C355.774 145.8 354.224 147.367 352.258 148.5C350.291 149.633 348.058 150.2 345.558 150.2ZM345.558 147.95C347.558 147.95 349.358 147.5 350.958 146.6C352.558 145.667 353.808 144.367 354.708 142.7C355.608 141.033 356.058 139.117 356.058 136.95C356.058 134.75 355.608 132.833 354.708 131.2C353.808 129.533 352.558 128.25 350.958 127.35C349.358 126.417 347.558 125.95 345.558 125.95C343.558 125.95 341.758 126.417 340.158 127.35C338.591 128.25 337.341 129.533 336.408 131.2C335.508 132.833 335.058 134.75 335.058 136.95C335.058 139.117 335.508 141.033 336.408 142.7C337.341 144.367 338.591 145.667 340.158 146.6C341.758 147.5 343.558 147.95 345.558 147.95ZM367.25 150V123.9H378.25C381.116 123.9 383.383 124.467 385.05 125.6C386.716 126.733 387.55 128.383 387.55 130.55C387.55 132.683 386.733 134.3 385.1 135.4C383.5 136.5 381.416 137.05 378.85 137.05L379.55 136.3C382.616 136.3 384.866 136.867 386.3 138C387.733 139.133 388.45 140.8 388.45 143C388.45 145.233 387.633 146.967 386 148.2C384.4 149.4 381.916 150 378.55 150H367.25ZM369.7 147.95H378.5C380.933 147.95 382.783 147.55 384.05 146.75C385.316 145.95 385.95 144.667 385.95 142.9C385.95 141.1 385.383 139.8 384.25 139C383.15 138.167 381.366 137.75 378.9 137.75H369.7V147.95ZM369.7 135.8H378.1C380.3 135.8 382 135.383 383.2 134.55C384.433 133.717 385.05 132.483 385.05 130.85C385.05 129.217 384.433 128 383.2 127.2C382 126.367 380.3 125.95 378.1 125.95H369.7V135.8ZM408.228 150.2C405.728 150.2 403.494 149.633 401.528 148.5C399.594 147.367 398.044 145.8 396.878 143.8C395.744 141.8 395.178 139.517 395.178 136.95C395.178 134.35 395.744 132.067 396.878 130.1C398.044 128.1 399.594 126.533 401.528 125.4C403.494 124.267 405.728 123.7 408.228 123.7C410.728 123.7 412.961 124.267 414.928 125.4C416.894 126.533 418.444 128.1 419.578 130.1C420.711 132.067 421.278 134.35 421.278 136.95C421.278 139.517 420.711 141.8 419.578 143.8C418.444 145.8 416.894 147.367 414.928 148.5C412.961 149.633 410.728 150.2 408.228 150.2ZM408.228 147.95C410.228 147.95 412.028 147.5 413.628 146.6C415.228 145.667 416.478 144.367 417.378 142.7C418.278 141.033 418.728 139.117 418.728 136.95C418.728 134.75 418.278 132.833 417.378 131.2C416.478 129.533 415.228 128.25 413.628 127.35C412.028 126.417 410.228 125.95 408.228 125.95C406.228 125.95 404.428 126.417 402.828 127.35C401.261 128.25 400.011 129.533 399.078 131.2C398.178 132.833 397.728 134.75 397.728 136.95C397.728 139.117 398.178 141.033 399.078 142.7C400.011 144.367 401.261 145.667 402.828 146.6C404.428 147.5 406.228 147.95 408.228 147.95ZM459.842 150L450.442 136.95L452.542 135.75L462.842 150H459.842ZM444.142 137.9V135.75H452.242V137.9H444.142ZM452.742 137.2L450.392 136.8L459.342 123.9H462.092L452.742 137.2ZM427.692 150H424.642L434.992 135.75L437.092 136.95L427.692 150ZM444.992 150H442.492V123.9H444.992V150ZM443.292 137.9H435.242V135.75H443.292V137.9ZM434.792 137.2L425.442 123.9H428.192L437.142 136.8L434.792 137.2ZM487.674 148.8V126.15H474.074L473.774 132.65C473.707 134.483 473.59 136.317 473.424 138.15C473.257 139.95 472.99 141.617 472.624 143.15C472.257 144.65 471.74 145.867 471.074 146.8C470.44 147.733 469.607 148.25 468.574 148.35L466.074 147.8C467.14 147.867 468.007 147.483 468.674 146.65C469.34 145.783 469.857 144.617 470.224 143.15C470.59 141.683 470.857 140.033 471.024 138.2C471.224 136.333 471.374 134.433 471.474 132.5L471.824 123.9H490.174V148.8H487.674ZM464.924 156.5V147.8H494.374V156.5H492.024V150H467.324V156.5H464.924ZM513.057 150.2C510.424 150.2 508.091 149.633 506.057 148.5C504.057 147.367 502.474 145.8 501.307 143.8C500.174 141.8 499.607 139.517 499.607 136.95C499.607 134.35 500.141 132.067 501.207 130.1C502.307 128.1 503.807 126.533 505.707 125.4C507.607 124.267 509.741 123.7 512.107 123.7C514.474 123.7 516.591 124.25 518.457 125.35C520.357 126.45 521.841 128 522.907 130C524.007 131.967 524.557 134.25 524.557 136.85C524.557 136.95 524.541 137.067 524.507 137.2C524.507 137.3 524.507 137.417 524.507 137.55H501.457V135.6H523.157L522.157 136.55C522.191 134.517 521.757 132.7 520.857 131.1C519.991 129.467 518.807 128.2 517.307 127.3C515.807 126.367 514.074 125.9 512.107 125.9C510.174 125.9 508.441 126.367 506.907 127.3C505.407 128.2 504.224 129.467 503.357 131.1C502.491 132.7 502.057 134.533 502.057 136.6V137.05C502.057 139.183 502.524 141.083 503.457 142.75C504.424 144.383 505.741 145.667 507.407 146.6C509.074 147.5 510.974 147.95 513.107 147.95C514.774 147.95 516.324 147.65 517.757 147.05C519.224 146.45 520.457 145.533 521.457 144.3L522.907 145.95C521.774 147.35 520.341 148.417 518.607 149.15C516.907 149.85 515.057 150.2 513.057 150.2ZM533.226 150V123.9H535.726V135.8H553.426V123.9H555.926V150H553.426V138H535.726V150H533.226ZM567.222 150V123.9H569.722V146.15L588.322 123.9H590.522V150H588.022V127.75L569.422 150H567.222ZM612.604 150.2C609.971 150.2 607.638 149.633 605.604 148.5C603.604 147.367 602.021 145.8 600.854 143.8C599.721 141.8 599.154 139.517 599.154 136.95C599.154 134.35 599.688 132.067 600.754 130.1C601.854 128.1 603.354 126.533 605.254 125.4C607.154 124.267 609.288 123.7 611.654 123.7C614.021 123.7 616.138 124.25 618.004 125.35C619.904 126.45 621.388 128 622.454 130C623.554 131.967 624.104 134.25 624.104 136.85C624.104 136.95 624.088 137.067 624.054 137.2C624.054 137.3 624.054 137.417 624.054 137.55H601.004V135.6H622.704L621.704 136.55C621.738 134.517 621.304 132.7 620.404 131.1C619.538 129.467 618.354 128.2 616.854 127.3C615.354 126.367 613.621 125.9 611.654 125.9C609.721 125.9 607.988 126.367 606.454 127.3C604.954 128.2 603.771 129.467 602.904 131.1C602.038 132.7 601.604 134.533 601.604 136.6V137.05C601.604 139.183 602.071 141.083 603.004 142.75C603.971 144.383 605.288 145.667 606.954 146.6C608.621 147.5 610.521 147.95 612.654 147.95C614.321 147.95 615.871 147.65 617.304 147.05C618.771 146.45 620.004 145.533 621.004 144.3L622.454 145.95C621.321 147.35 619.888 148.417 618.154 149.15C616.454 149.85 614.604 150.2 612.604 150.2Z" fill="white"/>
<g filter="url(#filter1_d_182_38)">
<circle cx="111" cy="111" r="59" fill="#FA6334" stroke="#FB906F" stroke-width="2"/>
<path d="M125.142 132.562L133.758 141.128L135.237 142.599V132.562H140.285C141.623 132.562 142.907 132.033 143.854 131.092C144.8 130.151 145.332 128.874 145.332 127.543V112.487C145.332 111.156 144.8 109.88 143.854 108.939C142.907 107.997 141.623 107.469 140.285 107.469H115.047C113.709 107.469 112.425 107.997 111.478 108.939C110.532 109.88 110 111.156 110 112.487V127.543C110 128.874 110.532 130.151 111.478 131.092C112.425 132.033 113.709 132.562 115.047 132.562H125.142Z" stroke="white" stroke-width="3" stroke-linecap="round" stroke-linejoin="round"/>
<ellipse cx="119.871" cy="122.015" rx="1.60503" ry="1.69866" fill="white"/>
<ellipse cx="127.093" cy="122.015" rx="1.60503" ry="1.69866" fill="white"/>
<ellipse cx="134.316" cy="122.015" rx="1.60503" ry="1.69866" fill="white"/>
<path d="M107.789 117.598H105.562L93.9666 129.127L91.9763 131.106V117.598H85.1835C83.3819 117.598 81.6541 116.887 80.3802 115.62C79.1063 114.353 78.3906 112.635 78.3906 110.844V90.5821C78.3906 88.7909 79.1063 87.0729 80.3802 85.8063C81.6541 84.5397 83.3819 83.8281 85.1835 83.8281H119.148C120.949 83.8281 122.677 84.5397 123.951 85.8063C125.225 87.0729 125.94 88.7909 125.94 90.5821V106.842" stroke="white" stroke-width="3" stroke-linecap="round" stroke-linejoin="round"/>
<path d="M95.8359 97.4091C96.7303 95.5917 99.1429 94.2891 101.981 94.2891C105.581 94.2891 108.497 96.3842 108.497 98.9691C108.497 101.153 106.415 102.986 103.6 103.504C102.717 103.666 101.981 104.346 101.981 105.209M101.981 109.889H101.997" stroke="white" stroke-width="3" stroke-linecap="round" stroke-linejoin="round"/>
</g>
<g filter="url(#filter2_d_182_38)">
<path d="M534.477 215.197C534.477 208.459 528.618 203 521.39 203H235.083C227.855 203 221.999 208.459 221.999 215.197V251.117C221.999 257.855 227.855 263.318 235.083 263.318H534.477V215.197Z" fill="url(#paint2_linear_182_38)" fill-opacity="0.45"/>
<path d="M533.719 215.197C533.719 208.88 528.21 203.76 521.415 203.76H234.305C227.51 203.76 222.002 208.88 222.002 215.197V251.117C222.002 257.433 227.51 262.554 234.305 262.554H533.719V215.197Z" stroke="white" stroke-opacity="0.08" stroke-width="1.52478"/>
<path d="M533.719 215.197C533.719 208.88 528.21 203.76 521.415 203.76H234.305C227.51 203.76 222.002 208.88 222.002 215.197V251.117C222.002 257.433 227.51 262.554 234.305 262.554H533.719V215.197Z" stroke="#FA6334" stroke-width="1.52478"/>
<path d="M533.719 215.197C533.719 208.88 528.21 203.76 521.415 203.76H234.305C227.51 203.76 222.002 208.88 222.002 215.197V251.117C222.002 257.433 227.51 262.554 234.305 262.554H533.719V215.197Z" stroke="url(#paint3_radial_182_38)" stroke-opacity="0.6" stroke-width="2.11286"/>
<g filter="url(#filter3_d_182_38)">
<path d="M238.074 240.656V225.256H239.878L246.786 236.894H245.818L252.638 225.256H254.442L254.464 240.656H252.352L252.33 228.578H252.836L246.764 238.786H245.752L239.636 228.578H240.186V240.656H238.074ZM263.899 240.788C262.726 240.788 261.685 240.532 260.775 240.018C259.866 239.505 259.147 238.801 258.619 237.906C258.091 236.997 257.827 235.97 257.827 234.826C257.827 233.668 258.091 232.641 258.619 231.746C259.147 230.852 259.866 230.155 260.775 229.656C261.685 229.143 262.726 228.886 263.899 228.886C265.058 228.886 266.092 229.143 267.001 229.656C267.925 230.155 268.644 230.852 269.157 231.746C269.685 232.626 269.949 233.653 269.949 234.826C269.949 235.985 269.685 237.012 269.157 237.906C268.644 238.801 267.925 239.505 267.001 240.018C266.092 240.532 265.058 240.788 263.899 240.788ZM263.899 238.94C264.647 238.94 265.315 238.772 265.901 238.434C266.503 238.097 266.972 237.62 267.309 237.004C267.647 236.374 267.815 235.648 267.815 234.826C267.815 233.99 267.647 233.272 267.309 232.67C266.972 232.054 266.503 231.578 265.901 231.24C265.315 230.903 264.647 230.734 263.899 230.734C263.151 230.734 262.484 230.903 261.897 231.24C261.311 231.578 260.841 232.054 260.489 232.67C260.137 233.272 259.961 233.99 259.961 234.826C259.961 235.648 260.137 236.374 260.489 237.004C260.841 237.62 261.311 238.097 261.897 238.434C262.484 238.772 263.151 238.94 263.899 238.94ZM272.999 240.656V228.996H281.579V230.844H274.605L275.111 230.36V240.656H272.999ZM281.053 240.634L281.185 238.852C281.288 238.867 281.383 238.882 281.471 238.896C281.559 238.911 281.64 238.918 281.713 238.918C282.183 238.918 282.549 238.757 282.813 238.434C283.092 238.112 283.297 237.686 283.429 237.158C283.561 236.616 283.657 236.007 283.715 235.332C283.774 234.658 283.818 233.983 283.847 233.308L284.045 228.996H292.999V240.656H290.887V230.228L291.393 230.844H285.409L285.893 230.206L285.739 233.44C285.695 234.467 285.615 235.428 285.497 236.322C285.38 237.217 285.197 238.002 284.947 238.676C284.713 239.351 284.383 239.879 283.957 240.26C283.547 240.642 283.011 240.832 282.351 240.832C282.161 240.832 281.955 240.81 281.735 240.766C281.53 240.737 281.303 240.693 281.053 240.634ZM297.083 240.656V228.996H299.195V237.488L306.345 228.996H308.259V240.656H306.147V232.164L299.019 240.656H297.083ZM323.657 240.832C322.689 240.832 321.831 240.678 321.083 240.37C320.349 240.062 319.719 239.608 319.191 239.006C318.663 238.39 318.259 237.62 317.981 236.696C317.717 235.758 317.585 234.658 317.585 233.396C317.585 232.399 317.673 231.504 317.849 230.712C318.025 229.92 318.274 229.216 318.597 228.6C318.934 227.984 319.345 227.449 319.829 226.994C320.327 226.54 320.885 226.166 321.501 225.872C322.131 225.564 322.821 225.33 323.569 225.168L328.893 223.98L329.201 225.938L324.295 226.994C324.001 227.053 323.649 227.141 323.239 227.258C322.828 227.376 322.41 227.559 321.985 227.808C321.559 228.043 321.163 228.373 320.797 228.798C320.43 229.224 320.137 229.781 319.917 230.47C319.697 231.145 319.587 231.981 319.587 232.978C319.587 233.257 319.594 233.47 319.609 233.616C319.623 233.763 319.638 233.91 319.653 234.056C319.682 234.203 319.704 234.423 319.719 234.716L318.839 233.814C319.073 233.008 319.447 232.304 319.961 231.702C320.474 231.101 321.09 230.639 321.809 230.316C322.542 229.979 323.341 229.81 324.207 229.81C325.292 229.81 326.253 230.045 327.089 230.514C327.939 230.984 328.607 231.629 329.091 232.45C329.575 233.272 329.817 234.21 329.817 235.266C329.817 236.337 329.56 237.298 329.047 238.148C328.548 238.984 327.837 239.644 326.913 240.128C325.989 240.598 324.903 240.832 323.657 240.832ZM323.855 239.072C324.603 239.072 325.263 238.911 325.835 238.588C326.407 238.251 326.854 237.804 327.177 237.246C327.499 236.674 327.661 236.036 327.661 235.332C327.661 234.628 327.499 234.005 327.177 233.462C326.854 232.92 326.407 232.494 325.835 232.186C325.263 231.864 324.588 231.702 323.811 231.702C323.077 231.702 322.417 231.856 321.831 232.164C321.244 232.458 320.789 232.876 320.467 233.418C320.144 233.946 319.983 234.562 319.983 235.266C319.983 235.97 320.144 236.616 320.467 237.202C320.804 237.774 321.259 238.229 321.831 238.566C322.417 238.904 323.092 239.072 323.855 239.072ZM344.361 240.656V228.996H346.473V240.656H344.361ZM338.091 232.956C339.572 232.971 340.694 233.308 341.457 233.968C342.234 234.628 342.623 235.56 342.623 236.762C342.623 238.024 342.198 238.999 341.347 239.688C340.511 240.363 339.308 240.693 337.739 240.678L332.833 240.656V228.996H334.945V232.934L338.091 232.956ZM337.585 239.072C338.524 239.087 339.242 238.896 339.741 238.5C340.24 238.104 340.489 237.518 340.489 236.74C340.489 235.978 340.24 235.42 339.741 235.068C339.257 234.716 338.538 234.533 337.585 234.518L334.945 234.474V239.05L337.585 239.072ZM356.487 240.656V228.996H358.665L363.681 237.62H362.801L367.949 228.996H369.929V240.656H368.015V231.372L368.367 231.57L363.659 239.336H362.735L358.005 231.416L358.423 231.328V240.656H356.487ZM374.04 240.656V228.996H376.152V233.946H382.796V228.996H384.908V240.656H382.796V235.772H376.152V240.656H374.04ZM394.207 240.788C392.96 240.788 391.86 240.532 390.907 240.018C389.968 239.505 389.235 238.801 388.707 237.906C388.193 237.012 387.937 235.985 387.937 234.826C387.937 233.668 388.186 232.641 388.685 231.746C389.198 230.852 389.895 230.155 390.775 229.656C391.669 229.143 392.674 228.886 393.789 228.886C394.918 228.886 395.915 229.136 396.781 229.634C397.646 230.133 398.321 230.837 398.805 231.746C399.303 232.641 399.553 233.69 399.553 234.892C399.553 234.98 399.545 235.083 399.531 235.2C399.531 235.318 399.523 235.428 399.509 235.53H389.587V234.012H398.409L397.551 234.54C397.565 233.792 397.411 233.125 397.089 232.538C396.766 231.952 396.319 231.497 395.747 231.174C395.189 230.837 394.537 230.668 393.789 230.668C393.055 230.668 392.403 230.837 391.831 231.174C391.259 231.497 390.811 231.959 390.489 232.56C390.166 233.147 390.005 233.822 390.005 234.584V234.936C390.005 235.714 390.181 236.41 390.533 237.026C390.899 237.628 391.405 238.097 392.051 238.434C392.696 238.772 393.437 238.94 394.273 238.94C394.962 238.94 395.585 238.823 396.143 238.588C396.715 238.354 397.213 238.002 397.639 237.532L398.805 238.896C398.277 239.512 397.617 239.982 396.825 240.304C396.047 240.627 395.175 240.788 394.207 240.788ZM408.737 240.656V228.996H419.539V240.656H417.427V230.316L417.933 230.844H410.343L410.849 230.316V240.656H408.737ZM428.62 240.788C427.447 240.788 426.405 240.532 425.496 240.018C424.587 239.505 423.868 238.801 423.34 237.906C422.812 236.997 422.548 235.97 422.548 234.826C422.548 233.668 422.812 232.641 423.34 231.746C423.868 230.852 424.587 230.155 425.496 229.656C426.405 229.143 427.447 228.886 428.62 228.886C429.779 228.886 430.813 229.143 431.722 229.656C432.646 230.155 433.365 230.852 433.878 231.746C434.406 232.626 434.67 233.653 434.67 234.826C434.67 235.985 434.406 237.012 433.878 237.906C433.365 238.801 432.646 239.505 431.722 240.018C430.813 240.532 429.779 240.788 428.62 240.788ZM428.62 238.94C429.368 238.94 430.035 238.772 430.622 238.434C431.223 238.097 431.693 237.62 432.03 237.004C432.367 236.374 432.536 235.648 432.536 234.826C432.536 233.99 432.367 233.272 432.03 232.67C431.693 232.054 431.223 231.578 430.622 231.24C430.035 230.903 429.368 230.734 428.62 230.734C427.872 230.734 427.205 230.903 426.618 231.24C426.031 231.578 425.562 232.054 425.21 232.67C424.858 233.272 424.682 233.99 424.682 234.826C424.682 235.648 424.858 236.374 425.21 237.004C425.562 237.62 426.031 238.097 426.618 238.434C427.205 238.772 427.872 238.94 428.62 238.94ZM437.72 240.656V228.996H439.898L444.914 237.62H444.034L449.182 228.996H451.162V240.656H449.248V231.372L449.6 231.57L444.892 239.336H443.968L439.238 231.416L439.656 231.328V240.656H437.72ZM460.267 240.788C459.093 240.788 458.052 240.532 457.143 240.018C456.233 239.505 455.515 238.801 454.987 237.906C454.459 236.997 454.195 235.97 454.195 234.826C454.195 233.668 454.459 232.641 454.987 231.746C455.515 230.852 456.233 230.155 457.143 229.656C458.052 229.143 459.093 228.886 460.267 228.886C461.425 228.886 462.459 229.143 463.369 229.656C464.293 230.155 465.011 230.852 465.525 231.746C466.053 232.626 466.317 233.653 466.317 234.826C466.317 235.985 466.053 237.012 465.525 237.906C465.011 238.801 464.293 239.505 463.369 240.018C462.459 240.532 461.425 240.788 460.267 240.788ZM460.267 238.94C461.015 238.94 461.682 238.772 462.269 238.434C462.87 238.097 463.339 237.62 463.677 237.004C464.014 236.374 464.183 235.648 464.183 234.826C464.183 233.99 464.014 233.272 463.677 232.67C463.339 232.054 462.87 231.578 462.269 231.24C461.682 230.903 461.015 230.734 460.267 230.734C459.519 230.734 458.851 230.903 458.265 231.24C457.678 231.578 457.209 232.054 456.857 232.67C456.505 233.272 456.329 233.99 456.329 234.826C456.329 235.648 456.505 236.374 456.857 237.004C457.209 237.62 457.678 238.097 458.265 238.434C458.851 238.772 459.519 238.94 460.267 238.94ZM476.714 235.882C476.098 236.176 475.46 236.41 474.8 236.586C474.155 236.748 473.488 236.828 472.798 236.828C471.39 236.828 470.276 236.498 469.454 235.838C468.648 235.178 468.244 234.159 468.244 232.78V228.996H470.356V232.648C470.356 233.484 470.613 234.1 471.126 234.496C471.654 234.892 472.358 235.09 473.238 235.09C473.796 235.09 474.368 235.017 474.954 234.87C475.556 234.724 476.142 234.518 476.714 234.254V235.882ZM476.56 240.656V228.996H478.672V240.656H476.56ZM488.163 232.956C489.644 232.971 490.773 233.308 491.551 233.968C492.328 234.628 492.717 235.56 492.717 236.762C492.717 238.024 492.291 238.999 491.441 239.688C490.59 240.363 489.387 240.693 487.833 240.678L482.773 240.656V228.996H484.885V232.934L488.163 232.956ZM487.657 239.072C488.61 239.087 489.329 238.896 489.813 238.5C490.311 238.104 490.561 237.518 490.561 236.74C490.561 235.978 490.319 235.42 489.835 235.068C489.351 234.716 488.625 234.533 487.657 234.518L484.885 234.474V239.05L487.657 239.072ZM497.452 235.794C497.452 235.222 497.547 234.724 497.738 234.298C497.928 233.873 498.163 233.492 498.442 233.154C498.735 232.817 499.05 232.509 499.388 232.23C499.725 231.937 500.04 231.651 500.334 231.372C500.627 231.079 500.862 230.771 501.038 230.448C501.228 230.126 501.324 229.752 501.324 229.326C501.324 228.622 501.045 228.05 500.488 227.61C499.93 227.17 499.16 226.95 498.178 226.95C497.298 226.95 496.535 227.097 495.89 227.39C495.244 227.684 494.694 228.116 494.24 228.688L492.634 227.544C493.25 226.767 494.034 226.166 494.988 225.74C495.941 225.3 497.056 225.08 498.332 225.08C499.388 225.08 500.304 225.242 501.082 225.564C501.859 225.872 502.46 226.32 502.886 226.906C503.326 227.478 503.546 228.175 503.546 228.996C503.546 229.612 503.45 230.14 503.26 230.58C503.069 231.02 502.827 231.409 502.534 231.746C502.24 232.084 501.925 232.399 501.588 232.692C501.265 232.986 500.957 233.279 500.664 233.572C500.37 233.866 500.128 234.188 499.938 234.54C499.747 234.892 499.652 235.31 499.652 235.794H497.452ZM498.574 240.788C498.163 240.788 497.818 240.649 497.54 240.37C497.276 240.092 497.144 239.762 497.144 239.38C497.144 238.97 497.276 238.632 497.54 238.368C497.818 238.104 498.163 237.972 498.574 237.972C498.984 237.972 499.322 238.104 499.586 238.368C499.85 238.632 499.982 238.97 499.982 239.38C499.982 239.762 499.85 240.092 499.586 240.37C499.322 240.649 498.984 240.788 498.574 240.788Z" fill="#FA6334"/>
</g>
<path d="M533.823 290C533.823 300.213 525.472 308.5 515.162 308.5C504.851 308.5 496.5 300.213 496.5 290C496.5 279.787 504.851 271.5 515.162 271.5C525.472 271.5 533.823 279.787 533.823 290Z" fill="#2C2C33" stroke="#D5B563"/>
<path d="M523.872 299.347V297.197C523.872 296.057 523.427 294.964 522.636 294.158C521.845 293.351 520.772 292.898 519.654 292.898H511.218C510.099 292.898 509.026 293.351 508.235 294.158C507.444 294.964 507 296.057 507 297.197V299.347" stroke="#D5B563" stroke-linecap="round" stroke-linejoin="round"/>
<path d="M515.437 288.598C517.766 288.598 519.655 286.673 519.655 284.299C519.655 281.925 517.766 280 515.437 280C513.107 280 511.219 281.925 511.219 284.299C511.219 286.673 513.107 288.598 515.437 288.598Z" stroke="#D5B563" stroke-linecap="round" stroke-linejoin="round"/>
</g>
<path d="M446.732 293L443.888 288.908L445.148 288.128L448.496 293H446.732ZM441.176 293V284.6H442.712V293H441.176ZM442.244 289.46V288.116H445.076V289.46H442.244ZM445.292 288.98L443.864 288.788L446.732 284.6H448.388L445.292 288.98ZM448.627 292.988L448.699 291.728C448.755 291.736 448.807 291.744 448.855 291.752C448.903 291.76 448.947 291.764 448.987 291.764C449.235 291.764 449.427 291.688 449.563 291.536C449.699 291.384 449.799 291.18 449.863 290.924C449.935 290.66 449.983 290.368 450.007 290.048C450.039 289.72 450.063 289.392 450.079 289.064L450.187 286.592H455.371V293H453.871V287.456L454.219 287.864H451.171L451.495 287.444L451.411 289.136C451.387 289.704 451.339 290.232 451.267 290.72C451.203 291.2 451.099 291.62 450.955 291.98C450.819 292.34 450.627 292.62 450.379 292.82C450.139 293.02 449.831 293.12 449.455 293.12C449.335 293.12 449.203 293.108 449.059 293.084C448.923 293.06 448.779 293.028 448.627 292.988ZM457.391 293V286.592H458.891V290.816L462.431 286.592H463.799V293H462.299V288.776L458.771 293H457.391ZM468.805 293.084C468.093 293.084 467.469 292.944 466.933 292.664C466.405 292.376 465.993 291.984 465.697 291.488C465.409 290.992 465.265 290.428 465.265 289.796C465.265 289.156 465.405 288.592 465.685 288.104C465.973 287.608 466.365 287.22 466.861 286.94C467.365 286.66 467.937 286.52 468.577 286.52C469.201 286.52 469.757 286.656 470.245 286.928C470.733 287.2 471.117 287.584 471.397 288.08C471.677 288.576 471.817 289.16 471.817 289.832C471.817 289.896 471.813 289.968 471.805 290.048C471.805 290.128 471.801 290.204 471.793 290.276H466.453V289.28H471.001L470.413 289.592C470.421 289.224 470.345 288.9 470.185 288.62C470.025 288.34 469.805 288.12 469.525 287.96C469.253 287.8 468.937 287.72 468.577 287.72C468.209 287.72 467.885 287.8 467.605 287.96C467.333 288.12 467.117 288.344 466.957 288.632C466.805 288.912 466.729 289.244 466.729 289.628V289.868C466.729 290.252 466.817 290.592 466.993 290.888C467.169 291.184 467.417 291.412 467.737 291.572C468.057 291.732 468.425 291.812 468.841 291.812C469.201 291.812 469.525 291.756 469.813 291.644C470.101 291.532 470.357 291.356 470.581 291.116L471.385 292.04C471.097 292.376 470.733 292.636 470.293 292.82C469.861 292.996 469.365 293.084 468.805 293.084ZM473.457 293V286.592H474.957V289.196H478.185V286.592H479.685V293H478.185V290.468H474.957V293H473.457ZM483.028 293V287.504L483.376 287.864H480.772V286.592H486.772V287.864H484.18L484.528 287.504V293H483.028Z" fill="white"/>
<g filter="url(#filter4_d_182_38)">
<path d="M76.9766 313.197C76.9766 306.459 82.4382 301 89.1759 301H374.072C380.809 301 386.268 306.459 386.268 313.197V349.117C386.268 355.855 380.809 361.318 374.072 361.318H76.9766V313.197Z" fill="url(#paint4_linear_182_38)" fill-opacity="0.45"/>
<path d="M77.7383 313.197C77.7383 306.88 82.8589 301.76 89.1754 301.76H375.071C381.387 301.76 386.508 306.88 386.508 313.197V349.117C386.508 355.433 381.387 360.554 375.071 360.554H77.7383V313.197Z" stroke="white" stroke-opacity="0.08" stroke-width="1.52478"/>
<path d="M77.7383 313.197C77.7383 306.88 82.8589 301.76 89.1754 301.76H376.071C382.387 301.76 387.508 306.88 387.508 313.197V349.117C387.508 355.433 382.387 360.554 376.071 360.554H77.7383V313.197Z" stroke="url(#paint5_linear_182_38)" stroke-opacity="0.18" stroke-width="1.52478"/>
<path d="M102.791 338.555L97.2033 330.965L98.9853 329.865L105.299 338.555H102.791ZM92.4293 338.555V323.155H94.5853V338.555H92.4293ZM93.9253 331.779V329.843H98.9193V331.779H93.9253ZM99.1833 331.097L97.1593 330.789L102.681 323.155H105.035L99.1833 331.097ZM112.046 338.687C110.873 338.687 109.831 338.43 108.922 337.917C108.013 337.403 107.294 336.699 106.766 335.805C106.238 334.895 105.974 333.869 105.974 332.725C105.974 331.566 106.238 330.539 106.766 329.645C107.294 328.75 108.013 328.053 108.922 327.555C109.831 327.041 110.873 326.785 112.046 326.785C113.205 326.785 114.239 327.041 115.148 327.555C116.072 328.053 116.791 328.75 117.304 329.645C117.832 330.525 118.096 331.551 118.096 332.725C118.096 333.883 117.832 334.91 117.304 335.805C116.791 336.699 116.072 337.403 115.148 337.917C114.239 338.43 113.205 338.687 112.046 338.687ZM112.046 336.839C112.794 336.839 113.461 336.67 114.048 336.333C114.649 335.995 115.119 335.519 115.456 334.903C115.793 334.272 115.962 333.546 115.962 332.725C115.962 331.889 115.793 331.17 115.456 330.569C115.119 329.953 114.649 329.476 114.048 329.139C113.461 328.801 112.794 328.633 112.046 328.633C111.298 328.633 110.631 328.801 110.044 329.139C109.457 329.476 108.988 329.953 108.636 330.569C108.284 331.17 108.108 331.889 108.108 332.725C108.108 333.546 108.284 334.272 108.636 334.903C108.988 335.519 109.457 335.995 110.044 336.333C110.631 336.67 111.298 336.839 112.046 336.839ZM121.146 338.555V326.895H123.258V331.845H129.902V326.895H132.014V338.555H129.902V333.671H123.258V338.555H121.146ZM141.312 338.687C140.066 338.687 138.966 338.43 138.012 337.917C137.074 337.403 136.34 336.699 135.812 335.805C135.299 334.91 135.042 333.883 135.042 332.725C135.042 331.566 135.292 330.539 135.79 329.645C136.304 328.75 137 328.053 137.88 327.555C138.775 327.041 139.78 326.785 140.894 326.785C142.024 326.785 143.021 327.034 143.886 327.533C144.752 328.031 145.426 328.735 145.91 329.645C146.409 330.539 146.658 331.588 146.658 332.791C146.658 332.879 146.651 332.981 146.636 333.099C146.636 333.216 146.629 333.326 146.614 333.429H136.692V331.911H145.514L144.656 332.439C144.671 331.691 144.517 331.023 144.194 330.437C143.872 329.85 143.424 329.395 142.852 329.073C142.295 328.735 141.642 328.567 140.894 328.567C140.161 328.567 139.508 328.735 138.936 329.073C138.364 329.395 137.917 329.857 137.594 330.459C137.272 331.045 137.11 331.72 137.11 332.483V332.835C137.11 333.612 137.286 334.309 137.638 334.925C138.005 335.526 138.511 335.995 139.156 336.333C139.802 336.67 140.542 336.839 141.378 336.839C142.068 336.839 142.691 336.721 143.248 336.487C143.82 336.252 144.319 335.9 144.744 335.431L145.91 336.795C145.382 337.411 144.722 337.88 143.93 338.203C143.153 338.525 142.28 338.687 141.312 338.687ZM157.283 333.781C156.667 334.074 156.029 334.309 155.369 334.485C154.723 334.646 154.056 334.727 153.367 334.727C151.959 334.727 150.844 334.397 150.023 333.737C149.216 333.077 148.813 332.057 148.813 330.679V326.895H150.925V330.547C150.925 331.383 151.181 331.999 151.695 332.395C152.223 332.791 152.927 332.989 153.807 332.989C154.364 332.989 154.936 332.915 155.523 332.769C156.124 332.622 156.711 332.417 157.283 332.153V333.781ZM157.129 338.555V326.895H159.241V338.555H157.129ZM163.341 338.555V326.895H165.453V331.845H172.097V326.895H174.209V338.555H172.097V333.671H165.453V338.555H163.341ZM183.31 338.687C182.136 338.687 181.095 338.43 180.186 337.917C179.276 337.403 178.558 336.699 178.03 335.805C177.502 334.895 177.238 333.869 177.238 332.725C177.238 331.566 177.502 330.539 178.03 329.645C178.558 328.75 179.276 328.053 180.186 327.555C181.095 327.041 182.136 326.785 183.31 326.785C184.468 326.785 185.502 327.041 186.412 327.555C187.336 328.053 188.054 328.75 188.568 329.645C189.096 330.525 189.36 331.551 189.36 332.725C189.36 333.883 189.096 334.91 188.568 335.805C188.054 336.699 187.336 337.403 186.412 337.917C185.502 338.43 184.468 338.687 183.31 338.687ZM183.31 336.839C184.058 336.839 184.725 336.67 185.312 336.333C185.913 335.995 186.382 335.519 186.72 334.903C187.057 334.272 187.226 333.546 187.226 332.725C187.226 331.889 187.057 331.17 186.72 330.569C186.382 329.953 185.913 329.476 185.312 329.139C184.725 328.801 184.058 328.633 183.31 328.633C182.562 328.633 181.894 328.801 181.308 329.139C180.721 329.476 180.252 329.953 179.9 330.569C179.548 331.17 179.372 331.889 179.372 332.725C179.372 333.546 179.548 334.272 179.9 334.903C180.252 335.519 180.721 335.995 181.308 336.333C181.894 336.67 182.562 336.839 183.31 336.839ZM192.613 338.687C192.203 338.687 191.851 338.547 191.557 338.269C191.264 337.975 191.117 337.609 191.117 337.169C191.117 336.729 191.264 336.369 191.557 336.091C191.851 335.812 192.203 335.673 192.613 335.673C193.009 335.673 193.347 335.812 193.625 336.091C193.919 336.369 194.065 336.729 194.065 337.169C194.065 337.609 193.919 337.975 193.625 338.269C193.347 338.547 193.009 338.687 192.613 338.687ZM203.396 338.555V323.155H213.494L213.472 325.069H205.024L205.552 324.519L205.574 338.555H203.396ZM220.289 337.565V328.743H215.229L215.119 330.987C215.09 331.72 215.039 332.431 214.965 333.121C214.907 333.795 214.804 334.419 214.657 334.991C214.525 335.563 214.327 336.032 214.063 336.399C213.799 336.765 213.447 336.993 213.007 337.081L210.917 336.707C211.372 336.721 211.739 336.575 212.017 336.267C212.296 335.944 212.509 335.504 212.655 334.947C212.817 334.389 212.934 333.759 213.007 333.055C213.081 332.336 213.139 331.595 213.183 330.833L213.359 326.895H222.401V337.565H220.289ZM210.455 341.261V336.707H224.183V341.261H222.203V338.555H212.457V341.261H210.455ZM232.127 338.687C230.88 338.687 229.78 338.43 228.827 337.917C227.888 337.403 227.155 336.699 226.627 335.805C226.113 334.91 225.857 333.883 225.857 332.725C225.857 331.566 226.106 330.539 226.605 329.645C227.118 328.75 227.815 328.053 228.695 327.555C229.589 327.041 230.594 326.785 231.709 326.785C232.838 326.785 233.835 327.034 234.701 327.533C235.566 328.031 236.241 328.735 236.725 329.645C237.223 330.539 237.473 331.588 237.473 332.791C237.473 332.879 237.465 332.981 237.451 333.099C237.451 333.216 237.443 333.326 237.429 333.429H227.507V331.911H236.329L235.471 332.439C235.485 331.691 235.331 331.023 235.009 330.437C234.686 329.85 234.239 329.395 233.667 329.073C233.109 328.735 232.457 328.567 231.709 328.567C230.975 328.567 230.323 328.735 229.751 329.073C229.179 329.395 228.731 329.857 228.409 330.459C228.086 331.045 227.925 331.72 227.925 332.483V332.835C227.925 333.612 228.101 334.309 228.453 334.925C228.819 335.526 229.325 335.995 229.971 336.333C230.616 336.67 231.357 336.839 232.193 336.839C232.882 336.839 233.505 336.721 234.063 336.487C234.635 336.252 235.133 335.9 235.559 335.431L236.725 336.795C236.197 337.411 235.537 337.88 234.745 338.203C233.967 338.525 233.095 338.687 232.127 338.687ZM247.251 342.955C246.694 342.955 246.151 342.859 245.623 342.669C245.095 342.493 244.641 342.229 244.259 341.877L245.161 340.293C245.455 340.571 245.777 340.784 246.129 340.931C246.481 341.077 246.855 341.151 247.251 341.151C247.765 341.151 248.19 341.019 248.527 340.755C248.865 340.491 249.18 340.021 249.473 339.347L250.199 337.741L250.419 337.477L254.995 326.895H257.063L251.409 339.721C251.072 340.542 250.691 341.187 250.265 341.657C249.855 342.126 249.4 342.456 248.901 342.647C248.403 342.852 247.853 342.955 247.251 342.955ZM250.023 338.929L244.699 326.895H246.899L251.431 337.279L250.023 338.929ZM266.588 337.565V328.743H261.528L261.418 330.987C261.389 331.72 261.337 332.431 261.264 333.121C261.205 333.795 261.103 334.419 260.956 334.991C260.824 335.563 260.626 336.032 260.362 336.399C260.098 336.765 259.746 336.993 259.306 337.081L257.216 336.707C257.671 336.721 258.037 336.575 258.316 336.267C258.595 335.944 258.807 335.504 258.954 334.947C259.115 334.389 259.233 333.759 259.306 333.055C259.379 332.336 259.438 331.595 259.482 330.833L259.658 326.895H268.7V337.565H266.588ZM256.754 341.261V336.707H270.482V341.261H268.502V338.555H258.756V341.261H256.754ZM278.228 338.687C277.054 338.687 276.013 338.43 275.104 337.917C274.194 337.403 273.476 336.699 272.948 335.805C272.42 334.895 272.156 333.869 272.156 332.725C272.156 331.566 272.42 330.539 272.948 329.645C273.476 328.75 274.194 328.053 275.104 327.555C276.013 327.041 277.054 326.785 278.228 326.785C279.386 326.785 280.42 327.041 281.33 327.555C282.254 328.053 282.972 328.75 283.486 329.645C284.014 330.525 284.278 331.551 284.278 332.725C284.278 333.883 284.014 334.91 283.486 335.805C282.972 336.699 282.254 337.403 281.33 337.917C280.42 338.43 279.386 338.687 278.228 338.687ZM278.228 336.839C278.976 336.839 279.643 336.67 280.23 336.333C280.831 335.995 281.3 335.519 281.638 334.903C281.975 334.272 282.144 333.546 282.144 332.725C282.144 331.889 281.975 331.17 281.638 330.569C281.3 329.953 280.831 329.476 280.23 329.139C279.643 328.801 278.976 328.633 278.228 328.633C277.48 328.633 276.812 328.801 276.226 329.139C275.639 329.476 275.17 329.953 274.818 330.569C274.466 331.17 274.29 331.889 274.29 332.725C274.29 333.546 274.466 334.272 274.818 334.903C275.17 335.519 275.639 335.995 276.226 336.333C276.812 336.67 277.48 336.839 278.228 336.839ZM292.717 338.731C291.749 338.731 290.891 338.577 290.143 338.269C289.41 337.961 288.779 337.506 288.251 336.905C287.723 336.289 287.32 335.519 287.041 334.595C286.777 333.656 286.645 332.556 286.645 331.295C286.645 330.297 286.733 329.403 286.909 328.611C287.085 327.819 287.335 327.115 287.657 326.499C287.995 325.883 288.405 325.347 288.889 324.893C289.388 324.438 289.945 324.064 290.561 323.771C291.192 323.463 291.881 323.228 292.629 323.067L297.953 321.879L298.261 323.837L293.355 324.893C293.062 324.951 292.71 325.039 292.299 325.157C291.889 325.274 291.471 325.457 291.045 325.707C290.62 325.941 290.224 326.271 289.857 326.697C289.491 327.122 289.197 327.679 288.977 328.369C288.757 329.043 288.647 329.879 288.647 330.877C288.647 331.155 288.655 331.368 288.669 331.515C288.684 331.661 288.699 331.808 288.713 331.955C288.743 332.101 288.765 332.321 288.779 332.615L287.899 331.713C288.134 330.906 288.508 330.202 289.021 329.601C289.535 328.999 290.151 328.537 290.869 328.215C291.603 327.877 292.402 327.709 293.267 327.709C294.353 327.709 295.313 327.943 296.149 328.413C297 328.882 297.667 329.527 298.151 330.349C298.635 331.17 298.877 332.109 298.877 333.165C298.877 334.235 298.621 335.196 298.107 336.047C297.609 336.883 296.897 337.543 295.973 338.027C295.049 338.496 293.964 338.731 292.717 338.731ZM292.915 336.971C293.663 336.971 294.323 336.809 294.895 336.487C295.467 336.149 295.915 335.702 296.237 335.145C296.56 334.573 296.721 333.935 296.721 333.231C296.721 332.527 296.56 331.903 296.237 331.361C295.915 330.818 295.467 330.393 294.895 330.085C294.323 329.762 293.649 329.601 292.871 329.601C292.138 329.601 291.478 329.755 290.891 330.063C290.305 330.356 289.85 330.774 289.527 331.317C289.205 331.845 289.043 332.461 289.043 333.165C289.043 333.869 289.205 334.514 289.527 335.101C289.865 335.673 290.319 336.127 290.891 336.465C291.478 336.802 292.153 336.971 292.915 336.971ZM301.894 338.555V326.895H304.006V331.845H310.65V326.895H312.762V338.555H310.65V333.671H304.006V338.555H301.894ZM322.06 338.687C320.814 338.687 319.714 338.43 318.76 337.917C317.822 337.403 317.088 336.699 316.56 335.805C316.047 334.91 315.79 333.883 315.79 332.725C315.79 331.566 316.04 330.539 316.538 329.645C317.052 328.75 317.748 328.053 318.628 327.555C319.523 327.041 320.528 326.785 321.642 326.785C322.772 326.785 323.769 327.034 324.634 327.533C325.5 328.031 326.174 328.735 326.658 329.645C327.157 330.539 327.406 331.588 327.406 332.791C327.406 332.879 327.399 332.981 327.384 333.099C327.384 333.216 327.377 333.326 327.362 333.429H317.44V331.911H326.262L325.404 332.439C325.419 331.691 325.265 331.023 324.942 330.437C324.62 329.85 324.172 329.395 323.6 329.073C323.043 328.735 322.39 328.567 321.642 328.567C320.909 328.567 320.256 328.735 319.684 329.073C319.112 329.395 318.665 329.857 318.342 330.459C318.02 331.045 317.858 331.72 317.858 332.483V332.835C317.858 333.612 318.034 334.309 318.386 334.925C318.753 335.526 319.259 335.995 319.904 336.333C320.55 336.67 321.29 336.839 322.126 336.839C322.816 336.839 323.439 336.721 323.996 336.487C324.568 336.252 325.067 335.9 325.492 335.431L326.658 336.795C326.13 337.411 325.47 337.88 324.678 338.203C323.901 338.525 323.028 338.687 322.06 338.687ZM335.875 338.687C334.628 338.687 333.528 338.43 332.575 337.917C331.636 337.403 330.903 336.699 330.375 335.805C329.861 334.91 329.605 333.883 329.605 332.725C329.605 331.566 329.854 330.539 330.353 329.645C330.866 328.75 331.563 328.053 332.443 327.555C333.337 327.041 334.342 326.785 335.457 326.785C336.586 326.785 337.583 327.034 338.449 327.533C339.314 328.031 339.989 328.735 340.473 329.645C340.971 330.539 341.221 331.588 341.221 332.791C341.221 332.879 341.213 332.981 341.199 333.099C341.199 333.216 341.191 333.326 341.177 333.429H331.255V331.911H340.077L339.219 332.439C339.233 331.691 339.079 331.023 338.757 330.437C338.434 329.85 337.987 329.395 337.415 329.073C336.857 328.735 336.205 328.567 335.457 328.567C334.723 328.567 334.071 328.735 333.499 329.073C332.927 329.395 332.479 329.857 332.157 330.459C331.834 331.045 331.673 331.72 331.673 332.483V332.835C331.673 333.612 331.849 334.309 332.201 334.925C332.567 335.526 333.073 335.995 333.719 336.333C334.364 336.67 335.105 336.839 335.941 336.839C336.63 336.839 337.253 336.721 337.811 336.487C338.383 336.252 338.881 335.9 339.307 335.431L340.473 336.795C339.945 337.411 339.285 337.88 338.493 338.203C337.715 338.525 336.843 338.687 335.875 338.687ZM346.436 333.693C346.436 333.121 346.531 332.622 346.722 332.197C346.913 331.771 347.147 331.39 347.426 331.053C347.719 330.715 348.035 330.407 348.372 330.129C348.709 329.835 349.025 329.549 349.318 329.271C349.611 328.977 349.846 328.669 350.022 328.347C350.213 328.024 350.308 327.65 350.308 327.225C350.308 326.521 350.029 325.949 349.472 325.509C348.915 325.069 348.145 324.849 347.162 324.849C346.282 324.849 345.519 324.995 344.874 325.289C344.229 325.582 343.679 326.015 343.224 326.587L341.618 325.443C342.234 324.665 343.019 324.064 343.972 323.639C344.925 323.199 346.04 322.979 347.316 322.979C348.372 322.979 349.289 323.14 350.066 323.463C350.843 323.771 351.445 324.218 351.87 324.805C352.31 325.377 352.53 326.073 352.53 326.895C352.53 327.511 352.435 328.039 352.244 328.479C352.053 328.919 351.811 329.307 351.518 329.645C351.225 329.982 350.909 330.297 350.572 330.591C350.249 330.884 349.941 331.177 349.648 331.471C349.355 331.764 349.113 332.087 348.922 332.439C348.731 332.791 348.636 333.209 348.636 333.693H346.436ZM347.558 338.687C347.147 338.687 346.803 338.547 346.524 338.269C346.26 337.99 346.128 337.66 346.128 337.279C346.128 336.868 346.26 336.531 346.524 336.267C346.803 336.003 347.147 335.871 347.558 335.871C347.969 335.871 348.306 336.003 348.57 336.267C348.834 336.531 348.966 336.868 348.966 337.279C348.966 337.66 348.834 337.99 348.57 338.269C348.306 338.547 347.969 338.687 347.558 338.687Z" fill="white"/>
<circle cx="95.9766" cy="398" r="19" fill="#2C2C33" fill-opacity="0.72" stroke="#D5B563"/>
<path d="M84.8477 396.005H88.9337V401.614H84.8477V396.005Z" fill="#2C2C33" fill-opacity="0.72"/>
<path d="M98.3715 408.067H92.9337C90.7246 408.067 88.9337 406.276 88.9337 404.067V401.614M103.463 396.005H107.106C107.106 398.195 107.106 399.424 107.106 401.614H102.906V393.795C102.906 389.936 99.7782 386.809 95.9199 386.809V386.809C92.0615 386.809 88.9337 389.936 88.9337 393.795V396.005M88.9337 396.005H84.8477V401.614H88.9337M88.9337 396.005V401.614" stroke="#D5B563" stroke-linecap="round" stroke-linejoin="round"/>
</g>
<path d="M233.626 398C233.626 408.774 224.968 417.5 214.298 417.5C203.627 417.5 194.969 408.774 194.969 398C194.969 387.226 203.627 378.5 214.298 378.5C224.968 378.5 233.626 387.226 233.626 398Z" fill="#48C95F" stroke="white"/>
<path d="M222.156 390.062C220.197 388.094 217.586 387 214.829 387C209.098 387 204.455 391.667 204.455 397.427C204.455 399.25 204.963 401.073 205.834 402.604L204.383 408L209.896 406.542C211.42 407.344 213.088 407.781 214.829 407.781C220.56 407.781 225.203 403.115 225.203 397.354C225.13 394.656 224.115 392.031 222.156 390.062ZM219.835 401.146C219.617 401.729 218.601 402.312 218.094 402.385C217.658 402.458 217.078 402.458 216.498 402.312C216.135 402.167 215.627 402.021 215.047 401.729C212.435 400.635 210.767 398.01 210.622 397.792C210.477 397.646 209.533 396.406 209.533 395.094C209.533 393.781 210.186 393.198 210.404 392.906C210.622 392.615 210.912 392.615 211.129 392.615C211.275 392.615 211.492 392.615 211.637 392.615C211.782 392.615 212 392.542 212.218 393.052C212.435 393.562 212.943 394.875 213.016 394.948C213.088 395.094 213.088 395.24 213.016 395.385C212.943 395.531 212.87 395.677 212.725 395.823C212.58 395.969 212.435 396.187 212.363 396.26C212.218 396.406 212.073 396.552 212.218 396.771C212.363 397.062 212.87 397.865 213.668 398.594C214.684 399.469 215.482 399.76 215.772 399.906C216.062 400.052 216.208 399.979 216.353 399.833C216.498 399.687 217.006 399.104 217.151 398.813C217.296 398.521 217.513 398.594 217.731 398.667C217.949 398.74 219.254 399.396 219.472 399.542C219.762 399.688 219.907 399.76 219.98 399.833C220.052 400.052 220.052 400.562 219.835 401.146Z" fill="white"/>
<path d="M202.892 398C202.892 408.774 194.234 417.5 183.563 417.5C172.892 417.5 164.234 408.774 164.234 398C164.234 387.226 172.892 378.5 183.563 378.5C194.234 378.5 202.892 387.226 202.892 398Z" fill="#40AA1A" stroke="white"/>
<path d="M195.013 399.625L194.849 399.365C194.587 398.976 194.326 398.587 193.932 398.328C193.604 398.1 193.211 397.939 192.852 397.776C193.867 397.29 194.561 396.609 194.889 395.734C195.118 395.02 194.699 394.437 194.699 393.853V393.789C194.699 393.139 193.809 392.718 192.99 392.491C192.497 392.394 191.954 392.394 191.463 392.425L190.387 392.653L190.752 391.842C191.078 390.804 190.983 389.799 190.426 388.858L190.328 388.697C189.836 387.886 189.116 387.4 188.133 387.14C187.118 386.88 186.253 386.978 185.336 387.464C184.417 387.952 183.551 388.698 183.551 389.669V389.734L183.435 389.961L183.262 389.734L182.914 389.151C182.389 388.34 181.724 387.854 180.904 387.626C180.183 387.464 179.59 387.529 178.967 387.854C178.28 388.275 177.883 388.925 177.719 389.832C177.555 390.772 177.718 391.681 178.21 392.588L178.438 392.913L177.652 392.653C176.668 392.425 175.752 392.555 174.835 393.042C173.884 393.528 173.294 394.209 172.901 395.15C172.54 396.058 172.574 396.932 173.032 397.744C173.229 398.101 173.524 398.392 173.785 398.587C174.179 398.976 174.67 399.203 175.26 399.3L175.489 399.365L174.998 399.788C174.539 400.177 174.277 400.663 174.114 401.149C173.95 401.733 174.015 402.317 174.343 402.869C174.507 403.128 174.67 403.353 174.933 403.517C175.195 403.743 175.522 403.905 175.915 403.938C176.636 404.101 177.39 404.101 178.208 403.84L177.618 404.814L177.455 405.235C177.127 406.271 177.225 407.179 177.716 408.12C177.946 408.478 178.208 408.802 178.47 409.093C178.863 409.45 179.354 409.677 179.945 409.84C180.926 410.099 181.909 410.065 182.86 409.58C183.777 409.093 184.366 408.314 184.662 407.342L184.693 407.149C185.316 407.828 185.906 408.283 186.562 408.445C187.217 408.639 187.872 408.608 188.461 408.217C189.018 407.893 189.411 407.342 189.607 406.66C189.771 405.947 189.771 405.234 189.607 404.425C189.934 404.651 190.263 404.813 190.655 404.909C191.703 405.234 192.621 405.201 193.538 404.715C194.423 404.23 195.012 403.45 195.307 402.445C195.57 401.473 195.505 400.533 195.013 399.625ZM190.263 394.21L190.656 394.047C191.247 393.789 191.802 393.723 192.393 393.789C192.948 393.853 193.343 394.112 193.539 394.502L193.67 394.922L193.604 395.247C193.376 395.831 192.883 396.285 192.065 396.642C191.738 396.803 191.378 396.869 190.985 396.932L186.955 397.42L186.889 397.193L186.823 397.095L186.955 396.932L190.263 394.21ZM184.694 390.124C184.857 389.475 185.317 388.989 185.906 388.665C186.496 388.34 187.151 388.275 187.773 388.502C188.462 388.665 188.952 389.021 189.248 389.572C189.412 389.897 189.509 390.286 189.509 390.707L189.412 391.42C189.281 391.777 189.117 392.102 188.921 392.394L185.972 395.961C185.678 395.734 185.35 395.571 185.022 395.409L184.694 391.745L184.662 390.448L184.694 390.124ZM179.094 390.221C179.125 389.637 179.354 389.248 179.748 389.021C179.945 388.859 180.239 388.859 180.501 388.989C181.091 389.152 181.583 389.573 181.975 390.383C182.139 390.708 182.302 391.032 182.369 391.421L183.023 395.248L182.533 395.41L179.616 392.264L179.453 391.94C179.191 391.356 179.027 390.805 179.094 390.221ZM174.277 397.095C174.015 396.609 174.015 396.123 174.212 395.637C174.441 395.02 174.867 394.534 175.488 394.274C176.079 393.95 176.667 393.853 177.323 394.014L178.208 394.371L181.091 396.447C180.829 396.772 180.664 397.095 180.566 397.42L175.849 398.004L175.522 397.939C174.932 397.841 174.539 397.583 174.277 397.095ZM183.551 406.662L183.435 406.987C183.206 407.57 182.771 408.057 182.182 408.314C181.592 408.64 180.947 408.704 180.359 408.543C179.702 408.381 179.201 407.992 178.939 407.472C178.776 407.149 178.64 406.759 178.64 406.37L178.799 405.625C178.866 405.3 179.029 404.975 179.291 404.716L182.041 401.472C182.369 401.635 182.779 401.797 183.14 401.831C183.205 402.932 183.551 404.102 183.551 405.365V406.662ZM182.302 400.178C181.876 399.788 181.648 399.235 181.648 398.652C181.648 398.068 181.876 397.583 182.302 397.128C182.696 396.772 183.22 396.544 183.842 396.544C184.432 396.544 184.989 396.772 185.35 397.128C185.807 397.583 186.005 398.068 186.005 398.652C186.005 399.235 185.807 399.788 185.35 400.178C184.924 400.599 184.432 400.824 183.842 400.824C183.22 400.825 182.696 400.599 182.302 400.178ZM188.364 405.851C188.298 406.436 188.102 406.858 187.707 407.02C187.479 407.181 187.217 407.181 186.955 407.15C186.332 406.987 185.841 406.501 185.481 405.722L185.087 404.652L184.596 401.831L185.152 401.635L185.579 401.41L186.955 402.802L187.807 403.841L187.97 404.164C188.265 404.716 188.429 405.236 188.364 405.851ZM193.998 402.057C193.834 402.707 193.441 403.193 192.883 403.451C192.295 403.776 191.704 403.841 191.05 403.614C190.656 403.518 190.394 403.353 190.165 403.095L186.725 400.274L186.955 399.788L187.054 399.398L190.755 399.073L192.065 399.042L192.393 399.073C192.883 399.236 193.343 399.528 193.604 400.014C193.931 400.372 194.096 400.858 194.096 401.411L193.998 402.057Z" fill="white"/>
<path d="M172.158 398C172.158 408.774 163.5 417.5 152.829 417.5C142.158 417.5 133.5 408.774 133.5 398C133.5 387.226 142.158 378.5 152.829 378.5C163.5 378.5 172.158 387.226 172.158 398Z" fill="#2F89CE" stroke="white"/>
<path d="M142.27 398.374L146.828 400.089L148.605 405.856C148.683 406.245 149.146 406.323 149.455 406.09L152.005 403.985C152.237 403.751 152.623 403.751 152.932 403.985L157.491 407.336C157.8 407.57 158.264 407.414 158.341 407.025L161.741 390.659C161.818 390.269 161.432 389.879 161.045 390.035L142.27 397.361C141.806 397.517 141.806 398.218 142.27 398.374ZM148.374 399.231L157.337 393.698C157.491 393.62 157.646 393.854 157.491 393.932L150.151 400.868C149.919 401.102 149.687 401.413 149.687 401.803L149.455 403.674C149.455 403.907 149.069 403.985 148.992 403.674L148.065 400.244C147.833 399.855 147.987 399.387 148.374 399.231Z" fill="white"/>
<g filter="url(#filter5_d_182_38)">
<path d="M648 367.547C648 363.224 651.505 359.719 655.828 359.719H718.172C722.495 359.719 726 363.224 726 367.547V429.891C726 434.214 722.495 437.719 718.172 437.719H655.828C651.505 437.719 648 434.214 648 429.891V367.547Z" fill="url(#paint6_linear_182_38)" fill-opacity="0.45" stroke="#1E1E1E" stroke-width="2"/>
</g>
<path d="M679.656 413.791H676.893C675.788 413.791 674.893 412.895 674.893 411.791V410.776C674.893 409.871 674.28 409.091 673.432 408.776C673.05 408.634 672.675 408.478 672.307 408.309C671.485 407.932 670.5 408.05 669.86 408.69L669.141 409.409C668.36 410.19 667.093 410.19 666.312 409.409L663.077 406.173C662.296 405.392 662.296 404.126 663.077 403.345L663.796 402.626C664.436 401.986 664.554 401.001 664.177 400.178C664.008 399.811 663.853 399.437 663.711 399.055C663.396 398.207 662.615 397.595 661.711 397.595H660.695C659.591 397.595 658.695 396.699 658.695 395.595V391.019C658.695 389.914 659.591 389.019 660.695 389.019H661.71C662.615 389.019 663.395 388.406 663.711 387.558C663.834 387.226 663.968 386.899 664.112 386.577C664.481 385.751 664.353 384.767 663.707 384.133L662.982 383.422C662.194 382.649 662.182 381.382 662.955 380.594L666.16 377.328C666.934 376.539 668.2 376.527 668.988 377.301L669.713 378.012C670.359 378.646 671.345 378.755 672.164 378.369C672.578 378.175 673.001 377.997 673.432 377.837C674.28 377.521 674.893 376.741 674.893 375.836V374.822C674.893 373.718 675.788 372.822 676.893 372.822H681.468C682.573 372.822 683.468 373.718 683.468 374.822V375.836C683.468 376.741 684.081 377.522 684.929 377.837C685.31 377.979 685.685 378.134 686.052 378.303C686.875 378.68 687.86 378.562 688.5 377.922L689.217 377.204C689.998 376.423 691.265 376.423 692.046 377.204L695.281 380.44C696.062 381.221 696.062 382.487 695.281 383.268L694.564 383.985C693.924 384.626 693.806 385.611 694.183 386.433C694.352 386.801 694.508 387.176 694.65 387.558" stroke="#D5B563" stroke-width="2" stroke-linecap="round" stroke-linejoin="round"/>
<path d="M679.888 402.491C674.815 402.491 670.703 398.379 670.703 393.306C670.703 388.233 674.815 384.121 679.888 384.121C683.983 384.121 687.451 386.8 688.637 390.501" stroke="#D5B563" stroke-width="2"/>
<circle cx="696.93" cy="406.245" r="18.3719" stroke="#D5B563" stroke-width="2"/>
<path d="M699.249 415.977H694.123C691.914 415.977 690.123 414.186 690.123 411.977V409.738M704.172 404.314H707.694C707.694 406.432 707.694 407.62 707.694 409.738H703.633V402.177C703.633 398.446 700.609 395.422 696.878 395.422V395.422C693.147 395.422 690.123 398.446 690.123 402.177V404.314M690.123 404.314H686.172V409.738H690.123M690.123 404.314V409.738" stroke="#D5B563" stroke-width="2" stroke-linecap="round" stroke-linejoin="round"/>
</g>
<rect x="1" y="1" width="1158" height="468" rx="20" stroke="#1E1E1E" stroke-width="2"/>
<defs>
<filter id="filter0_d_182_38" x="-4.38579" y="-1" width="1168.77" height="478.772" filterUnits="userSpaceOnUse" color-interpolation-filters="sRGB">
<feFlood flood-opacity="0" result="BackgroundImageFix"/>
<feColorMatrix in="SourceAlpha" type="matrix" values="0 0 0 0 0 0 0 0 0 0 0 0 0 0 0 0 0 0 127 0" result="hardAlpha"/>
<feOffset dy="4.38579"/>
<feGaussianBlur stdDeviation="2.19289"/>
<feComposite in2="hardAlpha" operator="out"/>
<feColorMatrix type="matrix" values="0 0 0 0 0 0 0 0 0 0 0 0 0 0 0 0 0 0 0.25 0"/>
<feBlend mode="normal" in2="BackgroundImageFix" result="effect1_dropShadow_182_38"/>
<feBlend mode="normal" in="SourceGraphic" in2="effect1_dropShadow_182_38" result="shape"/>
</filter>
<filter id="filter1_d_182_38" x="42.8" y="46.8" width="136.4" height="136.4" filterUnits="userSpaceOnUse" color-interpolation-filters="sRGB">
<feFlood flood-opacity="0" result="BackgroundImageFix"/>
<feColorMatrix in="SourceAlpha" type="matrix" values="0 0 0 0 0 0 0 0 0 0 0 0 0 0 0 0 0 0 127 0" result="hardAlpha"/>
<feOffset dy="4"/>
<feGaussianBlur stdDeviation="4.1"/>
<feComposite in2="hardAlpha" operator="out"/>
<feColorMatrix type="matrix" values="0 0 0 0 0 0 0 0 0 0 0 0 0 0 0 0 0 0 0.25 0"/>
<feBlend mode="normal" in2="BackgroundImageFix" result="effect1_dropShadow_182_38"/>
<feBlend mode="normal" in="SourceGraphic" in2="effect1_dropShadow_182_38" result="shape"/>
</filter>
<filter id="filter2_d_182_38" x="214.845" y="201.178" width="326.028" height="118.497" filterUnits="userSpaceOnUse" color-interpolation-filters="sRGB">
<feFlood flood-opacity="0" result="BackgroundImageFix"/>
<feColorMatrix in="SourceAlpha" type="matrix" values="0 0 0 0 0 0 0 0 0 0 0 0 0 0 0 0 0 0 127 0" result="hardAlpha"/>
<feOffset dy="4.5747"/>
<feGaussianBlur stdDeviation="3.04991"/>
<feComposite in2="hardAlpha" operator="out"/>
<feColorMatrix type="matrix" values="0 0 0 0 0 0 0 0 0 0 0 0 0 0 0 0 0 0 0.25 0"/>
<feBlend mode="normal" in2="BackgroundImageFix" result="effect1_dropShadow_182_38"/>
<feBlend mode="normal" in="SourceGraphic" in2="effect1_dropShadow_182_38" result="shape"/>
</filter>
<filter id="filter3_d_182_38" x="233.645" y="221.766" width="274.332" height="25.7107" filterUnits="userSpaceOnUse" color-interpolation-filters="sRGB">
<feFlood flood-opacity="0" result="BackgroundImageFix"/>
<feColorMatrix in="SourceAlpha" type="matrix" values="0 0 0 0 0 0 0 0 0 0 0 0 0 0 0 0 0 0 127 0" result="hardAlpha"/>
<feOffset dy="2.21479"/>
<feGaussianBlur stdDeviation="2.21479"/>
<feComposite in2="hardAlpha" operator="out"/>
<feColorMatrix type="matrix" values="0 0 0 0 0 0 0 0 0 0 0 0 0 0 0 0 0 0 0.25 0"/>
<feBlend mode="normal" in2="BackgroundImageFix" result="effect1_dropShadow_182_38"/>
<feBlend mode="normal" in="SourceGraphic" in2="effect1_dropShadow_182_38" result="shape"/>
</filter>
<filter id="filter4_d_182_38" x="70.3767" y="299.473" width="323.993" height="128.702" filterUnits="userSpaceOnUse" color-interpolation-filters="sRGB">
<feFlood flood-opacity="0" result="BackgroundImageFix"/>
<feColorMatrix in="SourceAlpha" type="matrix" values="0 0 0 0 0 0 0 0 0 0 0 0 0 0 0 0 0 0 127 0" result="hardAlpha"/>
<feOffset dy="4.5747"/>
<feGaussianBlur stdDeviation="3.04991"/>
<feComposite in2="hardAlpha" operator="out"/>
<feColorMatrix type="matrix" values="0 0 0 0 0 0 0 0 0 0 0 0 0 0 0 0 0 0 0.25 0"/>
<feBlend mode="normal" in2="BackgroundImageFix" result="effect1_dropShadow_182_38"/>
<feBlend mode="normal" in="SourceGraphic" in2="effect1_dropShadow_182_38" result="shape"/>
</filter>
<filter id="filter5_d_182_38" x="638.36" y="352.959" width="97.2802" height="97.2802" filterUnits="userSpaceOnUse" color-interpolation-filters="sRGB">
<feFlood flood-opacity="0" result="BackgroundImageFix"/>
<feColorMatrix in="SourceAlpha" type="matrix" values="0 0 0 0 0 0 0 0 0 0 0 0 0 0 0 0 0 0 127 0" result="hardAlpha"/>
<feOffset dy="2.88026"/>
<feGaussianBlur stdDeviation="4.32005"/>
<feComposite in2="hardAlpha" operator="out"/>
<feColorMatrix type="matrix" values="0 0 0 0 0 0 0 0 0 0 0 0 0 0 0 0 0 0 0.4 0"/>
<feBlend mode="normal" in2="BackgroundImageFix" result="effect1_dropShadow_182_38"/>
<feBlend mode="normal" in="SourceGraphic" in2="effect1_dropShadow_182_38" result="shape"/>
</filter>
<linearGradient id="paint0_linear_182_38" x1="1.03951" y1="49.5" x2="164.888" y2="629.193" gradientUnits="userSpaceOnUse">
<stop stop-color="#0D0D0E"/>
<stop offset="0.303582" stop-color="#1D1C1B"/>
<stop offset="1" stop-color="#101010"/>
</linearGradient>
<radialGradient id="paint1_radial_182_38" cx="0" cy="0" r="1" gradientUnits="userSpaceOnUse" gradientTransform="translate(19 462.5) scale(346.5 798.412)">
<stop stop-color="white"/>
<stop offset="0.13" stop-color="white" stop-opacity="0.87"/>
<stop offset="1" stop-color="white" stop-opacity="0"/>
</radialGradient>
<linearGradient id="paint2_linear_182_38" x1="534.477" y1="203" x2="94.6479" y2="301.987" gradientUnits="userSpaceOnUse">
<stop stop-color="#272727"/>
<stop offset="0.203" stop-color="#323232"/>
<stop offset="0.438" stop-color="#353535"/>
<stop offset="0.656" stop-color="#1B1B1B"/>
</linearGradient>
<radialGradient id="paint3_radial_182_38" cx="0" cy="0" r="1" gradientUnits="userSpaceOnUse" gradientTransform="translate(278.528 203.116) rotate(-1.34697) scale(26.1898 22.3706)">
<stop stop-color="#FBBAA6"/>
<stop offset="1" stop-color="white" stop-opacity="0"/>
</radialGradient>
<linearGradient id="paint4_linear_182_38" x1="76.9766" y1="301" x2="104.854" y2="424.724" gradientUnits="userSpaceOnUse">
<stop stop-color="#272727"/>
<stop offset="0.203" stop-color="#323232"/>
<stop offset="0.438" stop-color="#353535"/>
<stop offset="0.656" stop-color="#1B1B1B"/>
</linearGradient>
<linearGradient id="paint5_linear_182_38" x1="232.624" y1="301" x2="232.624" y2="345.482" gradientUnits="userSpaceOnUse">
<stop stop-color="white"/>
<stop offset="1" stop-color="white" stop-opacity="0"/>
</linearGradient>
<linearGradient id="paint6_linear_182_38" x1="647" y1="358.719" x2="732.323" y2="432.569" gradientUnits="userSpaceOnUse">
<stop stop-color="#272727"/>
<stop offset="0.203" stop-color="#323232"/>
<stop offset="0.438" stop-color="#353535"/>
<stop offset="0.656" stop-color="#1B1B1B"/>
</linearGradient>
<clipPath id="clip0_182_38">
<rect x="1" y="1" width="1158" height="468" rx="20" fill="white"/>
</clipPath>
</defs>
</svg>
